<svg xmlns="http://www.w3.org/2000/svg" viewBox="0 0 1081 1893"><defs><style>.cls-1,.cls-2{stroke:#000;stroke-miterlimit:10;}.cls-2,.cls-5{fill:#fff;}.cls-3{fill:#e3ffe6;}.cls-4{fill:#24242d;}</style></defs><title>art1logo</title><g id="Layer_2" data-name="Layer 2"><g id="Layer_1-2" data-name="Layer 1"><path class="cls-1" d="M540.5.5l-8,1892h548V.5ZM805.29,1317.14l-27.22-1.42V1323l-54.44-2.85,11.46-139.49,26.31,5.23q.45-5.55.91-11.09l43,8.54ZM925.38,957.87c-13.79,103.74-100.35,205.62-152.47,191.7-52.48-14-74.06-146.54-37.57-244.68,21.93-59,76.27-136.31,125.2-127.66C911.33,786.22,935.19,884.14,925.38,957.87Zm62.94-207.78c-41.83,29.7-109.47,26.81-126.07-2.85-17.19-30.7,22.31-86.51,65.9-111,26.87-15.11,76.29-30.14,97.42-8.54C1049.76,652.39,1031.45,719.47,988.32,750.09Z"/><polygon class="cls-2" points="540.5 0.5 532.5 1892.5 0.5 1892.5 0.5 0.5 540.5 0.5"/><path class="cls-2" d="M805.29,1183.34v133.8l-27.22-1.42V1189.2l-16.67-3.31q.45-5.55.91-11.09Z"/><path class="cls-2" d="M867.07,835.59l-25.89,204.56-47.64-10.46,28.71-205Z"/><path class="cls-3" d="M867.07,835.59l-25.89,204.56-47.64-10.46,28.71-205Z"/><path class="cls-4" d="M805.29,1183.34v133.8l-27.22-1.42V1189.2l-16.67-3.31q.45-5.55.91-11.09Z"/><path class="cls-5" d="M988.32,750.09c-41.83,29.7-109.47,26.81-126.07-2.85-17.19-30.7,22.31-86.51,65.9-111,26.87-15.11,76.29-30.14,97.42-8.54C1049.76,652.39,1031.45,719.47,988.32,750.09Z"/><path class="cls-5" d="M860.54,777.23c-48.93-8.65-103.27,68.7-125.2,127.66-36.49,98.14-14.91,230.66,37.57,244.68,52.12,13.92,138.68-88,152.47-191.7C935.19,884.14,911.33,786.22,860.54,777.23Zm-19.36,262.92-47.64-10.46,28.71-205,44.82,10.86Z"/><path class="cls-5" d="M778.07,1315.72V1323l-54.44-2.85,11.46-139.49,26.31,5.23q-5.28,64.2-10.55,128.41Z"/><path class="cls-5" d="M778.07,1189.2v126.52l-27.22-1.42q5.28-64.2,10.55-128.41Z"/><path d="M867.07,835.59l-25.89,204.56-47.64-10.46,28.71-205Z"/><path d="M81.31,743.64c41.83,29.7,109.47,26.81,126.07-2.85,17.19-30.7-22.31-86.51-65.9-111-26.87-15.11-76.29-30.14-97.42-8.54C19.87,645.94,38.18,713,81.31,743.64Z"/><path d="M144.25,951.42C158,1055.16,244.6,1157,296.72,1143.12c52.48-14,74.06-146.54,37.57-244.68-21.93-59-76.27-136.31-125.2-127.66C158.3,779.77,134.44,877.69,144.25,951.42Zm58.31-122.28,44.82-10.86,28.71,205-47.64,10.46Z"/><path class="cls-4" d="M264.34,1176.89v133.8l27.22-1.42V1182.75l16.67-3.31c-.3-3.7-.61-7.39-.91-11.09Z"/><path d="M291.56,1182.75v133.8L346,1313.7l-11.46-139.49-26.31,5.23Z"/><path class="cls-5" d="M202.56,829.14l25.89,204.56,47.64-10.46-28.71-205Z"/></g></g></svg>