<svg xmlns="http://www.w3.org/2000/svg" viewBox="0 0 430.7 439.21"><defs><style>.cls-1{fill:#000634;}.cls-2{fill:#000655;}.cls-3{fill:#000685;}.cls-4{fill:#0006b2;}.cls-5{fill:#0006ea;}.cls-6{fill:#fff;}.cls-7{fill:none;stroke:#000;stroke-miterlimit:10;stroke-width:8px;}</style></defs><g id="Layer_2" data-name="Layer 2"><g id="Layer_1-2" data-name="Layer 1"><path class="cls-1" d="M48.92,49.33c8.22-22.14,10-32.95,21.86-41.15,24.45-16.89,62.62-2.67,67.31-.86,21.5,8.31,19.84,16.43,35.59,20.15,31.2,7.37,43.14-23.23,74.16-20.15,33.44,3.32,36.47,40.54,76.32,46.3,25.1,3.63,31.44-10,48.87-1.71,20.86,10,37.41,41.86,35.58,66.45-.31,4.23-1.27,9.63.86,16.72,4.49,14.91,16.19,15.73,20.15,25.29,7.86,19-29.65,36.46-28.72,67.31.7,23.3,22.49,26.41,21,47.16-1.41,19.77-21.49,21.08-47.16,56.59-18.67,25.84-15.78,35.86-28.72,42-18.55,8.83-32.92-7.73-72.45-20.14-12.9-4.05-66.08-19.47-123.47-7.72-33.64,6.88-42.71,17.78-64.74,12C64.17,352,42.8,334.14,36.49,311.28c-7.93-28.7,15.15-38.93,14.14-72.45-1.39-46.52-46.58-51.61-47.15-94.32C3.09,115.69,23.66,117.37,48.92,49.33Z"/><path class="cls-2" d="M45.45,78.75c8.22-22.15,10-32.95,21.86-41.16,24.45-16.89,62.62-2.67,67.31-.86,21.5,8.31,19.84,16.43,35.59,20.15,31.2,7.37,43.14-23.23,74.16-20.15,33.44,3.33,36.47,40.54,76.32,46.3,25.1,3.63,31.44-10,48.87-1.71,20.86,10,37.41,41.86,35.58,66.45-.31,4.23-1.27,9.63.86,16.72,4.49,14.91,16.19,15.73,20.15,25.29,7.86,19-29.65,36.47-28.72,67.31.7,23.3,22.49,26.42,21,47.16C417,324,396.94,325.33,371.27,360.84c-18.67,25.84-15.78,35.86-28.72,42-18.55,8.82-32.92-7.74-72.45-20.15-12.9-4-66.08-19.47-123.47-7.72-33.64,6.89-42.71,17.78-64.74,12C60.7,381.44,39.33,363.55,33,340.69c-7.93-28.7,15.15-38.93,14.14-72.45C45.77,221.73.58,216.63,0,173.92-.38,145.1,20.19,146.78,45.45,78.75Z"/><path class="cls-3" d="M48.88,112.61c8.22-22.14,10-32.95,21.86-41.15,24.45-16.89,62.62-2.67,67.31-.86,21.5,8.31,19.84,16.43,35.59,20.15,31.2,7.37,43.14-23.23,74.16-20.15,33.44,3.32,36.47,40.54,76.32,46.3,25.1,3.63,31.44-10.05,48.87-1.71,20.86,10,37.41,41.86,35.58,66.45-.31,4.23-1.27,9.63.86,16.72,4.49,14.91,16.19,15.73,20.15,25.29,7.86,19-29.65,36.46-28.72,67.31.7,23.3,22.49,26.41,21,47.16-1.41,19.77-21.49,21.08-47.16,56.59-18.67,25.84-15.78,35.86-28.72,42-18.55,8.82-32.92-7.74-72.45-20.15-12.9-4.05-66.08-19.47-123.47-7.72-33.64,6.88-42.71,17.78-64.74,12-21.19-5.55-42.56-23.44-48.87-46.3-7.93-28.7,15.15-38.93,14.14-72.45C49.2,255.59,4,250.5,3.44,207.79,3.05,179,23.62,180.65,48.88,112.61Z"/><path class="cls-4" d="M91.41,173c6.15-16.56,7.47-24.64,16.35-30.78,18.28-12.63,46.83-2,50.34-.64,16.08,6.22,14.83,12.29,26.61,15.07,23.34,5.51,32.27-17.38,55.47-15.07,25,2.49,27.27,30.32,57.07,34.63,18.78,2.71,23.52-7.52,36.55-1.28,15.6,7.46,28,31.31,26.61,49.69-.23,3.16-1,7.21.64,12.51,3.36,11.15,12.11,11.76,15.07,18.91C382,270.25,354,283.33,354.64,306.4c.52,17.42,16.82,19.76,15.71,35.27-1.06,14.79-16.08,15.77-35.27,42.32-14,19.33-11.8,26.82-21.48,31.42-13.87,6.6-24.62-5.78-54.19-15.07-9.64-3-49.42-14.55-92.34-5.77-25.15,5.15-31.94,13.3-48.41,9C102.81,399.4,86.83,386,82.11,368.92c-5.93-21.46,11.33-29.11,10.58-54.18-1-34.79-34.84-38.6-35.27-70.54C57.13,222.65,72.51,223.9,91.41,173Z"/><path class="cls-5" d="M122.08,201.94c4.44-12,5.39-17.79,11.81-22.22,13.2-9.12,33.81-1.44,36.34-.46,11.61,4.48,10.71,8.87,19.22,10.88,16.85,4,23.29-12.55,40.05-10.88,18.05,1.79,19.69,21.89,41.2,25,13.56,2,17-5.43,26.39-.93,11.27,5.39,20.2,22.61,19.22,35.88-.17,2.29-.69,5.21.46,9,2.42,8.06,8.74,8.5,10.88,13.66,4.25,10.25-16,19.69-15.51,36.35.38,12.58,12.15,14.26,11.35,25.46-.77,10.68-11.61,11.39-25.47,30.56-10.08,14-8.52,19.36-15.51,22.69-10,4.76-17.77-4.18-39.12-10.88-7-2.19-35.69-10.51-66.68-4.17-18.16,3.72-23.06,9.6-35,6.48-11.45-3-23-12.66-26.39-25-4.28-15.5,8.18-21,7.64-39.12-.76-25.12-25.16-27.87-25.47-50.93C97.33,237.77,108.44,238.68,122.08,201.94Z"/><circle class="cls-6" cx="261.37" cy="233.74" r="10"/><circle class="cls-6" cx="165.37" cy="233.74" r="10"/><path class="cls-7" d="M181.37,269.74a71.84,71.84,0,0,0,66,0"/></g></g></svg>