<svg xmlns="http://www.w3.org/2000/svg" viewBox="0 0 79.18 79.18"><defs><style>.cls-1{fill:#fff;}.cls-2{opacity:0.8;}.cls-3{fill:#1d1d1d;}</style></defs><title>MO-jap</title><g id="Layer_2" data-name="Layer 2"><g id="Layer_1-2" data-name="Layer 1"><circle class="cls-1" cx="39.59" cy="39.59" r="39.59"/><g class="cls-2"><path class="cls-3" d="M57.44,56.73A14.83,14.83,0,0,1,56.29,60a9.88,9.88,0,0,1-6.55,4.88,9,9,0,0,1-3.2.07,10.23,10.23,0,0,1-2.8-.7c-.53-.27.67.29,2.8.7a10.31,10.31,0,0,0,3.51-.24,9.11,9.11,0,0,1-4.38-1,13,13,0,0,1-2.25-.49,29.16,29.16,0,0,1-4.71-2A6.23,6.23,0,0,1,35.47,58a9.65,9.65,0,0,1-.62-2.27,8.35,8.35,0,0,1,0-2.43c0,2.4.52,4.74,2.08,6.17a10.81,10.81,0,0,0,3,1.8,26.06,26.06,0,0,0,3.44,1.3l-.36-.19a31.5,31.5,0,0,1-3.51-1.59,7.64,7.64,0,0,1-2.65-2.09,2.83,2.83,0,0,1-.53-.91,5.42,5.42,0,0,0,.53.91,6.52,6.52,0,0,0,2.51,1.57c.63.34,1.4.85,2.09,1.15a13,13,0,0,1,1.56,1q.54.2,1.08.36a2.17,2.17,0,0,1,.36,0l0,0a7.28,7.28,0,0,0-1.75-1.29l-1.48-1c-.53-.35-1.12-.73-1.6-1.09a6.81,6.81,0,0,1-1.19-1.07,3.56,3.56,0,0,1-.58-.92c-.27-.57-.4-1.16-.53-1.41-.39-.79-1.37-1.72-1.52-3.1,0-.45.17-.85,0-1.21-.12,0-.22-.22-.31-.41-.05-1,.42-1.93.07-2.68-.14-.54,2-1.88,1.63-2-1.39-.48-.38-.14-.17-1.34,0-.14-.51-.66-.42-1,.45-1,0-1.3-.06-2.46-.24-1.75.68-2,0-3.63a11,11,0,0,1-.17-1.4l-.08-1.26c.46-1.81,0-3.12,1.32-4.32C37,29.4,38.61,27.48,39,25.73s1.27-2.27,2.37-3.52c.24-.39.29-.72.55-.9s0-.95.23-1.33l.33.24.32-.5c.09-.12.19,0,.3,0s.43.32.7.15a15.73,15.73,0,0,0,1.17-1.52c.05-.66.1-1.31.13-2a1.65,1.65,0,0,1-.39-.35l0-.62c-.3-.26-.7-.4-.9-.58-1-.45-1.64-1.62-2.62-1.86-.29-.06-.83.92-1.51,1.18-.2,0-.41-.35-.71-.62-.28.61-.68.48-.89.08l-.18.27-.41-.35c-1.13,1.36-2.72,2.82-2.86,4.58a6.66,6.66,0,0,0,0,1.46c0,.22-.33.56-.41.7.24.38.65.48,1,.72-.76,1-2.2,3.38-.84,3.7-.33.93.22,1.29,0,2.29-.26,1.33-.58,3-.9,4.65-.09.92-.3,1.78-.46,2.65-.06.33-.11.65-.16,1-1,6.56-2.45,11.42-1.27,18a19.78,19.78,0,0,0,1.63,5.18,9,9,0,0,0,1.68,2.32,10.75,10.75,0,0,0,2.22,1.62,42.32,42.32,0,0,0,4.47,2,20.06,20.06,0,0,0,4.6,1.23,11.72,11.72,0,0,0,4.68-.25,10.72,10.72,0,0,0,3.83-1.94,8.6,8.6,0,0,0,3.25-5.29A7.77,7.77,0,0,0,57.44,56.73Z"/></g><g class="cls-2"><path class="cls-3" d="M46.71,33.37c-.82-1.12-3.11-1-4.13-1.52a3,3,0,0,1-.91-.31c-.19-.11.24,0,.91.31.29.07.64.13,1.05.2a19.23,19.23,0,0,1-1.42-1.36c-.26,0-.51,0-.77-.07a22.23,22.23,0,0,1-3.35-.42,7.61,7.61,0,0,1-1.68-.4c1.63.13,3.26.21,4.9.25L41.17,30c-.86-.14-1.72-.29-2.58-.46a1.14,1.14,0,0,1-.44-.08l.44.08a8.13,8.13,0,0,0,1.15-.16c.26,0,.56.2.81.22a1.87,1.87,0,0,1,.62.4l.39.06.12-.05v0c-.4-1-3.6-2.32-4.11-2.13s-.79,1-1.26,1.07c-.16,0-.29-.2-.41,0a.78.78,0,0,1-.14.32c-.32.06-.62-.42-.87,0-.18.16-.59-2-.63-1.56-.17,1.41,0,.38-.44.24,0,0-.22.54-.31.48-.31-.37-.42.11-.8.25-.58.43-.65-.47-1.19.39a9.27,9.27,0,0,1-.88.62c-.6-.17-1,.5-1.42-.52-.62.81-1.26-.28-1.85-.18s-.75-.64-1.18-1.31c-.13-.11-.24-.06-.3-.26s-.33.31-.46.2l.09-.38L25.34,27s0-.17,0-.29a1.48,1.48,0,0,0,.06-.71,2.28,2.28,0,0,0-.52-.58,5.65,5.65,0,0,0-.69.56c0,.17-.08.34-.12.48l-.22.26c-.1.38-.15.79-.21,1-.17,1.08-.59,2.09-.68,3.09,0,.29.32.43.4,1a4,4,0,0,1-.22.87c.21,0,.17.45,0,.79l.1.08-.13.5c.47.56,1,1.57,1.58,1.16a2.5,2.5,0,0,0,.51-.49c.07-.08.19.16.23.2a6.77,6.77,0,0,0,.26-1.14c.35.43,1.14,1.2,1.26-.18.31.1.44-.54.77-.57a12.28,12.28,0,0,1,1.56-.1,2.82,2.82,0,0,1,.87,0h.31c2.15,0,3.74,1.14,5.86.1a8.88,8.88,0,0,1,6.17-.41c1.86.45,3.39,1.16,3.94,1.26Z"/></g><g class="cls-2"><path class="cls-3" d="M51,47.37c-1-1-3.66-.7-4.87-1.1A3.93,3.93,0,0,1,45.06,46c-.23-.1.27,0,1.06.23.35,0,.75.08,1.23.1-.66-.43-1.27-.86-1.72-1.22a8.75,8.75,0,0,1-.88,0,23.68,23.68,0,0,1-3.86-.22A8.5,8.5,0,0,1,39,44.57c1.86.09,3.74.08,5.62,0l-.17-.07c-1-.07-2-.18-3-.3a1.78,1.78,0,0,1-.51-.06l.51.06A9.51,9.51,0,0,0,42.75,44c.29,0,.64.18.94.18a2.17,2.17,0,0,1,.72.35l.45,0a.42.42,0,0,1,.13-.07h0c-.24-.5-1.31-1-2.37-1.37a6,6,0,0,0-2.4-.52c-.47.14-.88,1-1.41,1.11-.18,0-.34-.19-.47,0a.67.67,0,0,1-.15.33c-.36.06-.72-.42-1,0-.2.17-.71-1.94-.75-1.55-.17,1.41,0,.38-.49.25-.06,0-.25.54-.35.48-.36-.37-.48.1-.92.25-.65.42-.74-.48-1.35.38a11,11,0,0,1-1,.6c-.68-.18-1.18.48-1.62-.56-.72.79-1.43-.33-2.1-.26s-.86-.68-1.32-1.37c-.14-.12-.28-.08-.34-.29s-.38.29-.52.17l.11-.37-.19-.16c-.05,0,0-.17,0-.29a1.3,1.3,0,0,0,.09-.71,3.13,3.13,0,0,0-.57-.62,7.9,7.9,0,0,0-.79.5,3.85,3.85,0,0,1-.16.48l-.26.24c-.12.37-.19.78-.27,1-.23,1.07-.74,2-.89,3,0,.29.36.46.44,1a4.31,4.31,0,0,1-.28.87c.25,0,.18.46,0,.78l.11.09-.16.49c.53.61,1.09,1.66,1.81,1.29a2.17,2.17,0,0,0,.6-.45c.09-.08.22.17.28.21a6.58,6.58,0,0,0,.31-1.12c.4.45,1.31,1.27,1.47-.11.36.12.52-.52.91-.53s1.16,0,1.8,0a3.4,3.4,0,0,1,1,0h.37c2.48,0,4.35,1.18,6.8.08a12.76,12.76,0,0,1,7.12-.77c2.17.3,4,.83,4.63.86Z"/></g></g></g></svg>