<svg xmlns="http://www.w3.org/2000/svg" xmlns:xlink="http://www.w3.org/1999/xlink" viewBox="0 0 1920 1424"><defs><style>.cls-1{fill:url(#linear-gradient);}.cls-2{fill:#fff;}.cls-3{fill:#676fff;}</style><linearGradient id="linear-gradient" x1="0.5" y1="712" x2="1919.5" y2="712" gradientUnits="userSpaceOnUse"><stop offset="0" stop-color="blue"/><stop offset="1"/></linearGradient></defs><title>details-back</title><g id="Layer_2" data-name="Layer 2"><g id="Layer_1-2" data-name="Layer 1"><rect class="cls-1" x="0.5" y="0.5" width="1919" height="1423"/><path d="M1919,1V1423H1V1H1919m1-1H0V1424H1920V0Z"/><rect class="cls-2" x="1278" y="704" width="227" height="53" rx="26.5" transform="translate(-63.9 1323.54) rotate(-49.87)"/><rect class="cls-3" x="1234.37" y="668.25" width="227" height="53" rx="26.5" transform="translate(-52.08 1277.48) rotate(-49.87)"/><rect class="cls-2" x="1702.09" y="481.77" width="227" height="53" rx="26.5" transform="translate(256.75 1568.79) rotate(-49.87)"/><rect class="cls-3" x="1658.46" y="446.02" width="227" height="53" rx="26.5" transform="translate(268.57 1522.73) rotate(-49.87)"/><rect class="cls-2" x="849.09" y="927.77" width="227" height="53" rx="26.5" transform="translate(-387.45 1075.15) rotate(-49.87)"/><rect class="cls-3" x="805.46" y="892.02" width="227" height="53" rx="26.5" transform="translate(-375.63 1029.09) rotate(-49.87)"/><rect class="cls-2" x="426.09" y="1168.77" width="227" height="53" rx="26.5" transform="translate(-722.06 837.41) rotate(-49.87)"/><rect class="cls-3" x="382.46" y="1133.02" width="227" height="53" rx="26.5" transform="translate(-710.24 791.34) rotate(-49.87)"/><rect class="cls-2" x="59.09" y="1171.77" width="227" height="53" rx="26.5" transform="translate(-854.8 557.88) rotate(-49.87)"/><rect class="cls-3" x="15.46" y="1136.02" width="227" height="53" rx="26.5" transform="translate(-842.98 511.81) rotate(-49.87)"/><rect class="cls-2" x="329.5" y="1021.5" width="227" height="53" rx="26.5" transform="translate(-643.8 711.21) rotate(-49.87)"/><rect class="cls-3" x="285.87" y="985.75" width="227" height="53" rx="26.5" transform="matrix(0.64, -0.76, 0.76, 0.64, -631.98, 665.15)"/><rect class="cls-2" x="124.59" y="1050.27" width="227" height="53" rx="26.5" transform="translate(-738.63 564.77) rotate(-49.87)"/><rect class="cls-3" x="80.96" y="1014.52" width="227" height="53" rx="26.5" transform="translate(-726.81 518.71) rotate(-49.87)"/><rect class="cls-2" x="666.59" y="1003.27" width="227" height="53" rx="26.5" transform="translate(-510.04 962.46) rotate(-49.87)"/><rect class="cls-3" x="622.96" y="967.52" width="227" height="53" rx="26.5" transform="translate(-498.22 916.39) rotate(-49.87)"/><rect class="cls-2" x="513.59" y="1021.27" width="227" height="53" rx="26.5" transform="translate(-578.19 851.88) rotate(-49.87)"/><rect class="cls-3" x="469.96" y="985.52" width="227" height="53" rx="26.5" transform="translate(-566.36 805.81) rotate(-49.87)"/><rect class="cls-2" x="1150.59" y="1210.27" width="227" height="53" rx="26.5" transform="translate(-496.27 1406.08) rotate(-49.87)"/><rect class="cls-3" x="1106.96" y="1174.52" width="227" height="53" rx="26.5" transform="translate(-484.45 1360.02) rotate(-49.87)"/><rect class="cls-2" x="1404.5" y="681.5" width="227" height="53" rx="26.5" transform="translate(-1.74 1412.26) rotate(-49.87)"/><rect class="cls-3" x="1360.87" y="645.75" width="227" height="53" rx="26.5" transform="translate(10.08 1366.2) rotate(-49.87)"/><rect class="cls-2" x="530.59" y="923.27" width="227" height="53" rx="26.5" transform="translate(-497.22 830.04) rotate(-49.87)"/><rect class="cls-3" x="486.96" y="887.52" width="227" height="53" rx="26.5" transform="translate(-485.4 783.98) rotate(-49.87)"/><rect class="cls-2" x="975.59" y="905.27" width="227" height="53" rx="26.5" transform="translate(-325.28 1163.87) rotate(-49.87)"/><rect class="cls-3" x="931.96" y="869.52" width="227" height="53" rx="26.5" transform="translate(-313.46 1117.81) rotate(-49.87)"/><rect class="cls-2" x="552.59" y="1146.27" width="227" height="53" rx="26.5" transform="translate(-659.89 926.13) rotate(-49.87)"/><rect class="cls-3" x="508.96" y="1110.52" width="227" height="53" rx="26.5" transform="translate(-648.07 880.06) rotate(-49.87)"/><rect class="cls-2" x="185.59" y="1149.27" width="227" height="53" rx="26.5" transform="translate(-792.64 646.6) rotate(-49.87)"/><rect class="cls-3" x="141.96" y="1113.52" width="227" height="53" rx="26.5" transform="translate(-780.82 600.53) rotate(-49.87)"/><rect class="cls-2" x="1321.5" y="815.5" width="227" height="53" rx="26.5" transform="translate(-133.69 1396.43) rotate(-49.87)"/><rect class="cls-3" x="1277.87" y="779.75" width="227" height="53" rx="26.5" transform="translate(-121.87 1350.37) rotate(-49.87)"/><rect class="cls-2" x="1652.59" y="643.27" width="227" height="53" rx="26.5" transform="translate(115.68 1588.35) rotate(-49.87)"/><rect class="cls-3" x="1608.96" y="607.52" width="227" height="53" rx="26.5" transform="translate(127.5 1542.29) rotate(-49.87)"/><rect class="cls-2" x="892.59" y="1039.27" width="227" height="53" rx="26.5" transform="translate(-457.23 1148.04) rotate(-49.87)"/><rect class="cls-3" x="848.96" y="1003.52" width="227" height="53" rx="26.5" transform="translate(-445.41 1101.98) rotate(-49.87)"/><rect class="cls-2" x="469.59" y="1280.27" width="227" height="53" rx="26.5" transform="translate(-791.85 910.3) rotate(-49.87)"/><rect class="cls-3" x="425.96" y="1244.52" width="227" height="53" rx="26.5" transform="translate(-780.03 864.23) rotate(-49.87)"/><rect class="cls-2" x="102.59" y="1283.27" width="227" height="53" rx="26.5" transform="translate(-924.59 630.77) rotate(-49.87)"/><rect class="cls-3" x="58.96" y="1247.52" width="227" height="53" rx="26.5" transform="translate(-912.77 584.7) rotate(-49.87)"/><rect class="cls-2" x="1570.5" y="640.5" width="227" height="53" rx="26.5" transform="translate(88.61 1524.61) rotate(-49.87)"/><rect class="cls-3" x="1526.87" y="604.75" width="227" height="53" rx="26.5" transform="translate(100.43 1478.54) rotate(-49.87)"/><rect class="cls-2" x="1080.59" y="794.27" width="227" height="53" rx="26.5" transform="translate(-203.09 1204.7) rotate(-49.87)"/><rect class="cls-3" x="1036.96" y="758.52" width="227" height="53" rx="26.5" transform="translate(-191.27 1158.63) rotate(-49.87)"/><rect class="cls-2" x="1141.59" y="864.27" width="227" height="53" rx="26.5" transform="translate(-234.93 1276.22) rotate(-49.87)"/><rect class="cls-3" x="1097.96" y="828.52" width="227" height="53" rx="26.5" transform="translate(-223.11 1230.15) rotate(-49.87)"/><rect class="cls-2" x="718.59" y="1105.27" width="227" height="53" rx="26.5" transform="translate(-569.54 1038.47) rotate(-49.87)"/><rect class="cls-3" x="674.96" y="1069.52" width="227" height="53" rx="26.5" transform="translate(-557.72 992.4) rotate(-49.87)"/><rect class="cls-2" x="351.59" y="1108.27" width="227" height="53" rx="26.5" transform="translate(-702.28 758.94) rotate(-49.87)"/><rect class="cls-3" x="307.96" y="1072.52" width="227" height="53" rx="26.5" transform="translate(-690.46 712.88) rotate(-49.87)"/><rect class="cls-2" x="1294.5" y="806.42" width="227" height="53" rx="26.5" transform="translate(-136.35 1372.56) rotate(-49.87)"/><rect class="cls-3" x="1250.87" y="770.67" width="227" height="53" rx="26.5" transform="translate(-124.53 1326.5) rotate(-49.87)"/><rect class="cls-2" x="1428.59" y="421.19" width="227" height="53" rx="26.5" transform="translate(205.85 1338.15) rotate(-49.87)"/><rect class="cls-3" x="1384.96" y="385.44" width="227" height="53" rx="26.5" transform="translate(217.67 1292.09) rotate(-49.87)"/><rect class="cls-2" x="865.59" y="1030.19" width="227" height="53" rx="26.5" transform="translate(-459.89 1124.17) rotate(-49.87)"/><rect class="cls-3" x="821.96" y="994.44" width="227" height="53" rx="26.5" transform="translate(-448.07 1078.11) rotate(-49.87)"/><rect class="cls-2" x="442.59" y="1271.19" width="227" height="53" rx="26.5" transform="translate(-794.5 886.43) rotate(-49.87)"/><rect class="cls-3" x="398.96" y="1235.44" width="227" height="53" rx="26.5" transform="translate(-782.68 840.36) rotate(-49.87)"/><rect class="cls-2" x="1233.59" y="1210.19" width="227" height="53" rx="26.5" transform="translate(-466.7 1469.51) rotate(-49.87)"/><rect class="cls-3" x="1189.96" y="1174.44" width="227" height="53" rx="26.5" transform="translate(-454.88 1423.45) rotate(-49.87)"/><rect class="cls-2" x="346" y="1123.92" width="227" height="53" rx="26.5" transform="translate(-716.24 760.23) rotate(-49.87)"/><rect class="cls-3" x="302.37" y="1088.17" width="227" height="53" rx="26.5" transform="translate(-704.42 714.17) rotate(-49.87)"/><rect class="cls-2" x="141.09" y="1152.69" width="227" height="53" rx="26.5" transform="translate(-811.07 613.79) rotate(-49.87)"/><rect class="cls-3" x="97.46" y="1116.94" width="227" height="53" rx="26.5" transform="translate(-799.25 567.73) rotate(-49.87)"/><rect class="cls-2" x="683.09" y="1105.69" width="227" height="53" rx="26.5" transform="translate(-582.48 1011.48) rotate(-49.87)"/><rect class="cls-3" x="639.46" y="1069.94" width="227" height="53" rx="26.5" transform="translate(-570.66 965.41) rotate(-49.87)"/><rect class="cls-2" x="530.09" y="1123.69" width="227" height="53" rx="26.5" transform="translate(-650.63 900.9) rotate(-49.87)"/><rect class="cls-3" x="486.46" y="1087.94" width="227" height="53" rx="26.5" transform="translate(-638.81 854.83) rotate(-49.87)"/><rect class="cls-2" x="251.09" y="1253.69" width="227" height="53" rx="26.5" transform="translate(-849.19 733.79) rotate(-49.87)"/><rect class="cls-3" x="207.46" y="1217.94" width="227" height="53" rx="26.5" transform="translate(-837.37 687.73) rotate(-49.87)"/><rect class="cls-2" x="1421" y="783.92" width="227" height="53" rx="26.5" transform="translate(-74.18 1461.28) rotate(-49.87)"/><rect class="cls-3" x="1377.37" y="748.17" width="227" height="53" rx="26.5" transform="translate(-62.36 1415.22) rotate(-49.87)"/><rect class="cls-2" x="547.09" y="1025.69" width="227" height="53" rx="26.5" transform="translate(-569.66 879.06) rotate(-49.87)"/><rect class="cls-3" x="503.46" y="989.94" width="227" height="53" rx="26.5" transform="translate(-557.84 833) rotate(-49.87)"/><rect class="cls-2" x="992.09" y="1007.69" width="227" height="53" rx="26.5" transform="translate(-397.72 1212.89) rotate(-49.87)"/><rect class="cls-3" x="948.46" y="971.94" width="227" height="53" rx="26.5" transform="matrix(0.64, -0.76, 0.76, 0.64, -385.9, 1166.83)"/><rect class="cls-2" x="569.09" y="1248.69" width="227" height="53" rx="26.5" transform="translate(-732.33 975.15) rotate(-49.87)"/><rect class="cls-3" x="525.46" y="1212.94" width="227" height="53" rx="26.5" transform="translate(-720.51 929.08) rotate(-49.87)"/><rect class="cls-2" x="805.09" y="1230.69" width="227" height="53" rx="26.5" transform="translate(-634.69 1149.18) rotate(-49.87)"/><rect class="cls-3" x="761.46" y="1194.94" width="227" height="53" rx="26.5" transform="translate(-622.87 1103.12) rotate(-49.87)"/><rect class="cls-2" x="1338" y="917.92" width="227" height="53" rx="26.5" transform="translate(-206.13 1445.45) rotate(-49.87)"/><rect class="cls-3" x="1294.37" y="882.17" width="227" height="53" rx="26.5" transform="translate(-194.31 1399.39) rotate(-49.87)"/><rect class="cls-2" x="1608.09" y="806.69" width="227" height="53" rx="26.5" transform="translate(-25.09 1612.42) rotate(-49.87)"/><rect class="cls-3" x="1564.46" y="770.94" width="227" height="53" rx="26.5" transform="matrix(0.64, -0.76, 0.76, 0.64, -13.27, 1566.35)"/><rect class="cls-2" x="1136.09" y="1102.69" width="227" height="53" rx="26.5" transform="translate(-419.17 1356.76) rotate(-49.87)"/><rect class="cls-3" x="1092.46" y="1066.94" width="227" height="53" rx="26.5" transform="translate(-407.35 1310.69) rotate(-49.87)"/><rect class="cls-2" x="966.09" y="1192.69" width="227" height="53" rx="26.5" transform="translate(-548.41 1258.77) rotate(-49.87)"/><rect class="cls-3" x="922.46" y="1156.94" width="227" height="53" rx="26.5" transform="translate(-536.58 1212.71) rotate(-49.87)"/><rect class="cls-2" x="1351.09" y="1080.69" width="227" height="53" rx="26.5" transform="translate(-325.93 1513.32) rotate(-49.87)"/><rect class="cls-3" x="1307.46" y="1044.94" width="227" height="53" rx="26.5" transform="translate(-314.11 1467.25) rotate(-49.87)"/><rect class="cls-2" x="1587" y="742.92" width="227" height="53" rx="26.5" transform="translate(16.17 1573.63) rotate(-49.87)"/><rect class="cls-3" x="1543.37" y="707.17" width="227" height="53" rx="26.5" transform="translate(27.99 1527.56) rotate(-49.87)"/><rect class="cls-2" x="1097.09" y="896.69" width="227" height="53" rx="26.5" transform="translate(-275.53 1253.72) rotate(-49.87)"/><rect class="cls-3" x="1053.46" y="860.94" width="227" height="53" rx="26.5" transform="matrix(0.64, -0.76, 0.76, 0.64, -263.71, 1207.65)"/><rect class="cls-2" x="1158.09" y="966.69" width="227" height="53" rx="26.5" transform="translate(-307.37 1325.24) rotate(-49.87)"/><rect class="cls-3" x="1114.46" y="930.94" width="227" height="53" rx="26.5" transform="translate(-295.55 1279.17) rotate(-49.87)"/><rect class="cls-2" x="735.09" y="1207.69" width="227" height="53" rx="26.5" transform="translate(-641.98 1087.49) rotate(-49.87)"/><rect class="cls-3" x="691.46" y="1171.94" width="227" height="53" rx="26.5" transform="translate(-630.16 1041.42) rotate(-49.87)"/><rect class="cls-2" x="368.09" y="1210.69" width="227" height="53" rx="26.5" transform="translate(-774.73 807.96) rotate(-49.87)"/><rect class="cls-3" x="324.46" y="1174.94" width="227" height="53" rx="26.5" transform="translate(-762.91 761.9) rotate(-49.87)"/><rect class="cls-2" x="1250.5" y="459.42" width="227" height="53" rx="26.5" transform="translate(113.32 1215.58) rotate(-49.87)"/><rect class="cls-3" x="1206.87" y="423.67" width="227" height="53" rx="26.5" transform="translate(125.14 1169.52) rotate(-49.87)"/><rect class="cls-2" x="1674.59" y="237.19" width="227" height="53" rx="26.5" transform="translate(433.97 1460.83) rotate(-49.87)"/><rect class="cls-3" x="1630.96" y="201.44" width="227" height="53" rx="26.5" transform="translate(445.79 1414.77) rotate(-49.87)"/><rect class="cls-2" x="821.59" y="683.19" width="227" height="53" rx="26.5" transform="translate(-210.22 967.19) rotate(-49.87)"/><rect class="cls-3" x="777.96" y="647.44" width="227" height="53" rx="26.5" transform="translate(-198.4 921.13) rotate(-49.87)"/><rect class="cls-2" x="398.59" y="924.19" width="227" height="53" rx="26.5" transform="translate(-544.84 729.44) rotate(-49.87)"/><rect class="cls-3" x="354.96" y="888.44" width="227" height="53" rx="26.5" transform="translate(-533.02 683.38) rotate(-49.87)"/><rect class="cls-2" x="31.59" y="927.19" width="227" height="53" rx="26.5" transform="translate(-677.58 449.92) rotate(-49.87)"/><rect class="cls-3" x="-12.04" y="891.44" width="227" height="53" rx="26.5" transform="translate(-665.76 403.85) rotate(-49.87)"/><rect class="cls-2" x="355" y="416.92" width="227" height="53" rx="26.5" transform="translate(-172.49 515.81) rotate(-49.87)"/><rect class="cls-3" x="311.37" y="381.17" width="227" height="53" rx="26.5" transform="translate(-160.67 469.74) rotate(-49.87)"/><rect class="cls-2" x="150.09" y="445.69" width="227" height="53" rx="26.5" transform="translate(-267.32 369.37) rotate(-49.87)"/><rect class="cls-3" x="106.46" y="409.94" width="227" height="53" rx="26.5" transform="translate(-255.5 323.3) rotate(-49.87)"/><rect class="cls-2" x="692.09" y="398.69" width="227" height="53" rx="26.5" transform="translate(-38.74 767.06) rotate(-49.87)"/><rect class="cls-3" x="648.46" y="362.94" width="227" height="53" rx="26.5" transform="translate(-26.92 720.99) rotate(-49.87)"/><rect class="cls-2" x="539.09" y="416.69" width="227" height="53" rx="26.5" transform="translate(-106.88 656.48) rotate(-49.87)"/><rect class="cls-3" x="495.46" y="380.94" width="227" height="53" rx="26.5" transform="translate(-95.06 610.41) rotate(-49.87)"/><rect class="cls-2" x="1435.09" y="1093.69" width="227" height="53" rx="26.5" transform="translate(-306.01 1582.16) rotate(-49.87)"/><rect class="cls-3" x="1391.46" y="1057.94" width="227" height="53" rx="26.5" transform="translate(-294.19 1536.1) rotate(-49.87)"/><rect class="cls-2" x="1377" y="436.92" width="227" height="53" rx="26.5" transform="translate(175.48 1304.3) rotate(-49.87)"/><rect class="cls-3" x="1333.37" y="401.17" width="227" height="53" rx="26.5" transform="translate(187.3 1258.24) rotate(-49.87)"/><rect class="cls-2" x="556.09" y="318.69" width="227" height="53" rx="26.5" transform="translate(-25.91 634.64) rotate(-49.87)"/><rect class="cls-3" x="512.46" y="282.94" width="227" height="53" rx="26.5" transform="translate(-14.09 588.57) rotate(-49.87)"/><rect class="cls-2" x="948.09" y="660.69" width="227" height="53" rx="26.5" transform="translate(-148.06 1055.91) rotate(-49.87)"/><rect class="cls-3" x="904.46" y="624.94" width="227" height="53" rx="26.5" transform="translate(-136.24 1009.85) rotate(-49.87)"/><rect class="cls-2" x="525.09" y="901.69" width="227" height="53" rx="26.5" transform="translate(-482.67 818.16) rotate(-49.87)"/><rect class="cls-3" x="481.46" y="865.94" width="227" height="53" rx="26.5" transform="translate(-470.85 772.1) rotate(-49.87)"/><rect class="cls-2" x="158.09" y="904.69" width="227" height="53" rx="26.5" transform="translate(-615.41 538.64) rotate(-49.87)"/><rect class="cls-3" x="114.46" y="868.94" width="227" height="53" rx="26.5" transform="translate(-603.59 492.57) rotate(-49.87)"/><rect class="cls-2" x="1294" y="570.92" width="227" height="53" rx="26.5" transform="translate(43.53 1288.47) rotate(-49.87)"/><rect class="cls-3" x="1250.37" y="535.17" width="227" height="53" rx="26.5" transform="translate(55.35 1242.41) rotate(-49.87)"/><rect class="cls-2" x="1718.09" y="348.69" width="227" height="53" rx="26.5" transform="translate(364.18 1533.72) rotate(-49.87)"/><rect class="cls-3" x="1674.46" y="312.94" width="227" height="53" rx="26.5" transform="translate(376 1487.66) rotate(-49.87)"/><rect class="cls-2" x="865.09" y="794.69" width="227" height="53" rx="26.5" transform="translate(-280.01 1040.08) rotate(-49.87)"/><rect class="cls-3" x="821.46" y="758.94" width="227" height="53" rx="26.5" transform="translate(-268.19 994.02) rotate(-49.87)"/><rect class="cls-2" x="442.09" y="1035.69" width="227" height="53" rx="26.5" transform="translate(-614.62 802.34) rotate(-49.87)"/><rect class="cls-3" x="398.46" y="999.94" width="227" height="53" rx="26.5" transform="translate(-602.8 756.27) rotate(-49.87)"/><rect class="cls-2" x="75.09" y="1038.69" width="227" height="53" rx="26.5" transform="matrix(0.64, -0.76, 0.76, 0.64, -747.37, 522.81)"/><rect class="cls-3" x="31.46" y="1002.94" width="227" height="53" rx="26.5" transform="translate(-735.55 476.74) rotate(-49.87)"/><rect class="cls-2" x="1543" y="395.92" width="227" height="53" rx="26.5" transform="translate(265.84 1416.64) rotate(-49.87)"/><rect class="cls-3" x="1499.37" y="360.17" width="227" height="53" rx="26.5" transform="translate(277.66 1370.58) rotate(-49.87)"/><rect class="cls-2" x="1053.09" y="549.69" width="227" height="53" rx="26.5" transform="translate(-25.87 1096.73) rotate(-49.87)"/><rect class="cls-3" x="1009.46" y="513.94" width="227" height="53" rx="26.5" transform="translate(-14.05 1050.67) rotate(-49.87)"/><rect class="cls-2" x="1114.09" y="619.69" width="227" height="53" rx="26.5" transform="translate(-57.71 1168.25) rotate(-49.87)"/><rect class="cls-3" x="1070.46" y="583.94" width="227" height="53" rx="26.5" transform="translate(-45.88 1122.19) rotate(-49.87)"/><rect class="cls-2" x="691.09" y="860.69" width="227" height="53" rx="26.5" transform="translate(-392.32 930.51) rotate(-49.87)"/><rect class="cls-3" x="647.46" y="824.94" width="227" height="53" rx="26.5" transform="translate(-380.5 884.44) rotate(-49.87)"/><rect class="cls-2" x="324.09" y="863.69" width="227" height="53" rx="26.5" transform="translate(-525.06 650.98) rotate(-49.87)"/><rect class="cls-3" x="280.46" y="827.94" width="227" height="53" rx="26.5" transform="translate(-513.24 604.92) rotate(-49.87)"/><rect class="cls-2" x="1291.5" y="145.42" width="227" height="53" rx="26.5" transform="translate(367.96 1135.32) rotate(-49.87)"/><rect class="cls-3" x="1247.87" y="109.67" width="227" height="53" rx="26.5" transform="translate(379.78 1089.25) rotate(-49.87)"/><rect class="cls-2" x="1488.59" y="312.19" width="227" height="53" rx="26.5" transform="translate(310.51 1345.28) rotate(-49.87)"/><rect class="cls-3" x="1444.96" y="276.44" width="227" height="53" rx="26.5" transform="translate(322.33 1299.22) rotate(-49.87)"/><rect class="cls-2" x="862.59" y="369.19" width="227" height="53" rx="26.5" transform="translate(44.42 886.93) rotate(-49.87)"/><rect class="cls-3" x="818.96" y="333.44" width="227" height="53" rx="26.5" transform="translate(56.24 840.86) rotate(-49.87)"/><rect class="cls-2" x="492.59" y="250.19" width="227" height="53" rx="26.5" transform="translate(3.89 561.74) rotate(-49.87)"/><rect class="cls-3" x="448.96" y="214.44" width="227" height="53" rx="26.5" transform="translate(15.71 515.68) rotate(-49.87)"/><rect class="cls-2" x="125.59" y="253.19" width="227" height="53" rx="26.5" transform="translate(-128.85 282.21) rotate(-49.87)"/><rect class="cls-3" x="81.96" y="217.44" width="227" height="53" rx="26.5" transform="translate(-117.03 236.15) rotate(-49.87)"/><rect class="cls-2" x="396" y="102.92" width="227" height="53" rx="26.5" transform="translate(82.15 435.55) rotate(-49.87)"/><rect class="cls-3" x="352.37" y="67.17" width="227" height="53" rx="26.5" transform="translate(93.97 389.48) rotate(-49.87)"/><rect class="cls-2" x="856.09" y="188.69" width="227" height="53" rx="26.5" transform="translate(180.11 817.8) rotate(-49.87)"/><rect class="cls-3" x="812.46" y="152.94" width="227" height="53" rx="26.5" transform="translate(191.94 771.73) rotate(-49.87)"/><rect class="cls-2" x="701.09" y="125.69" width="227" height="53" rx="26.5" transform="translate(173.19 676.9) rotate(-49.87)"/><rect class="cls-3" x="657.46" y="89.94" width="227" height="53" rx="26.5" transform="translate(185.01 630.83) rotate(-49.87)"/><rect class="cls-2" x="580.09" y="102.69" width="227" height="53" rx="26.5" transform="translate(147.76 576.21) rotate(-49.87)"/><rect class="cls-3" x="536.46" y="66.94" width="227" height="53" rx="26.5" transform="translate(159.58 530.15) rotate(-49.87)"/><rect class="cls-2" x="1022.09" y="298.69" width="227" height="53" rx="26.5" transform="translate(155.02 983.82) rotate(-49.87)"/><rect class="cls-3" x="978.46" y="262.94" width="227" height="53" rx="26.5" transform="translate(166.84 937.75) rotate(-49.87)"/><rect class="cls-2" x="1418" y="122.92" width="227" height="53" rx="26.5" transform="translate(430.13 1224.04) rotate(-49.87)"/><rect class="cls-3" x="1374.37" y="87.17" width="227" height="53" rx="26.5" transform="translate(441.95 1177.97) rotate(-49.87)"/><rect class="cls-2" x="1477.09" y="906.69" width="227" height="53" rx="26.5" transform="translate(-148.11 1547.8) rotate(-49.87)"/><rect class="cls-3" x="1433.46" y="870.94" width="227" height="53" rx="26.5" transform="translate(-136.29 1501.74) rotate(-49.87)"/><rect class="cls-2" x="989.09" y="346.69" width="227" height="53" rx="26.5" transform="translate(106.59 975.65) rotate(-49.87)"/><rect class="cls-3" x="945.46" y="310.94" width="227" height="53" rx="26.5" transform="translate(118.41 929.58) rotate(-49.87)"/><rect class="cls-2" x="619.09" y="227.69" width="227" height="53" rx="26.5" transform="translate(66.06 650.46) rotate(-49.87)"/><rect class="cls-3" x="575.46" y="191.94" width="227" height="53" rx="26.5" transform="translate(77.88 604.4) rotate(-49.87)"/><rect class="cls-2" x="252.09" y="230.69" width="227" height="53" rx="26.5" transform="translate(-66.69 370.93) rotate(-49.87)"/><rect class="cls-3" x="208.46" y="194.94" width="227" height="53" rx="26.5" transform="translate(-54.87 324.87) rotate(-49.87)"/><rect class="cls-2" x="1335" y="256.92" width="227" height="53" rx="26.5" transform="translate(298.18 1208.21) rotate(-49.87)"/><rect class="cls-3" x="1291.37" y="221.17" width="227" height="53" rx="26.5" transform="translate(310 1162.14) rotate(-49.87)"/><rect class="cls-2" x="1612.09" y="883.69" width="227" height="53" rx="26.5" transform="translate(-82.54 1642.84) rotate(-49.87)"/><rect class="cls-3" x="1568.46" y="847.94" width="227" height="53" rx="26.5" transform="translate(-70.72 1596.78) rotate(-49.87)"/><rect class="cls-2" x="906.09" y="480.69" width="227" height="53" rx="26.5" transform="translate(-25.36 959.82) rotate(-49.87)"/><rect class="cls-3" x="862.46" y="444.94" width="227" height="53" rx="26.5" transform="translate(-13.54 913.75) rotate(-49.87)"/><rect class="cls-2" x="536.09" y="361.69" width="227" height="53" rx="26.5" transform="translate(-65.9 634.63) rotate(-49.87)"/><rect class="cls-3" x="492.46" y="325.94" width="227" height="53" rx="26.5" transform="translate(-54.08 588.57) rotate(-49.87)"/><rect class="cls-2" x="169.09" y="364.69" width="227" height="53" rx="26.5" transform="translate(-198.64 355.1) rotate(-49.87)"/><rect class="cls-3" x="125.46" y="328.94" width="227" height="53" rx="26.5" transform="translate(-186.82 309.04) rotate(-49.87)"/><rect class="cls-2" x="1345" y="303.92" width="227" height="53" rx="26.5" transform="translate(265.8 1232.56) rotate(-49.87)"/><rect class="cls-3" x="1301.37" y="268.17" width="227" height="53" rx="26.5" transform="translate(277.62 1186.49) rotate(-49.87)"/><rect class="cls-2" x="1094.09" y="235.69" width="227" height="53" rx="26.5" transform="translate(228.78 1016.47) rotate(-49.87)"/><rect class="cls-3" x="1050.46" y="199.94" width="227" height="53" rx="26.5" transform="translate(240.6 970.41) rotate(-49.87)"/><rect class="cls-2" x="1155.09" y="305.69" width="227" height="53" rx="26.5" transform="translate(196.94 1087.99) rotate(-49.87)"/><rect class="cls-3" x="1111.46" y="269.94" width="227" height="53" rx="26.5" transform="translate(208.76 1041.93) rotate(-49.87)"/><rect class="cls-2" x="732.09" y="546.69" width="227" height="53" rx="26.5" transform="translate(-137.67 850.24) rotate(-49.87)"/><rect class="cls-3" x="688.46" y="510.94" width="227" height="53" rx="26.5" transform="translate(-125.85 804.18) rotate(-49.87)"/><rect class="cls-2" x="418.09" y="189.69" width="227" height="53" rx="26.5" transform="translate(23.66 483.28) rotate(-49.87)"/><rect class="cls-3" x="374.46" y="153.94" width="227" height="53" rx="26.5" transform="translate(35.48 437.21) rotate(-49.87)"/><rect class="cls-2" x="646.5" y="215.42" width="227" height="53" rx="26.5" transform="translate(85.18 667.06) rotate(-49.87)"/><rect class="cls-3" x="602.87" y="179.67" width="227" height="53" rx="26.5" transform="translate(97 620.99) rotate(-49.87)"/><rect class="cls-2" x="1080.59" y="286.19" width="227" height="53" rx="26.5" transform="translate(185.37 1024.1) rotate(-49.87)"/><rect class="cls-3" x="1036.96" y="250.44" width="227" height="53" rx="26.5" transform="translate(197.19 978.03) rotate(-49.87)"/><rect class="cls-2" x="280.59" y="372.19" width="227" height="53" rx="26.5" transform="translate(-164.74 443.02) rotate(-49.87)"/><rect class="cls-3" x="236.96" y="336.44" width="227" height="53" rx="26.5" transform="translate(-152.92 396.95) rotate(-49.87)"/><rect class="cls-2" x="932.59" y="253.19" width="227" height="53" rx="26.5" transform="translate(157.99 899.21) rotate(-49.87)"/><rect class="cls-3" x="888.96" y="217.44" width="227" height="53" rx="26.5" transform="translate(169.81 853.15) rotate(-49.87)"/><rect class="cls-2" x="37.59" y="491.19" width="227" height="53" rx="26.5" transform="translate(-342.1 299.53) rotate(-49.87)"/><rect class="cls-3" x="-6.04" y="455.44" width="227" height="53" rx="26.5" transform="translate(-330.28 253.46) rotate(-49.87)"/><rect class="cls-2" x="141" y="770.92" width="227" height="53" rx="26.5" transform="translate(-519.21 478.02) rotate(-49.87)"/><rect class="cls-3" x="97.37" y="735.17" width="227" height="53" rx="26.5" transform="translate(-507.39 431.96) rotate(-49.87)"/><rect class="cls-2" x="333.09" y="617.69" width="227" height="53" rx="26.5" transform="translate(-333.78 570.42) rotate(-49.87)"/><rect class="cls-3" x="289.46" y="581.94" width="227" height="53" rx="26.5" transform="translate(-321.96 524.36) rotate(-49.87)"/><rect class="cls-2" x="98.09" y="447.69" width="227" height="53" rx="26.5" transform="translate(-287.34 330.32) rotate(-49.87)"/><rect class="cls-3" x="54.46" y="411.94" width="227" height="53" rx="26.5" transform="translate(-275.52 284.26) rotate(-49.87)"/><rect class="cls-2" x="1507.09" y="550.69" width="227" height="53" rx="26.5" transform="translate(134.74 1444.2) rotate(-49.87)"/><rect class="cls-3" x="1463.46" y="514.94" width="227" height="53" rx="26.5" transform="translate(146.56 1398.14) rotate(-49.87)"/><rect class="cls-2" x="549.09" y="570.69" width="227" height="53" rx="26.5" transform="translate(-221.07 718.86) rotate(-49.87)"/><rect class="cls-3" x="505.46" y="534.94" width="227" height="53" rx="26.5" transform="translate(-209.25 672.8) rotate(-49.87)"/><rect class="cls-2" x="783" y="485.92" width="227" height="53" rx="26.5" transform="translate(-73.12 867.57) rotate(-49.87)"/><rect class="cls-3" x="739.37" y="450.17" width="227" height="53" rx="26.5" transform="translate(-61.3 821.5) rotate(-49.87)"/><rect class="cls-2" x="1493.09" y="207.69" width="227" height="53" rx="26.5" transform="translate(392.01 1311.58) rotate(-49.87)"/><rect class="cls-3" x="1449.46" y="171.94" width="227" height="53" rx="26.5" transform="translate(403.83 1265.51) rotate(-49.87)"/><rect class="cls-2" x="407.09" y="349.69" width="227" height="53" rx="26.5" transform="translate(-102.58 531.74) rotate(-49.87)"/><rect class="cls-3" x="363.46" y="313.94" width="227" height="53" rx="26.5" transform="translate(-90.76 485.67) rotate(-49.87)"/><rect class="cls-2" x="1605.09" y="935.69" width="227" height="53" rx="26.5" transform="translate(-124.78 1655.98) rotate(-49.87)"/><rect class="cls-3" x="1561.46" y="899.94" width="227" height="53" rx="26.5" transform="translate(-112.96 1609.91) rotate(-49.87)"/><rect class="cls-2" x="73.09" y="669.69" width="227" height="53" rx="26.5" transform="translate(-465.96 390.12) rotate(-49.87)"/><rect class="cls-3" x="29.46" y="633.94" width="227" height="53" rx="26.5" transform="translate(-454.14 344.05) rotate(-49.87)"/><rect class="cls-2" x="700" y="619.92" width="227" height="53" rx="26.5" transform="translate(-205.07 851.74) rotate(-49.87)"/><rect class="cls-3" x="656.37" y="584.17" width="227" height="53" rx="26.5" transform="translate(-193.25 805.67) rotate(-49.87)"/><rect class="cls-2" x="1124.09" y="397.69" width="227" height="53" rx="26.5" transform="translate(115.58 1096.99) rotate(-49.87)"/><rect class="cls-3" x="1080.46" y="361.94" width="227" height="53" rx="26.5" transform="translate(127.4 1050.93) rotate(-49.87)"/><rect class="cls-2" x="324.09" y="483.69" width="227" height="53" rx="26.5" transform="translate(-234.53 515.91) rotate(-49.87)"/><rect class="cls-3" x="280.46" y="447.94" width="227" height="53" rx="26.5" transform="translate(-222.71 469.84) rotate(-49.87)"/><rect class="cls-2" x="508.09" y="649.69" width="227" height="53" rx="26.5" transform="translate(-296.04 715.59) rotate(-49.87)"/><rect class="cls-3" x="464.46" y="613.94" width="227" height="53" rx="26.5" transform="translate(-284.22 669.53) rotate(-49.87)"/><rect class="cls-2" x="662.09" y="698.69" width="227" height="53" rx="26.5" transform="translate(-278.77 850.75) rotate(-49.87)"/><rect class="cls-3" x="618.46" y="662.94" width="227" height="53" rx="26.5" transform="translate(-266.95 804.69) rotate(-49.87)"/><rect class="cls-2" x="949" y="444.92" width="227" height="53" rx="26.5" transform="translate(17.24 979.91) rotate(-49.87)"/><rect class="cls-3" x="905.37" y="409.17" width="227" height="53" rx="26.5" transform="translate(29.06 933.85) rotate(-49.87)"/><rect class="cls-2" x="512.09" y="238.69" width="227" height="53" rx="26.5" transform="translate(19.61 572.56) rotate(-49.87)"/><rect class="cls-3" x="468.46" y="202.94" width="227" height="53" rx="26.5" transform="translate(31.43 526.5) rotate(-49.87)"/><rect class="cls-2" x="573.09" y="308.69" width="227" height="53" rx="26.5" transform="translate(-12.22 644.08) rotate(-49.87)"/><rect class="cls-3" x="529.46" y="272.94" width="227" height="53" rx="26.5" transform="translate(-0.4 598.02) rotate(-49.87)"/><rect class="cls-2" x="97.09" y="909.69" width="227" height="53" rx="26.5" transform="translate(-640.92 493.78) rotate(-49.87)"/><rect class="cls-3" x="53.46" y="873.94" width="227" height="53" rx="26.5" transform="translate(-629.1 447.71) rotate(-49.87)"/><rect class="cls-2" x="195.09" y="580.69" width="227" height="53" rx="26.5" transform="translate(-354.55 451.76) rotate(-49.87)"/><rect class="cls-3" x="151.46" y="544.94" width="227" height="53" rx="26.5" transform="translate(-342.72 405.7) rotate(-49.87)"/></g></g></svg>