<svg xmlns="http://www.w3.org/2000/svg" viewBox="0 0 1292 881.78"><defs><style>.cls-1{font-size:44px;}.cls-1,.cls-14,.cls-17{fill:#fff;}.cls-1,.cls-14{font-family:MyriadPro-Regular, Myriad Pro;}.cls-2{letter-spacing:-0.01em;}.cls-3{letter-spacing:0.01em;}.cls-4{letter-spacing:-0.01em;}.cls-5{letter-spacing:0em;}.cls-6{letter-spacing:0em;}.cls-7{letter-spacing:-0.02em;}.cls-8{letter-spacing:-0.01em;}.cls-9{letter-spacing:-0.01em;}.cls-10{letter-spacing:0.01em;}.cls-11{letter-spacing:-0.01em;}.cls-12{letter-spacing:-0.01em;}.cls-13{fill:#39b54a;}.cls-14{font-size:41.09px;}.cls-15,.cls-16,.cls-18{fill:none;stroke:#fff;stroke-miterlimit:10;}.cls-16{stroke-dasharray:11.9 11.9;}.cls-18{stroke-dasharray:12 12;}</style></defs><g id="Layer_2" data-name="Layer 2"><g id="Layer_1-2" data-name="Layer 1"><text class="cls-1" transform="translate(82.88 194.97)"><tspan class="cls-2">C</tspan><tspan x="25.04" y="0">olle</tspan><tspan class="cls-3" x="92" y="0">c</tspan><tspan x="112.29" y="0">t in</tspan><tspan class="cls-4" x="170.89" y="0">f</tspan><tspan x="183.17" y="0">o</tspan><tspan class="cls-5" x="207.33" y="0">r</tspan><tspan x="221.89" y="0">m</tspan><tspan class="cls-6" x="258.58" y="0">a</tspan><tspan x="279.62" y="0">tion</tspan></text><text class="cls-1" transform="translate(1082.58 572.96)"><tspan class="cls-7">P</tspan><tspan class="cls-8" x="22.7" y="0">r</tspan><tspan x="36.65" y="0">o</tspan><tspan class="cls-9" x="60.81" y="0">t</tspan><tspan x="75.11" y="0">o</tspan><tspan class="cls-10" x="99.26" y="0">t</tspan><tspan x="114.22" y="0">ype</tspan></text><text class="cls-1" transform="translate(0 768.66)"><tspan class="cls-9">c</tspan><tspan x="19.45" y="0">ode and o</tspan><tspan class="cls-11" x="203.72" y="0">r</tspan><tspan x="217.75" y="0">gani</tspan><tspan class="cls-12" x="298.27" y="0">z</tspan><tspan x="316.8" y="0">e</tspan></text><circle class="cls-13" cx="176.5" cy="844.28" r="37.5"/><text class="cls-14" transform="translate(164.79 856.13)">3</text><circle class="cls-13" cx="1175.5" cy="648.28" r="37.5"/><text class="cls-14" transform="translate(1163.79 660.13)">2</text><circle class="cls-13" cx="245.5" cy="270.28" r="37.5"/><text class="cls-14" transform="translate(233.79 282.13)">1</text><path class="cls-15" d="M313.5,103.28c1.62-1.09,3.29-2.2,5-3.32"/><path class="cls-16" d="M328.5,93.52c42.74-26.92,106.65-59.72,189-77.24,53-11.28,256.49-54.56,430,78,151.44,115.69,180,288.88,185.67,350.92"/><path class="cls-15" d="M1133.68,451.14c.17,2.18.31,4.18.43,6"/><polygon class="cls-17" points="1128.92 456.01 1134.5 464.28 1138.87 455.32 1128.92 456.01"/><path class="cls-18" d="M1049.5,515.28c-45.49-21-260.72-114.53-504-24C397,546.52,307.16,644.61,266.21,696.52"/><path class="cls-17" d="M262.5,701.28a30.31,30.31,0,0,0,1.67-9.64l2.62,4.33,4.78,1.64A30.36,30.36,0,0,0,262.5,701.28Z"/></g></g></svg>