<svg xmlns="http://www.w3.org/2000/svg" viewBox="0 0 344.28 642.28"><defs><style>.cls-1{fill:#009279;stroke-width:0.28px;}.cls-1,.cls-2,.cls-3,.cls-4,.cls-5,.cls-6,.cls-7{stroke:#000;}.cls-1,.cls-2,.cls-3,.cls-4,.cls-5,.cls-6{stroke-miterlimit:10;}.cls-2,.cls-3{fill:#ffffa8;}.cls-2{stroke-width:1.27px;}.cls-3,.cls-4,.cls-5{stroke-width:1.27px;}.cls-5{fill:none;}.cls-6{stroke-width:1.28px;}.cls-7{font-size:22.9px;stroke-width:0.32px;font-family:MS-Mincho, MS Mincho;}.cls-8{opacity:0.8;}.cls-9{fill:#1d1d1d;}</style></defs><title>Asset 11</title><g id="Layer_2" data-name="Layer 2"><g id="Layer_1-2" data-name="Layer 1"><rect class="cls-1" x="0.14" y="0.14" width="344" height="642"/><rect class="cls-2" x="33.64" y="149.64" width="103" height="30" rx="3.8"/><path class="cls-3" d="M112.29,330.44c3.42,2.22,14.5-16.35,31.73-15.27,14.78.93,17.79,15.35,31.73,15.27,15.35-.09,19.92-17.08,33-15.27,8.71,1.2,9.7,9.92,22.85,14a38.79,38.79,0,0,0,16.5,1.27c-18-38.85-20.35-69.44-19-90.35,1.78-28.44,10.21-53.92-5.08-71.26-1.18-1.34-9.85-10.88-22.84-11.45-15.59-.68-31.42,11.81-39.35,31.81-26.15,12.22-52.73,25.08-52,26.72.82,1.94,36.77-17.9,47-7.63C174.43,226.13,105.65,326.12,112.29,330.44Z"/><path class="cls-4" d="M209.39,433.83,200.18,445l-10.78,1c-.11-2.33-.22-4.67-.32-7l10.15-12.09Z"/><path class="cls-5" d="M199.23,426.83l-33-33.72c-.67-2.79-1.35-5.57-2-8.35q-8.36-34.49-16.7-69"/><path class="cls-4" d="M141.8,431.28l-.63,9.55-18.72,1.59q3.8-7.49,7.61-14.95l6.35.95Z"/><path class="cls-5" d="M136.84,428.42l27.8-43.66h0l43.91-68.95"/><circle class="cls-6" cx="187.64" cy="183.64" r="4"/><text class="cls-7" transform="translate(37.12 173.81)">プンプン</text><text/><g class="cls-8"><path class="cls-9" d="M43.86,46.27a11.78,11.78,0,0,1-.9,2.55,7.71,7.71,0,0,1-5.12,3.82,7.09,7.09,0,0,1-2.5,0,7.57,7.57,0,0,1-2.19-.55c-.41-.21.53.23,2.19.55a8.2,8.2,0,0,0,2.74-.19,7,7,0,0,1-3.41-.78,9.88,9.88,0,0,1-1.76-.38,23.91,23.91,0,0,1-3.68-1.52,4.94,4.94,0,0,1-2.54-2.55,7.83,7.83,0,0,1-.48-1.77,6.73,6.73,0,0,1,0-1.89c0,1.87.41,3.7,1.63,4.82a8.35,8.35,0,0,0,2.3,1.4,20.76,20.76,0,0,0,2.68,1l-.27-.15a21.77,21.77,0,0,1-2.74-1.25,5.74,5.74,0,0,1-2.07-1.62,2.3,2.3,0,0,1-.42-.71,4.27,4.27,0,0,0,.42.71,5.18,5.18,0,0,0,1.95,1.22c.5.26,1.1.67,1.64.9a11.74,11.74,0,0,1,1.22.75l.84.28h.27a5.85,5.85,0,0,0-1.37-1c-.68-.44-1.62-1-2.41-1.6a6.66,6.66,0,0,1-.93-.83,3.33,3.33,0,0,1-.45-.72c-.21-.45-.31-.91-.42-1.11a6.61,6.61,0,0,1-1.18-2.41c0-.36.13-.67,0-.95-.1,0-.18-.17-.25-.32,0-.76.33-1.51.06-2.09-.11-.42,1.56-1.47,1.27-1.57-1.08-.37-.3-.1-.13-1,0-.11-.4-.52-.33-.75.35-.75,0-1,0-1.92-.19-1.36.53-1.56,0-2.83-.07-.16-.19-2.08-.19-2.08.36-1.41,0-2.43,1-3.37-.38-1.45.87-2.94,1.15-4.31s1-1.77,1.85-2.75c.19-.3.23-.56.43-.7s0-.74.18-1l.26.19.25-.39c.07-.1.15,0,.23,0s.34.26.55.13a13.05,13.05,0,0,0,.91-1.2c0-.51.08-1,.11-1.53a1.16,1.16,0,0,1-.31-.27l0-.48c-.24-.21-.55-.32-.71-.45-.77-.35-1.27-1.27-2-1.46-.23,0-.65.72-1.18.92-.15,0-.32-.27-.56-.48-.21.48-.52.37-.69.07l-.14.2-.32-.27c-.88,1.06-2.12,2.2-2.23,3.57a4.52,4.52,0,0,0,0,1.15c0,.17-.26.44-.33.55.19.29.51.37.76.55-.59.81-1.72,2.65-.65,2.9-.26.72.17,1,0,1.78-.2,1-.45,2.35-.7,3.64-.07.72-.23,1.38-.36,2.07l-.12.74c-.77,5.13-1.92,8.92-1,14.09a15.3,15.3,0,0,0,1.27,4.05,7.24,7.24,0,0,0,1.32,1.81A8,8,0,0,0,28,50.74a33.18,33.18,0,0,0,3.49,1.58,16.23,16.23,0,0,0,3.6,1,9.36,9.36,0,0,0,3.65-.2,8.27,8.27,0,0,0,3-1.52,6.66,6.66,0,0,0,2.54-4.13A7.47,7.47,0,0,0,43.86,46.27Z"/></g><g class="cls-8"><path class="cls-9" d="M35.47,28c-.63-.88-2.42-.82-3.22-1.19a2.53,2.53,0,0,1-.71-.24c-.15-.09.18,0,.71.24l.82.15A14.67,14.67,0,0,1,32,25.94c-.2,0-.4,0-.6-.05a17.87,17.87,0,0,1-2.62-.33,5.57,5.57,0,0,1-1.31-.32c1.27.11,2.55.17,3.83.2a.6.6,0,0,1-.11-.06c-.67-.11-1.35-.23-2-.36a.86.86,0,0,1-.34-.07l.34.07a8,8,0,0,0,.91-.13c.19,0,.43.16.63.18a1.45,1.45,0,0,1,.48.31l.31.05a.19.19,0,0,1,.09-.05h0c-.31-.77-2.82-1.81-3.21-1.66s-.62.75-1,.83c-.12,0-.22-.15-.32,0a.69.69,0,0,1-.1.25c-.25.05-.49-.33-.68,0-.14.12-.46-1.53-.5-1.22-.13,1.1,0,.3-.34.19,0,0-.17.42-.24.37-.24-.29-.33.08-.63.2-.45.33-.5-.38-.93.3-.05.07-.68.49-.68.49-.47-.14-.81.39-1.11-.42-.49.64-1-.21-1.44-.14s-.59-.49-.92-1c-.11-.09-.2-.05-.24-.21s-.26.24-.36.15l.07-.29-.14-.12s0-.13,0-.23a1.17,1.17,0,0,0,0-.55,1.78,1.78,0,0,0-.4-.45,5.08,5.08,0,0,0-.54.43,3,3,0,0,1-.1.38l-.17.2c-.08.3-.12.62-.17.82-.13.84-.45,1.63-.53,2.41,0,.22.25.34.32.75a4.38,4.38,0,0,1-.17.69c.16,0,.12.35,0,.61l.08.06c0,.1-.1.39-.1.39.37.44.76,1.23,1.23.91a1.72,1.72,0,0,0,.4-.38c.06-.07.15.12.18.15a4.91,4.91,0,0,0,.2-.88c.27.33.89.93,1-.15.24.08.34-.42.6-.44a11,11,0,0,1,1.21-.08,2.28,2.28,0,0,1,.69,0h.24c1.68,0,2.92.89,4.58.08a7,7,0,0,1,4.81-.33c1.45.36,2.65.91,3.08,1Z"/></g><g class="cls-8"><path class="cls-9" d="M38.82,39c-.8-.8-2.86-.55-3.8-.86a3,3,0,0,1-.84-.18c-.17-.08.22,0,.84.18.26,0,.58.06.95.08-.51-.34-1-.68-1.33-1-.23,0-.46,0-.69,0a19,19,0,0,1-3-.17,6.47,6.47,0,0,1-1.51-.27c1.46.07,2.92.07,4.39,0l-.13-.05c-.78-.06-1.55-.14-2.32-.24a1.13,1.13,0,0,1-.4-.05l.4.05a7.75,7.75,0,0,0,1-.17c.23,0,.5.13.73.13a1.68,1.68,0,0,1,.57.28l.35,0,.1,0h0c-.4-.73-3.29-1.62-3.73-1.47s-.69.77-1.1.86c-.14,0-.26-.14-.37,0a.52.52,0,0,1-.11.25c-.29,0-.57-.32-.78,0-.16.13-.55-1.51-.59-1.21-.13,1.1,0,.3-.38.19,0,0-.19.43-.27.38-.28-.29-.38.08-.72.19-.51.33-.57-.37-1.06.3a8.07,8.07,0,0,1-.78.47c-.53-.14-.92.37-1.27-.44-.56.62-1.11-.25-1.64-.2s-.67-.53-1-1.07c-.11-.1-.21-.06-.26-.22s-.3.22-.41.13l.08-.29a.93.93,0,0,0-.15-.13s0-.13,0-.23a1,1,0,0,0,.07-.55,2.29,2.29,0,0,0-.44-.48,5.29,5.29,0,0,0-.62.39,2.25,2.25,0,0,1-.13.37l-.2.19c-.09.29-.15.61-.21.81-.18.83-.58,1.59-.69,2.37,0,.22.28.36.34.78a3,3,0,0,1-.22.68c.19,0,.14.36,0,.61l.08.07-.13.38c.42.48.85,1.3,1.42,1a1.83,1.83,0,0,0,.47-.35c.07-.06.17.13.21.16a4.86,4.86,0,0,0,.25-.87c.31.35,1,1,1.14-.09.28.09.41-.4.71-.41s.91,0,1.41,0a3,3,0,0,1,.79,0h.28c1.95,0,3.41.92,5.31.06a9.93,9.93,0,0,1,5.57-.6c1.69.23,3.11.64,3.62.67Z"/></g></g></g></svg>