<svg xmlns="http://www.w3.org/2000/svg" viewBox="0 0 270 632"><defs><style>.cls-1,.cls-2{fill:#fff;}.cls-2{stroke:#000;stroke-miterlimit:10;stroke-width:1.65px;}.cls-3{fill:#c00;}</style></defs><title>Asset 4</title><g id="Layer_2" data-name="Layer 2"><g id="Layer_1-2" data-name="Layer 1"><circle class="cls-1" cx="135" cy="113" r="113"/><ellipse class="cls-1" cx="135" cy="439" rx="135" ry="193"/><path d="M64.25,152.38a83.21,83.21,0,0,0,30.06,33.8,79.12,79.12,0,0,0,43.57,12.49,77.89,77.89,0,0,0,43.24-14.14A83.17,83.17,0,0,0,210,149l0,0a83.66,83.66,0,0,1-28.47,36.12,79,79,0,0,1-43.64,15A81,81,0,0,1,93.19,188a85.6,85.6,0,0,1-31.44-34.34Z"/><circle class="cls-2" cx="175" cy="70" r="21"/><circle class="cls-2" cx="102" cy="70" r="21"/><circle class="cls-3" cx="168.5" cy="72.5" r="8.5"/><circle class="cls-3" cx="93.5" cy="72.5" r="7.5"/></g></g></svg>