<svg xmlns="http://www.w3.org/2000/svg" viewBox="0 0 1243.56 2194"><defs><style>.cls-1{fill:#fff;}.cls-2{fill:#080051;}.cls-3{fill:#06016d;}.cls-4{fill:#d92800;stroke-width:2.42px;}.cls-13,.cls-4{stroke:#000;stroke-miterlimit:10;}.cls-5{fill:#0a0aff;}.cls-6{fill:#00eeeb;}.cls-7{fill:#610d00;}.cls-8{fill:#0000b0;}.cls-9{fill:#2700a2;}.cls-10{opacity:0.8;}.cls-11{fill:#fff01d;}.cls-12{fill:#de2900;}.cls-13{fill:none;stroke-width:0.81px;}</style></defs><g id="Layer_2" data-name="Layer 2"><g id="Layer_1-2" data-name="Layer 1"><rect class="cls-1" width="1243.56" height="2194" rx="105.38"/><path class="cls-2" d="M308.83,726.65c15.44-41.6,18.76-61.88,41.06-77.29,45.91-31.72,117.6-5,126.4-1.61,40.38,15.6,37.25,30.85,66.83,37.84,58.59,13.83,81-43.64,139.28-37.84,62.78,6.24,68.49,76.13,143.31,87,47.15,6.82,59.06-18.89,91.78-3.22,39.17,18.75,70.25,78.62,66.83,124.79-.59,7.94-2.4,18.09,1.61,31.4,8.42,28,30.4,29.55,37.84,47.5,14.76,35.63-55.69,68.48-53.95,126.4,1.32,43.75,42.24,49.61,39.46,88.57-2.66,37.12-40.37,39.58-88.57,106.27-35.07,48.53-29.63,67.34-53.94,78.9-34.83,16.57-61.81-14.53-136.06-37.84-24.22-7.6-124.1-36.56-231.87-14.49-63.17,12.93-80.21,33.39-121.58,22.54-39.8-10.43-79.93-44-91.78-87-14.88-53.89,28.46-73.12,26.57-136.06-2.62-87.35-87.49-96.92-88.56-177.13C222.76,851.26,261.39,854.41,308.83,726.65Z"/><path class="cls-3" d="M302.31,781.88c15.45-41.59,18.76-61.88,41.06-77.29,45.91-31.72,117.6-5,126.41-1.61,40.37,15.61,37.24,30.86,66.82,37.84,58.6,13.83,81-43.63,139.28-37.84,62.79,6.24,68.49,76.13,143.31,86.95,47.15,6.82,59.06-18.88,91.79-3.22,39.17,18.75,70.24,78.62,66.82,124.79-.59,7.94-2.39,18.1,1.61,31.4,8.42,28,30.4,29.55,37.84,47.5,14.76,35.64-55.68,68.48-53.94,126.41,1.31,43.74,42.23,49.6,39.45,88.56-2.65,37.13-40.37,39.59-88.56,106.27-35.07,48.53-29.64,67.34-54,78.9-34.82,16.57-61.81-14.52-136.06-37.84-24.22-7.6-124.1-36.55-231.87-14.49-63.17,12.93-80.21,33.39-121.57,22.55-39.8-10.44-79.93-44-91.79-87-14.88-53.89,28.46-73.12,26.57-136.06-2.62-87.35-87.48-96.92-88.56-177.12C216.24,906.49,254.87,909.64,302.31,781.88Z"/><path class="cls-4" d="M308.75,845.48c15.45-41.59,18.76-61.88,41.06-77.29,45.91-31.72,117.6-5,126.41-1.61,40.37,15.61,37.24,30.86,66.82,37.84,58.6,13.84,81-43.63,139.28-37.84,62.79,6.25,68.49,76.14,143.31,87,47.15,6.81,59.06-18.89,91.79-3.22,39.17,18.75,70.24,78.62,66.82,124.79-.59,7.94-2.39,18.09,1.61,31.4,8.42,28,30.4,29.55,37.84,47.5,14.76,35.63-55.68,68.47-53.94,126.4,1.31,43.75,42.23,49.6,39.45,88.56-2.65,37.13-40.37,39.59-88.56,106.28-35.07,48.52-29.64,67.34-53.95,78.9-34.82,16.56-61.81-14.53-136.06-37.84-24.22-7.61-124.1-36.56-231.87-14.49-63.16,12.93-80.2,33.39-121.57,22.54-39.8-10.44-79.93-44-91.78-86.95-14.89-53.9,28.45-73.12,26.56-136.07-2.62-87.35-87.48-96.91-88.56-177.12C222.69,970.09,261.31,973.25,308.75,845.48Z"/><path class="cls-5" d="M388.62,958.93c11.55-31.11,14-46.28,30.71-57.81,34.33-23.72,87.94-3.75,94.53-1.2,30.19,11.67,27.86,23.08,50,28.3,43.82,10.34,60.59-32.63,104.16-28.3,47,4.67,51.22,56.94,107.18,65,35.26,5.1,44.17-14.13,68.64-2.41,29.29,14,52.54,58.8,50,93.33-.44,5.94-1.79,13.53,1.2,23.48,6.3,20.94,22.74,22.1,28.3,35.52,11,26.65-41.65,51.22-40.34,94.54,1,32.71,31.58,37.09,29.5,66.23-2,27.77-30.19,29.61-66.23,79.48-26.23,36.29-22.16,50.36-40.34,59-26,12.39-46.23-10.87-101.76-28.3-18.11-5.69-92.81-27.34-173.41-10.84-47.24,9.67-60,25-90.92,16.86-29.77-7.81-59.78-32.93-68.64-65-11.13-40.31,21.28-54.68,19.87-101.76-2-65.32-65.43-72.48-66.24-132.46C324.25,1052.12,353.14,1054.48,388.62,958.93Z"/><path class="cls-6" d="M446.22,1013.24c8.34-22.46,10.13-33.42,22.17-41.74,24.79-17.13,63.5-2.71,68.26-.87,21.8,8.43,20.11,16.67,36.08,20.44,31.64,7.47,43.75-23.57,75.21-20.44,33.91,3.37,37,41.11,77.39,47,25.46,3.68,31.89-10.2,49.56-1.74C796,1026,812.82,1058.3,811,1083.23c-.31,4.29-1.29,9.77.87,17,4.55,15.12,16.42,16,20.44,25.65,8,19.24-30.07,37-29.13,68.25.71,23.63,22.8,26.79,21.3,47.83-1.43,20-21.8,21.37-47.82,57.38-18.94,26.21-16,36.37-29.13,42.61-18.81,8.94-33.38-7.85-73.47-20.43-13.08-4.11-67-19.75-125.21-7.83-34.11,7-43.31,18-65.65,12.17-21.49-5.63-43.16-23.77-49.56-47-8-29.1,15.37-39.48,14.35-73.47-1.42-47.17-47.24-52.34-47.82-95.65C399.74,1080.52,420.6,1082.23,446.22,1013.24Z"/><path class="cls-7" d="M483.84,1257.36c-25.68,29.66-18,81.65,0,115.13,31.71,59,99.73,68.34,107.07,69.24,65.76,8,112.67-32.78,124.8-44.29,33.73-32,39.4-73.93,50.72-157.8,1.25-9.27,2.59-23.05-4.83-28.18-5.72-4-16-2.32-21.74,3.22-9.65,9.34.28,23.38-8.05,33.82-6.21,7.78-19,7.71-44.28,7.25-29.74-.55-32.57-5.39-45.89-1.62-18.49,5.25-17.3,15.78-36.23,21.74-1.9.6-28.17,8.46-49.12-4.83-18.2-11.55-15.66-28.45-29.78-33C511.84,1233.3,493.32,1246.4,483.84,1257.36Z"/><path class="cls-8" d="M437.94,1228.37c-24.74-2.52-51.7,52.31-57.16,96.61-1.35,11-3.9,31.65,4.83,36.23,12.64,6.64,40.39-24.92,47.5-33,18.89-21.48,35.83-40.74,31.4-65.22C462,1249,451.86,1229.79,437.94,1228.37Z"/><path class="cls-9" d="M784.14,1213.07c31.91,59.72,28.26,81.8,50.72,90.18.9.33,20.53,7.4,29.79-1.61,18-17.52-9.23-89.91-57.16-112.72-9.28-4.42-27.94-11.07-33-4.83C770.48,1189,776.89,1199.49,784.14,1213.07Z"/><g class="cls-10"><path class="cls-11" d="M477.61,979.16a5.17,5.17,0,0,1,1.2-3,7.48,7.48,0,0,1,1.77-1.55,17.48,17.48,0,0,1,3.57-1.67,64.89,64.89,0,0,1,8.12-2.14c5.91-1.22,12.78-2.21,19.84-3s14.31-1.53,20.93-2a171.12,171.12,0,0,1,17.2-.39c7,.12,12.3.53,16.26.9,1.67.19.57.08-2.42-.13s-7.89-.57-13.84-.77c-5.3-.1-11.61.06-19,.64a190.34,190.34,0,0,1,24.32.83c4.62.14,9.28.37,14,.76,20.82,1.63,40.8,4.73,61.15,8.36,3.68.68,9.55,1.7,15.38,2.81s11.6,2.3,15.11,3.18c-14.82-3.08-29.79-5.59-44.78-7.95s-30-4.43-45.11-5.59l2.43.3c7.93.73,15.84,1.7,23.72,2.82s15.74,2.42,23.61,3.74c2.68.42,5.38.88,8.15,1.4l-8.15-1.4c-7-1.1-13.83-2-21.47-3-4.7-.68-10.07-1.54-14.8-2.07-3.86-.45-7.39-1.07-11.06-1.53-2.36-.24-4.73-.41-7.1-.59l-2.2-.06.09,0c1.46.37,6.28,1,12.83,1.89s14.81,2.14,23.17,3.55c16.73,2.82,34,6.08,38.88,6.8,7.83,1.19,15.13,1.47,23.78,3.16,2.89.56,5.25,1.36,7.49,1.65a10.8,10.8,0,0,1,2.49.2l1.07.26.71.18,1.27.38c.83.27,1.6.54,2.32.81,1.46.56,2.7,1,4.5,1.67a1.15,1.15,0,0,1,.57.48.69.69,0,0,1-.15.82,2.41,2.41,0,0,1-1.19.57,10.85,10.85,0,0,1-1.5.22,19.27,19.27,0,0,1-2.64,0c-1.46-.1-2.16-.26-2-.1.87.77.78.9.33.84a14.1,14.1,0,0,0-2.68-.22h-.07l-.15,0-.56.12-1.43.35a18.32,18.32,0,0,1-3.11.54c-6.08,0-7.84.67-14.83,1.16-10.38.91-12.69-.15-22,1.06-.56.07-4.47.31-8.24.51l-7.39.36c-11.33-.25-18.39.37-27.18-1.18-10.25.64-23.77-1.43-34.61-2.14s-15.3-2-24.64-3.86c-2.67-.44-4.7-.62-6.23-1.06s-5.42-.29-8.08-.81l.74-.36-3.54-.7c-.88-.18-.63-.3-.38-.42.49-.24,1-.47-.54-.95-3.64-.86-7.35-1.73-11.09-2.67-3.75-.56-7.44-1.18-10.8-2a2,2,0,0,1-1.06.26,28.61,28.61,0,0,1-2.75-.8c-.66.17-.79.69-1.23.78-.33.56-1.51.66-2.5.47a2.64,2.64,0,0,1-1.24-.61c-.33-.3-.62-.38-.92-.1a1.75,1.75,0,0,0,0,.72c0,.18.1.38.17.61s.21.41.34.63a8.36,8.36,0,0,0,2.39,2.16c1.91,1.24,4.18,2.2,5.54,3,.62.4-1.08.31-1.92.5a13.89,13.89,0,0,1,3.22,1.35c.29.27-.11.41-1,.36l1.81.62-1.09.33a152.41,152.41,0,0,0,15.14,4.42,98.32,98.32,0,0,0,15.07,2.48c2.06.21,5.52.3,7.83.34a42.53,42.53,0,0,1,4.53.73c1.64-.25,1.47-.78,2.19-1.17,3.5.62,9.05,1.51,13.68,2s8.36.55,8.19-.3c5.68.51,6.88-.18,12.79.14,7.85.38,17.79.8,27.61,1.05l15.74.28,5.64,0c13.83,0,26.37-.1,38.54-.48,3-.1,6-.22,9.06-.38l4.51-.28,2.25-.17,2.33-.2c2.19-.22,4.39-.46,6.51-.79a43.13,43.13,0,0,0,5.92-1.28,17.71,17.71,0,0,0,4.31-1.92,9.24,9.24,0,0,0,1.6-1.24,3.84,3.84,0,0,0,1.06-2,4.48,4.48,0,0,0-1.63-3.07,15.54,15.54,0,0,0-3-2.17,41.14,41.14,0,0,0-9.46-3.56c-.91-.25-1.81-.49-2.73-.72l-1.38-.34-1-.23q-1.94-.44-3.9-.84c-2.63-.54-5.29-1-8-1.5-18.94-3.21-38.33-6-57.09-8.7s-37-4.72-53.64-5.15a226.43,226.43,0,0,0-23.45.64c-7.22.52-13.84,1.15-19.73,1.85-11.79,1.4-20.57,3.06-25.65,5.18a19.54,19.54,0,0,0-2.95,1.94,9.6,9.6,0,0,0-1.64,1.7,6.12,6.12,0,0,0-.79,1.43A5.35,5.35,0,0,0,477.61,979.16Z"/></g><path class="cls-1" d="M514.43,1178.45c7.65-7.19,22.22,8.93,43.48,5.64,26.25-4.06,26-32.07,51.52-37.84,25-5.65,36.46,18.72,65.22,12.08,19.25-4.45,26.08-18.14,33-14.5,9.29,4.89,8.75,35.69-4.83,58-27.94,45.81-102,40.85-116.75,39.45-16.16-1.53-52.15-4.94-67.63-30.59C512.12,1200.16,508.23,1184.28,514.43,1178.45Z"/><path class="cls-12" d="M651.89,1040c-6.63,6.61-14.42,14.38-12.27,20.56,2.53,7.25,18,10.14,29.23,6.4,22.76-7.58,32.79-43.84,25.13-50.28C687,1010.76,663.5,1028.39,651.89,1040Z"/><path class="cls-12" d="M540.15,1057.66c6.65,6.51,14.47,14.16,12.33,20.22-2.5,7.1-17.93,9.88-29.18,6.16-22.76-7.51-32.92-43.14-25.3-49.42C505,1028.86,528.51,1046.25,540.15,1057.66Z"/><path class="cls-1" d="M510.4,1108.41c-8.31,15.35-8.17,23.95-8,26.57.18,3.67.55,11.23,5.64,17.71,7.43,9.45,21.89,12.76,33,9.66,14.81-4.12,13.14-16.66,33-31.4a82.09,82.09,0,0,1,36.23-15.29c6.08-.88,21.52-2.9,37.84,4,13.63,5.78,15.25,12.45,25,12.88,10.86.48,23.42-7.22,26.56-16.9,5.51-17-18-39.39-35.42-49.92-45.41-27.38-106.67-8.25-132,14.49A109.59,109.59,0,0,0,510.4,1108.41Z"/><path class="cls-13" d="M586.08,1209.05a61.48,61.48,0,0,0,62.8-16.1"/><circle cx="639.22" cy="1088.28" r="12.08"/><circle cx="565.96" cy="1088.28" r="12.08"/><rect x="613" y="1451" width="38" height="120" rx="19"/><rect x="547" y="1451" width="38" height="120" rx="19"/></g></g></svg>