<svg xmlns="http://www.w3.org/2000/svg" viewBox="0 0 257.3 250.28"><defs><style>.cls-1{fill:#fff;}</style></defs><title>Ai</title><g id="Layer_2" data-name="Layer 2"><g id="Layer_1-2" data-name="Layer 1"><path d="M257.3,18.45V231.83a18.45,18.45,0,0,1-18.45,18.45H18.45A18.44,18.44,0,0,1,0,231.83V18.45A18.44,18.44,0,0,1,18.45,0h220.4A18.44,18.44,0,0,1,257.3,18.45Z"/><path class="cls-1" d="M157.3,190.43,120.11,64.17c-.23-.93-.58-1.17-1.4-1.17H94.15c-.58,0-.94.35-.94,1.17-.23,5.74-.58,7.61-1.16,9.71L58.84,190.18a.06.06,0,0,0,0,0c-.23,1.39,0,1.73,1.17,1.73H77.19c1.17,0,1.52-.23,1.76-1.17l9.24-35.1h37.14a.35.35,0,0,1,.35.27l9.52,35c.23.82.82,1,1.75,1h19.42C157.3,192,157.54,191.37,157.3,190.43Zm-37.07-53.71H93.45a.36.36,0,0,1-.35-.45c4.88-18,11-40.84,13.43-54.43a.14.14,0,0,1,.14-.12.16.16,0,0,1,.14.12c2.9,13.57,10.45,41.29,13.77,54.43A.36.36,0,0,1,120.23,136.72Zm61-76.41c-4.65,1.44-7.92,5.45-7.92,11.35,0,7.72,4.91,11.94,11.69,11.94,5.7,0,10.06-2.69,11.58-7.71C200.31,63.67,193.44,56.55,181.25,60.31Zm13.13,36.51H176c-1.05,0-1.41.47-1.41,1.4h.12v92.21c0,.94.35,1.52,1.52,1.52h18.13c1.17,0,1.4-.46,1.4-1.4V98.22C195.78,97.17,195.31,96.82,194.38,96.82ZM181.25,60.31c-4.65,1.44-7.92,5.45-7.92,11.35,0,7.72,4.91,11.94,11.69,11.94,5.7,0,10.06-2.69,11.58-7.71C200.31,63.67,193.44,56.55,181.25,60.31Zm13.13,36.51H176c-1.05,0-1.41.47-1.41,1.4h.12v92.21c0,.94.35,1.52,1.52,1.52h18.13c1.17,0,1.4-.46,1.4-1.4V98.22C195.78,97.17,195.31,96.82,194.38,96.82ZM120.11,64.17c-.23-.93-.58-1.17-1.4-1.17H94.15c-.58,0-.94.35-.94,1.17-.23,5.74-.58,7.61-1.16,9.71L58.84,190.18a.06.06,0,0,0,0,0c-.23,1.39,0,1.73,1.17,1.73H77.19c1.17,0,1.52-.23,1.76-1.17l9.24-35.1h37.14a.35.35,0,0,1,.35.27l9.52,35c.23.82.82,1,1.75,1h19.42c.93,0,1.17-.58.93-1.52Zm.12,72.55H93.45a.36.36,0,0,1-.35-.45c4.88-18,11-40.84,13.43-54.43a.14.14,0,0,1,.14-.12.16.16,0,0,1,.14.12c2.9,13.57,10.45,41.29,13.77,54.43A.36.36,0,0,1,120.23,136.72Zm61-76.41c-4.65,1.44-7.92,5.45-7.92,11.35,0,7.72,4.91,11.94,11.69,11.94,5.7,0,10.06-2.69,11.58-7.71C200.31,63.67,193.44,56.55,181.25,60.31Zm13.13,36.51H176c-1.05,0-1.41.47-1.41,1.4h.12v92.21c0,.94.35,1.52,1.52,1.52h18.13c1.17,0,1.4-.46,1.4-1.4V98.22C195.78,97.17,195.31,96.82,194.38,96.82ZM120.11,64.17c-.23-.93-.58-1.17-1.4-1.17H94.15c-.58,0-.94.35-.94,1.17-.23,5.74-.58,7.61-1.16,9.71L58.84,190.18a.06.06,0,0,0,0,0c-.23,1.39,0,1.73,1.17,1.73H77.19c1.17,0,1.52-.23,1.76-1.17l9.24-35.1h37.14a.35.35,0,0,1,.35.27l9.52,35c.23.82.82,1,1.75,1h19.42c.93,0,1.17-.58.93-1.52Zm.12,72.55H93.45a.36.36,0,0,1-.35-.45c4.88-18,11-40.84,13.43-54.43a.14.14,0,0,1,.14-.12.16.16,0,0,1,.14.12c2.9,13.57,10.45,41.29,13.77,54.43A.36.36,0,0,1,120.23,136.72Z"/></g></g></svg>