<svg xmlns="http://www.w3.org/2000/svg" viewBox="0 0 277.87 273.24"><defs><style>.cls-1{fill:#fff;}</style></defs><title>Asset 12</title><g id="Layer_2" data-name="Layer 2"><g id="Layer_1-2" data-name="Layer 1"><rect width="277.87" height="273.24" rx="9.18"/><path class="cls-1" d="M129.75,76.46C121.43,69.28,109,65.19,91.66,65.19c-17.2,0-38.09.55-38.09.55V189.83A9.18,9.18,0,0,0,62.75,199h9.56a9.18,9.18,0,0,0,9.18-9.18v-24.7A9.18,9.18,0,0,1,90.33,156l1.33-.05c19.12-.8,30.32-6.59,39.94-16.37C139,132,143.06,121.17,143.06,108S137.7,83.25,129.75,76.46ZM90.92,132.55h-.13a9.17,9.17,0,0,1-9.3-9.18V95.55a9.17,9.17,0,0,1,9.35-9.18l2.3.06c14.38.53,22,10.69,22,23.06C115.14,123.27,105.9,132.37,90.92,132.55Z"/><path class="cls-1" d="M153.72,169.17c5.62,3.46,18.9,8.63,27.95,8.63,9.25,0,13.07-3.26,13.07-8.34s-3-10.43-14.48-14.3C160,148.25,152.11,140,152.31,128.38c0-18.71,15.69-32.75,40-32.75a55.8,55.8,0,0,1,20.87,4.18,9.17,9.17,0,0,1,5.77,8.52v2.72a9.18,9.18,0,0,1-12.1,8.71c-4.58-1.55-9.54-2.77-13.54-2.77-7.44,0-11.66,3.05-11.66,8.13,0,4.68,3.82,7.12,15.89,11.4,18.69,6.5,26.54,16.06,26.73,30.7,0,18.51-14.26,33.23-42.62,32.34-7.54-.24-15.7-2.6-22.46-5.54a9.16,9.16,0,0,1-5.49-8.41V169.17Z"/></g></g></svg>