<svg xmlns="http://www.w3.org/2000/svg" viewBox="0 0 241.57 276.32"><defs><style>.cls-1{fill:#fc490b;}.cls-2{fill:#fff;}</style></defs><title>Html</title><g id="Layer_2" data-name="Layer 2"><g id="Layer_1-2" data-name="Layer 1"><path class="cls-1" d="M233.08,0H8.49A8.48,8.48,0,0,0,0,9.15L18,238.58a8.47,8.47,0,0,0,5.9,7.42l94.36,29.92a8.47,8.47,0,0,0,5.13,0L217.71,246a8.47,8.47,0,0,0,5.9-7.42L241.54,9.15A8.48,8.48,0,0,0,233.08,0ZM195.55,80.33H78.68l3.53,32.53H193l-7.25,92.72-65,20.6-65-20.6L52,157.14H86.13V180.9l35.57,9.55,35.35-9.55L159.8,143H50.91L43.69,50.55H197.88Z"/><polygon class="cls-2" points="195.55 80.33 78.68 80.33 82.21 112.86 193.01 112.86 185.76 205.58 120.78 226.18 55.81 205.58 52.02 157.14 86.13 157.14 86.13 180.9 121.7 190.45 157.05 180.9 159.8 143.03 50.91 143.03 43.69 50.55 197.88 50.55 195.55 80.33"/></g></g></svg>