<svg xmlns="http://www.w3.org/2000/svg" viewBox="0 0 285.21 285.21"><defs><style>.cls-1{fill:#f7f241;}.cls-2{fill:#323330;}</style></defs><title>js</title><g id="Layer_2" data-name="Layer 2"><g id="Layer_1-2" data-name="Layer 1"><path class="cls-1" d="M0,0H285.21V285.21H0Z"/><path class="cls-2" d="M261.86,217.19c-2.08-13-10.57-23.94-35.7-34.14-8.73-4-18.46-6.88-21.36-13.5-1-3.85-1.17-6-.52-8.35,1.87-7.56,10.9-9.92,18.06-7.75a19.85,19.85,0,0,1,11.6,10.76c12.31-8,12.28-7.92,20.88-13.39-3.15-4.88-4.83-7.13-6.89-9.22-7.4-8.27-17.49-12.52-33.62-12.2-2.79.35-5.61.73-8.4,1.09-8,2-15.73,6.26-20.23,11.92-13.5,15.32-9.65,42.13,6.78,53.17,16.19,12.14,40,14.91,43,26.27,2.95,13.91-10.22,18.41-23.32,16.81-9.65-2-15-6.92-20.82-15.83-10.68,6.18-10.68,6.18-21.66,12.49,2.6,5.7,5.34,8.27,9.71,13.21,20.66,21,72.36,19.92,81.63-11.8C261.38,235.65,263.87,228.38,261.86,217.19ZM155.05,131.08H128.37c0,23-.11,45.93-.11,69,0,14.67.76,28.12-1.62,32.24-3.91,8.1-14,7.1-18.63,5.53-4.69-2.31-7.08-5.59-9.84-10.22a13.63,13.63,0,0,0-1.52-2.44C89.41,229.58,82.2,234,75,238.44a42.85,42.85,0,0,0,15.73,18c10.16,6.1,23.83,8,38.11,4.69,9.3-2.71,17.33-8.32,21.53-16.86,6.07-11.2,4.77-24.75,4.72-39.74.13-24.46,0-48.91,0-73.45Z"/></g></g></svg>