<svg xmlns="http://www.w3.org/2000/svg" viewBox="0 0 305.46 309.04"><defs><style>.cls-1{fill:#f4f4f2;}.cls-2{fill:#fff;}</style></defs><title>Py</title><g id="Layer_2" data-name="Layer 2"><g id="Layer_1-2" data-name="Layer 1"><path class="cls-1" d="M189.12,2.81A216.36,216.36,0,0,0,150.67.07a195,195,0,0,0-35.3,3.15C84,8.7,78.49,20.09,78.49,41.67V69.91h73.75v9.42H51c-21.19,0-40,12.94-45.88,37.25-6.67,28.25-7.06,45.51,0,74.92,5.1,22,17.66,37.26,39.23,37.26H69.89V195c0-24.31,21.19-45.89,45.88-45.89h73.35c20.4,0,36.87-16.87,36.87-37.66V41.26C226,21.26,209.12,6.34,189.12,2.81ZM110.65,50.65A14,14,0,0,1,96.92,36.54c0-7.84,5.89-14.11,13.73-14.11a14.12,14.12,0,0,1,0,28.22Z"/><ellipse cx="110.65" cy="36.54" rx="13.73" ry="14.11"/><path d="M299.72,115.8c-5.1-21.19-15.3-37.26-36.88-37.26l-27.84,0v32.56c0,25.5-21.57,46.67-46.29,46.67H115.37c-20,0-36.88,17.26-36.88,37.66v70.22c0,20,17.26,31.78,36.88,37.66,23.14,7.06,45.5,8.25,73.75,0C207.54,297.81,226,287.2,226,265.63V237.39H152.22V228H262.84c21.2,0,29.42-14.9,36.88-37.25C307.56,167.57,307.18,145.62,299.72,115.8ZM193.41,256.22a14.12,14.12,0,1,1-13.73,14.11A14,14,0,0,1,193.41,256.22Z"/><ellipse class="cls-2" cx="193.41" cy="270.33" rx="13.73" ry="14.11"/></g></g></svg>