<svg xmlns="http://www.w3.org/2000/svg" xmlns:xlink="http://www.w3.org/1999/xlink" viewBox="0 0 338.96 338.96"><defs><style>.cls-1,.cls-4{fill:#fff;}.cls-2{fill:url(#linear-gradient);}.cls-3{fill:#004e73;}.cls-4,.cls-5{stroke:red;}.cls-4,.cls-5,.cls-8{stroke-miterlimit:10;stroke-width:0.06px;}.cls-5{fill:url(#linear-gradient-2);}.cls-6{fill:url(#linear-gradient-3);}.cls-7{fill:url(#linear-gradient-4);}.cls-8{stroke:#fff;fill:url(#linear-gradient-5);}</style><linearGradient id="linear-gradient" x1="313.42" y1="39.82" x2="10.83" y2="137.87" gradientUnits="userSpaceOnUse"><stop offset="0" stop-color="#fff"/><stop offset="0.04" stop-color="#f8eae7"/><stop offset="0.15" stop-color="#eabcb1"/><stop offset="0.26" stop-color="#dd9382"/><stop offset="0.37" stop-color="#d2715a"/><stop offset="0.49" stop-color="#c95539"/><stop offset="0.6" stop-color="#c24020"/><stop offset="0.72" stop-color="#bd300e"/><stop offset="0.85" stop-color="#ba2703"/><stop offset="1" stop-color="#b92400"/></linearGradient><linearGradient id="linear-gradient-2" x1="251.77" y1="46.83" x2="196.68" y2="142.25" gradientUnits="userSpaceOnUse"><stop offset="0" stop-color="blue"/><stop offset="0.01" stop-color="#0000f6"/><stop offset="0.05" stop-color="#0000c8"/><stop offset="0.09" stop-color="#00009d"/><stop offset="0.14" stop-color="#007"/><stop offset="0.2" stop-color="#000057"/><stop offset="0.25" stop-color="#00003b"/><stop offset="0.32" stop-color="#000025"/><stop offset="0.4" stop-color="#000014"/><stop offset="0.49" stop-color="#000009"/><stop offset="0.63" stop-color="#000002"/><stop offset="1"/></linearGradient><linearGradient id="linear-gradient-3" x1="190.23" y1="103.13" x2="274.14" y2="103.13" gradientUnits="userSpaceOnUse"><stop offset="0" stop-color="#8e0000"/><stop offset="1" stop-color="red"/></linearGradient><linearGradient id="linear-gradient-4" x1="82.72" y1="265.25" x2="118.54" y2="265.25" gradientUnits="userSpaceOnUse"><stop offset="0" stop-color="#fff"/><stop offset="0.04" stop-color="#f3f3f3"/><stop offset="0.1" stop-color="#e1e1e1"/><stop offset="0.19" stop-color="#d5d5d5"/><stop offset="0.3" stop-color="#cecece"/><stop offset="0.59" stop-color="#ccc"/></linearGradient><linearGradient id="linear-gradient-5" x1="110.55" y1="95.57" x2="70.74" y2="96.13" gradientUnits="userSpaceOnUse"><stop offset="0.15" stop-color="#a00"/><stop offset="0.49" stop-color="#a80000"/><stop offset="0.62" stop-color="#a10000"/><stop offset="0.71" stop-color="#960000"/><stop offset="0.78" stop-color="#850000"/><stop offset="0.84" stop-color="#6f0000"/><stop offset="0.89" stop-color="#530000"/><stop offset="0.94" stop-color="#300"/><stop offset="0.98" stop-color="#0f0000"/><stop offset="1"/></linearGradient></defs><g id="Layer_2" data-name="Layer 2"><g id="Layer_1-2" data-name="Layer 1"><rect class="cls-1" width="338.96" height="338.96"/><rect class="cls-2" x="37.29" y="15.59" width="264.33" height="141.76" rx="17.77"/><rect class="cls-3" x="35.14" y="181.73" width="264.33" height="141.76" rx="17.77"/><path class="cls-4" d="M212.07,201.79c-8.2,2.76-10.53,17.14-5.9,22.63,4,4.8,12.33,1.58,14.38,6,1.54,3.3-1.84,7.95-4.55,11.69a42.8,42.8,0,0,1-13.37,11.79c-9.62,5.62-14.35,4.37-16.17,8.59-2,4.62,1.15,12,5.28,13,2.21.58,4.69-.65,16.45-12.58,10.72-10.87,14.74-16,16.4-15.11s.07,6.44-1.29,11.4a109,109,0,0,1-7.3,19.27c-7.24,15.26-8.24,33.05-5.5,34.09,3.86,1.46,15.77-30.2,23.58-28.36,6.4,1.5,4.51,24.12,7.31,24.26s12.19-22.66,4.6-43.75c-3.32-9.23-8.15-13.31-6-18.76,3.09-7.68,17-10.38,22.63-11.46,9.61-1.85,15.95-.65,17.19-3.87.89-2.33-1.38-5.67-3.66-7.3-2.7-1.94-5.71-1.68-8.48-1.41-5.11.52-5.9,2.15-14.2,5.06a104.65,104.65,0,0,1-11.91,3c-2.84.61-4.8,1-7.08.22a10.9,10.9,0,0,1-5.28-4.1c-4.32-6.18.88-12.09-2.3-18.08C224.37,203.11,217.27,200,212.07,201.79Z"/><circle cx="218.65" cy="208.88" r="2.77"/><circle cx="210.4" cy="211.63" r="2.77"/><path d="M213.16,218.38c.22,1.26,3.32,2.89,5.51,1.3,1.9-1.39,1.89-4.31.9-5.06C218,213.47,212.86,216.6,213.16,218.38Z"/><path d="M225.8,244.39c2.92,1.22,1.91,11.07,0,18s-4.19,9.09-7.3,15.55c-6,12.54-7.87,25.87-6.12,26.57,2.77,1.11,14.05-29.69,22-28.08,6.32,1.28,6.13,22.41,8.53,22.29,1.72-.08,4.15-11,2.14-22.57-1.27-7.27-4.56-16.31-6.07-20.45-2.82-7.74-4.09-9.7-3.09-12.52,1.9-5.31,9.57-7.18,16.51-8.87,13.28-3.24,22-1.12,23.2-4.55.65-1.84-1.05-4.78-3.37-6.12-5.63-3.26-13.64,3.54-30.5,8.25-3,.83-5.71,1.46-8.87.62-4.75-1.26-6.55-4.79-8.54-4s-1.07,4.42-2.75,9.16c-1.4,3.94-3.71,6.31-7,9.54-11.34,11.31-21.32,11.13-22.63,18.54-.31,1.75-.23,4.41,1.12,5.16.79.44,3.41,1,20.83-16.45C221.76,246.55,224,243.64,225.8,244.39Z"/><path class="cls-5" d="M210.52,41.28C202.31,44,200,58.42,204.62,63.92c4,4.79,12.33,1.57,14.38,6,1.53,3.29-1.84,7.94-4.55,11.68a42.79,42.79,0,0,1-13.37,11.79c-9.63,5.63-14.35,4.37-16.17,8.6-2,4.62,1.14,12,5.27,13,2.22.57,4.7-.65,16.46-12.58,10.72-10.87,14.74-16,16.4-15.11s.06,6.44-1.29,11.4a109.94,109.94,0,0,1-7.3,19.26c-7.24,15.27-8.24,33.06-5.51,34.09,3.86,1.46,15.77-30.2,23.59-28.36,6.4,1.51,4.5,24.13,7.3,24.26s12.19-22.65,4.61-43.75c-3.32-9.22-8.15-13.31-6-18.75,3.1-7.69,17.05-10.38,22.64-11.46,9.6-1.86,15.94-.66,17.18-3.88.89-2.32-1.37-5.66-3.65-7.3-2.7-1.94-5.71-1.68-8.48-1.4-5.11.51-5.9,2.14-14.21,5a102.22,102.22,0,0,1-11.9,3c-2.84.62-4.8,1-7.08.22a10.73,10.73,0,0,1-5.28-4.1c-4.33-6.17.88-12.09-2.3-18.08C222.82,42.6,215.71,39.54,210.52,41.28Z"/><circle class="cls-1" cx="208.84" cy="51.13" r="2.77"/><path class="cls-1" d="M211.61,57.88c.22,1.26,3.32,2.88,5.5,1.29,1.9-1.38,1.89-4.31.9-5.05C216.48,53,211.3,56.09,211.61,57.88Z"/><path class="cls-6" d="M224.25,83.88c2.92,1.22,1.9,11.08,0,18s-4.19,9.1-7.3,15.56c-6,12.54-7.88,25.86-6.13,26.56,2.78,1.12,14.06-29.68,22-28.08,6.33,1.29,6.14,22.41,8.54,22.3,1.72-.08,4.15-11,2.13-22.58-1.26-7.26-4.56-16.31-6.06-20.44-2.82-7.75-4.1-9.71-3.09-12.52,1.89-5.31,9.57-7.19,16.51-8.88,13.28-3.23,22-1.12,23.19-4.55.65-1.84-1-4.77-3.37-6.12C265,59.84,257,66.65,240.14,71.36c-3,.83-5.71,1.45-8.87.62-4.76-1.26-6.56-4.8-8.54-4s-1.07,4.41-2.75,9.15c-1.4,4-3.72,6.31-7,9.55C201.68,98,191.7,97.81,190.38,105.22c-.31,1.75-.22,4.41,1.12,5.17.79.44,3.42,1,20.84-16.46C220.2,86.05,222.46,83.13,224.25,83.88Z"/><polygon points="85.31 221.31 82.77 297.31 92.48 280.13 92.48 224.51 85.31 221.31"/><path class="cls-7" d="M85.31,221.31,88.1,230q-.1,23.35-.22,46.72a37,37,0,0,0-2.57,32.46l11.11-26.26V221.31Z"/><rect class="cls-1" x="82.32" y="219.22" width="17.07" height="4.15"/><path class="cls-1" d="M91.66,205.33H92a.44.44,0,0,1,.44.44V219a.44.44,0,0,1-.44.44h-2.4a.44.44,0,0,1-.44-.44V207.8a2.46,2.46,0,0,1,2.46-2.46Z"/><path class="cls-1" d="M91.07,207.27q1.68-1.61,3.5-3a17.26,17.26,0,0,1,4-2.41,5.81,5.81,0,0,1,4.68-.18,7.81,7.81,0,0,1,3.32,3.46c.4.67.77,1.35,1.15,2a11.34,11.34,0,0,0,1.28,1.69A4.13,4.13,0,0,0,112.5,210a11.46,11.46,0,0,0,4.06-1.44c1.34-.71,2.61-1.56,3.91-2.41l0,0a19.77,19.77,0,0,1-3.39,3.26,10.61,10.61,0,0,1-4.41,2.05,5.52,5.52,0,0,1-2.64-.15,5.31,5.31,0,0,1-2.25-1.45,14.78,14.78,0,0,1-2.27-4.25,6.27,6.27,0,0,0-2.59-3.42,5.25,5.25,0,0,0-4.29,0,24,24,0,0,0-7.56,5.14Z"/><polygon class="cls-1" points="89.57 225.2 91.09 230.23 90.33 279.21 86.02 289.97 86.02 300.04 94.5 280.37 94.5 229.55 89.57 225.2"/><polygon points="87.53 60.03 87.53 129.22 87.53 147.9 98.64 121.64 98.64 60.03 87.53 60.03"/><rect x="84.54" y="56.58" width="17.07" height="4.15"/><path d="M93.88,44.05h.38a.44.44,0,0,1,.44.44V57.73a.44.44,0,0,1-.44.44h-2.4a.44.44,0,0,1-.44-.44V46.52A2.46,2.46,0,0,1,93.88,44.05Z"/><polygon class="cls-8" points="87.53 60.76 91.42 64.65 91.42 118.89 87.53 131.02 87.53 60.76"/><path d="M130.17,135.53c2.82-5.59,5.56-11.23,7.93-17a111.34,111.34,0,0,0,5.83-17.78A47.12,47.12,0,0,0,145,91.52c0-.77-.09-1.53-.13-2.3s-.22-1.51-.33-2.26-.39-1.46-.57-2.2a21,21,0,0,0-.92-2.05,12.38,12.38,0,0,0-2.78-3.49,6.68,6.68,0,0,0-.89-.67,8.43,8.43,0,0,0-.93-.63,15.88,15.88,0,0,0-2-1,50.27,50.27,0,0,0-9-2.29,40.18,40.18,0,0,1-4.62-1.19c-.77-.22-1.51-.58-2.26-.87a21.16,21.16,0,0,1-2.13-1.2,14.61,14.61,0,0,1-5.78-7.74,22.59,22.59,0,0,1-.57-9.59c.39-3.16,1.16-6.23,1.75-9.28a31.11,31.11,0,0,0,.59-4.56,7.06,7.06,0,0,0-1-4.18,5.87,5.87,0,0,0-3.62-2.22,11.94,11.94,0,0,0-4.5-.07,15.28,15.28,0,0,0-8.13,4A14.16,14.16,0,0,0,93.32,46h0a13.94,13.94,0,0,1,3.58-8.6A15.45,15.45,0,0,1,105.18,33a12.86,12.86,0,0,1,4.83,0,6.11,6.11,0,0,1,5.28,4.84,11.46,11.46,0,0,1,.24,2.46A27.64,27.64,0,0,1,115,45c-.57,3.11-1.31,6.14-1.66,9.21a21.09,21.09,0,0,0,.59,9,13,13,0,0,0,2,4l.67.89c.26.27.53.52.79.79a11.15,11.15,0,0,0,1.73,1.4c2.48,1.71,5.53,2.44,8.55,3.11a52.13,52.13,0,0,1,9.19,2.41,18.4,18.4,0,0,1,2.18,1.08,9.5,9.5,0,0,1,1,.69,7.84,7.84,0,0,1,1,.75,13.41,13.41,0,0,1,3,3.84,19.38,19.38,0,0,1,2,9.37,49.5,49.5,0,0,1-1.23,9.42c-3,12.3-8.7,23.61-14.63,34.62Z"/></g></g></svg>