<svg xmlns="http://www.w3.org/2000/svg" xmlns:xlink="http://www.w3.org/1999/xlink" viewBox="0 0 408.63 408.63"><defs><style>.cls-1{fill:#fff;}.cls-2{fill:url(#linear-gradient);}</style><linearGradient id="linear-gradient" x1="185.33" y1="197.48" x2="210.83" y2="197.48" gradientUnits="userSpaceOnUse"><stop offset="0.04"/><stop offset="0.4" stop-color="#020202"/><stop offset="0.53" stop-color="#090909"/><stop offset="0.62" stop-color="#141414"/><stop offset="0.69" stop-color="#252525"/><stop offset="0.76" stop-color="#3b3b3b"/><stop offset="0.81" stop-color="#575757"/><stop offset="0.86" stop-color="#777"/><stop offset="0.91" stop-color="#9d9d9d"/><stop offset="0.95" stop-color="#c8c8c8"/><stop offset="0.99" stop-color="#f6f6f6"/><stop offset="1" stop-color="#fff"/></linearGradient></defs><g id="Layer_2" data-name="Layer 2"><g id="Layer_1-2" data-name="Layer 1"><rect class="cls-1" width="408.63" height="408.63"/><circle class="cls-2" cx="198.08" cy="197.48" r="12.75"/><path d="M209.94,207.11q-11.73,6.78-23.74,13.07c-8,4.23-16,8.31-24.25,12.12s-16.47,7.49-25,10.61A113.4,113.4,0,0,1,123.91,247,39.8,39.8,0,0,1,117,248a15.54,15.54,0,0,1-3.7-.18,7.47,7.47,0,0,1-2-.67,4.46,4.46,0,0,1-1.77-1.64,4.52,4.52,0,0,1-.6-2.34,7.14,7.14,0,0,1,.33-2.08,15.92,15.92,0,0,1,1.57-3.41,41.31,41.31,0,0,1,4.2-5.66,117.58,117.58,0,0,1,9.71-9.75c6.77-6.13,13.91-11.78,21.2-17.21s14.76-10.6,22.34-15.59q5.68-3.75,11.46-7.37c3.84-2.42,7.82-4.59,11.7-7q11.61-7.11,23.52-13.76C223,157,231,152.63,239.17,148.55s16.48-8,25.18-11.38A117.9,117.9,0,0,1,278,132.7a44,44,0,0,1,7.83-1.33,20,20,0,0,1,5.08.27,12.84,12.84,0,0,1,3.51,1.24,9.92,9.92,0,0,1,5.3,9,13.22,13.22,0,0,1-.59,3.72A21.56,21.56,0,0,1,297,150.3a48.41,48.41,0,0,1-4.76,6.5A115.36,115.36,0,0,1,282,167.1a261.77,261.77,0,0,1-21.74,17.41q-5.61,4-11.31,7.87t-11.54,7.47q-5.84,3.61-11.75,7.11a6.06,6.06,0,0,1-3.35,1.06,16.64,16.64,0,0,1-4.39-.7,28.28,28.28,0,0,0-4.48-.91A6.05,6.05,0,0,0,209.94,207.11Zm-.22-.39a6,6,0,0,0,2.34-2.71,26.08,26.08,0,0,0,1.36-4.34,17.31,17.31,0,0,1,1.43-4.16,5.85,5.85,0,0,1,2.44-2.42q5.69-3.53,11.29-7.17c3.74-2.41,7.47-4.84,11.15-7.33s7.36-5,11-7.52,7.22-5.11,10.73-7.76,7-5.3,10.31-8.06a115.31,115.31,0,0,0,9.34-8.47,34.27,34.27,0,0,0,3.55-4.17,12.23,12.23,0,0,0,.84-1.36c0-.07,0,0,0,.4a4.34,4.34,0,0,0,.62,2,3.82,3.82,0,0,0,1.48,1.44c.33.17.43.13.33.1a6,6,0,0,0-1.66-.19,31.43,31.43,0,0,0-5.56.53,105.07,105.07,0,0,0-12.4,3.05c-8.37,2.53-16.73,5.67-25,9s-16.42,7.09-24.51,11-16,8.06-23.94,12.35c-3.95,2.15-7.74,4.57-11.62,6.82s-7.75,4.57-11.58,6.91c-7.65,4.7-15.22,9.56-22.64,14.6s-14.68,10.34-21.58,16a113.5,113.5,0,0,0-9.81,9,39.15,39.15,0,0,0-4.1,5,12.7,12.7,0,0,0-1.4,2.67,2.83,2.83,0,0,0-.11,2.14,2.79,2.79,0,0,0,1.88,1.13,12.5,12.5,0,0,0,3,.28,39.43,39.43,0,0,0,6.51-.77,113.75,113.75,0,0,0,13-3.48c8.55-2.8,16.91-6.21,25.18-9.82S178,223.89,186,219.76,201.89,211.23,209.72,206.72Z"/><path d="M250.55,153.51q-6.83-11.7-13.17-23.69c-4.23-8-8.37-16-12.22-24.2s-7.58-16.45-10.72-25a119.66,119.66,0,0,1-4.1-13.08,41.14,41.14,0,0,1-1.11-7,15.38,15.38,0,0,1,.19-3.79,7.6,7.6,0,0,1,.71-2.07,4.8,4.8,0,0,1,1.77-1.91,4.91,4.91,0,0,1,2.55-.66,7.86,7.86,0,0,1,2.2.35,16,16,0,0,1,3.49,1.61,41.76,41.76,0,0,1,5.72,4.24,113.94,113.94,0,0,1,9.79,9.74c6.11,6.82,11.78,13.95,17.17,21.28s10.53,14.82,15.45,22.45,9.63,15.39,14.2,23.23,8.85,15.85,13,23.92,8,16.29,11.72,24.6,7,16.81,9.84,25.51a113.33,113.33,0,0,1,3.54,13.35,42.72,42.72,0,0,1,.82,7.07,16.58,16.58,0,0,1-.36,3.83,8.1,8.1,0,0,1-.79,2.08,4.87,4.87,0,0,1-1.85,1.87,4.7,4.7,0,0,1-2.54.58,7.39,7.39,0,0,1-2.15-.42,15.1,15.1,0,0,1-3.38-1.72,41.18,41.18,0,0,1-5.46-4.45,120.67,120.67,0,0,1-9.28-10.08c-5.82-7-11.11-14.34-16.27-21.77s-10.05-15-14.85-22.69S255,161.35,250.55,153.51Zm.38-.22q6.82,11.7,14.13,23.1c4.88,7.59,10,15,15.34,22.3s11,14.33,17,21a111.07,111.07,0,0,0,9.49,9.43,37.76,37.76,0,0,0,5.22,3.86,12.13,12.13,0,0,0,2.69,1.24,2.41,2.41,0,0,0,1.88,0,2.58,2.58,0,0,0,.79-1.66,12.54,12.54,0,0,0,.11-2.91,38.66,38.66,0,0,0-1-6.33,118.69,118.69,0,0,0-4-12.66c-3.08-8.36-6.77-16.55-10.59-24.66s-7.94-16.1-12.14-24-8.57-15.8-13.09-23.56-9.08-15.51-13.86-23.12-9.62-15.17-14.74-22.53S237.73,78.12,232,71.27a114.4,114.4,0,0,0-9-9.78,38.15,38.15,0,0,0-5-4.06,11.86,11.86,0,0,0-2.57-1.36,2.62,2.62,0,0,0-1.84-.15,2.48,2.48,0,0,0-.94,1.63,12.55,12.55,0,0,0-.27,3,38,38,0,0,0,.74,6.45,110,110,0,0,0,3.42,12.93c2.79,8.54,6.1,16.94,9.72,25.19s7.51,16.41,11.64,24.44S246.45,145.45,250.93,153.29Z"/><path d="M158.29,224.26Q165.12,236,171.46,248c4.23,8,8.38,16,12.23,24.21s7.57,16.44,10.71,25a120.35,120.35,0,0,1,4.1,13.08,41.3,41.3,0,0,1,1.12,7,15.38,15.38,0,0,1-.2,3.79,7.49,7.49,0,0,1-.71,2.07,4.81,4.81,0,0,1-1.77,1.92,5,5,0,0,1-2.55.65,7.85,7.85,0,0,1-2.19-.34,16.56,16.56,0,0,1-3.5-1.61,42.65,42.65,0,0,1-5.72-4.25,113.94,113.94,0,0,1-9.79-9.74c-6.11-6.81-11.78-13.95-17.16-21.28s-10.54-14.81-15.45-22.45-9.63-15.39-14.21-23.23-8.85-15.85-13-23.91-8-16.3-11.71-24.61-7-16.81-9.85-25.5a114,114,0,0,1-3.54-13.36,41.68,41.68,0,0,1-.81-7.07,16.07,16.07,0,0,1,.35-3.83,7.73,7.73,0,0,1,.8-2.07,4.87,4.87,0,0,1,1.84-1.88,4.75,4.75,0,0,1,2.55-.58,7.39,7.39,0,0,1,2.14.42A15.12,15.12,0,0,1,98.5,142a40.49,40.49,0,0,1,5.46,4.44,117.47,117.47,0,0,1,9.28,10.09c5.82,7,11.11,14.34,16.27,21.77s10.05,15,14.85,22.69S153.81,216.42,158.29,224.26Zm-.38.22q-6.82-11.68-14.12-23.1c-4.89-7.59-10-15-15.35-22.29s-11-14.33-17-21a106.86,106.86,0,0,0-9.49-9.43,37,37,0,0,0-5.22-3.87,11.93,11.93,0,0,0-2.69-1.24,2.41,2.41,0,0,0-1.88,0,2.58,2.58,0,0,0-.79,1.66,12.56,12.56,0,0,0-.11,2.91,38.48,38.48,0,0,0,1,6.33,117.27,117.27,0,0,0,4,12.66c3.08,8.37,6.77,16.55,10.59,24.66s7.94,16.1,12.14,24,8.57,15.79,13.1,23.55,9.07,15.52,13.85,23.12,9.62,15.17,14.75,22.53,10.35,14.65,16.06,21.5a116.06,116.06,0,0,0,9,9.78,38.93,38.93,0,0,0,5,4.07,12.5,12.5,0,0,0,2.57,1.35,2.62,2.62,0,0,0,1.84.15,2.41,2.41,0,0,0,.94-1.63,12,12,0,0,0,.27-3,37.09,37.09,0,0,0-.74-6.45,108.59,108.59,0,0,0-3.42-12.93c-2.79-8.53-6.1-16.93-9.72-25.19s-7.5-16.41-11.63-24.43S162.39,232.32,157.91,224.48Z"/><path d="M223.06,197.38A325.55,325.55,0,0,1,220.15,243a132.24,132.24,0,0,1-5.05,22.64A48.61,48.61,0,0,1,210,276.66a20.87,20.87,0,0,1-4.49,5.12,14.32,14.32,0,0,1-3.34,2,14.09,14.09,0,0,1-2,.68,22,22,0,0,1-2.18.32c-.74,0-1.5,0-2.22-.11a14.67,14.67,0,0,1-2.13-.49,15.32,15.32,0,0,1-3.69-1.74,23.67,23.67,0,0,1-5.36-4.79c-.77-.86-1.38-1.74-2.06-2.62s-1.24-1.78-1.77-2.69l-.83-1.36-.77-1.37c-.52-.91-1-1.84-1.43-2.76a115,115,0,0,1-7.93-22.76,207.31,207.31,0,0,1,0-93.5,115,115,0,0,1,7.93-22.76c.47-.92.91-1.85,1.43-2.76l.77-1.37.83-1.36c.53-.91,1.18-1.8,1.77-2.69s1.29-1.76,2.06-2.62a23.67,23.67,0,0,1,5.36-4.79,15.7,15.7,0,0,1,3.69-1.74,16.11,16.11,0,0,1,2.13-.49A20.38,20.38,0,0,1,198,110a19.39,19.39,0,0,1,2.18.31,15.44,15.44,0,0,1,2,.68,14.32,14.32,0,0,1,3.34,2A20.87,20.87,0,0,1,210,118.1a48.61,48.61,0,0,1,5.09,11.07,132.24,132.24,0,0,1,5.05,22.64A325.55,325.55,0,0,1,223.06,197.38Zm-.2,0a191.27,191.27,0,0,0-5.18-45.09,104.62,104.62,0,0,0-7.44-21.11,46.35,46.35,0,0,0-2.67-4.74,30.81,30.81,0,0,0-3.1-4.16,13.53,13.53,0,0,0-3.48-3,4.61,4.61,0,0,0-3-.72,5.26,5.26,0,0,0-2.52,1.42,14.72,14.72,0,0,0-2.61,3.29,44,44,0,0,0-4,9.16,126.72,126.72,0,0,0-4.55,21,320.81,320.81,0,0,0-2.76,43.91,320.81,320.81,0,0,0,2.76,43.91,126.72,126.72,0,0,0,4.55,21,44,44,0,0,0,4,9.16,14.72,14.72,0,0,0,2.61,3.29,5.26,5.26,0,0,0,2.52,1.42,4.61,4.61,0,0,0,3-.72,13.53,13.53,0,0,0,3.48-3,29.6,29.6,0,0,0,3.1-4.16,46.35,46.35,0,0,0,2.67-4.74,104.62,104.62,0,0,0,7.44-21.11A191.27,191.27,0,0,0,222.86,197.38Z"/></g></g></svg>