<svg xmlns="http://www.w3.org/2000/svg" viewBox="0 0 572 519"><defs><style>.cls-1{fill:#99995c;}.cls-2{fill:#343d4a;}.cls-3{fill:#e9ffa0;}.cls-4{fill:#df0000;}.cls-5{fill:#8f002e;}.cls-6{fill:#fff;}</style></defs><title>2nd</title><g id="Layer_2" data-name="Layer 2"><g id="Layer_1-2" data-name="Layer 1"><rect class="cls-1" y="33" width="519" height="486" rx="79.65"/><rect class="cls-2" x="53" width="519" height="486" rx="79.65"/><circle class="cls-3" cx="309.84" cy="243.43" r="191.57"/><path class="cls-4" d="M224.11,210.62V327H192.36V181.66Z"/><path d="M287.62,208.5V324.93h31.75V179.54Z"/><path class="cls-5" d="M319.37,171.46l-63.5,60.33-63.51-63.51V136.53l63.51,60.33,63.5-60.33Z"/><path d="M365.11,297.43c-.34,28.74-.55,47-10,51.26C340.35,355.38,301,328.35,301,294.58s39.15-60.82,54.11-54.11C365.72,245.21,365.46,267.42,365.11,297.43Z"/><path class="cls-6" d="M371.62,297c.34,28.74.55,47,10,51.26,14.79,6.69,54.11-20.33,54.11-54.11S396.55,233.32,381.59,240C371,244.77,371.27,267,371.62,297Z"/></g></g></svg>