<svg xmlns="http://www.w3.org/2000/svg" viewBox="0 0 572 519"><defs><style>.cls-1,.cls-5{fill:#fff;}.cls-2{fill:#343d4a;}.cls-3{stroke:#cde900;stroke-width:2.13px;}.cls-3,.cls-5{stroke-miterlimit:10;}.cls-4{fill:#000a0d;}.cls-5{stroke:#fff;stroke-width:1.19px;}</style></defs><title>3rd</title><g id="Layer_2" data-name="Layer 2"><g id="Layer_1-2" data-name="Layer 1"><rect class="cls-1" y="33" width="519" height="486" rx="79.65"/><rect class="cls-2" x="53" width="519" height="486" rx="79.65"/><circle class="cls-3" cx="326.19" cy="242.77" r="192.75"/><path class="cls-4" d="M249.9,132H403.17A35.73,35.73,0,0,1,438.9,167.7V296.35a60.35,60.35,0,0,1-60.35,60.35h-104a60.35,60.35,0,0,1-60.35-60.35V167.7A35.73,35.73,0,0,1,249.9,132Z"/><polygon class="cls-1" points="321.82 177.15 321.82 225.71 296.22 255.72 321.82 274.26 308.57 296.33 354.48 323.69 331.53 287.5 342.12 264.55 325.35 250.42 345.65 226.59 345.65 177.15 321.82 177.15"/><line class="cls-5" x1="227.37" y1="139.98" x2="418.63" y2="341.45"/></g></g></svg>