<svg xmlns="http://www.w3.org/2000/svg" viewBox="0 0 572 519"><defs><style>.cls-1{fill:#b0ab35;}.cls-2{fill:#343d4a;}.cls-3{opacity:0.8;}.cls-4{fill:#1d1d1d;}.cls-5{fill:#e9ffa0;}.cls-10,.cls-11,.cls-6,.cls-8{fill:#fff;}.cls-7{fill:none;}.cls-8{opacity:0.3;}.cls-9{opacity:0.85;}.cls-10{opacity:0.32;}.cls-11{opacity:0.35;}.cls-12{opacity:0.9;}.cls-13{fill:red;}</style></defs><title>4th</title><g id="Layer_2" data-name="Layer 2"><g id="Layer_1-2" data-name="Layer 1"><rect class="cls-1" y="33" width="519" height="486" rx="79.65"/><rect class="cls-2" x="53" width="519" height="486" rx="79.65"/><circle cx="312.3" cy="242.59" r="190.01"/><g class="cls-3"><path class="cls-4" d="M497.35,242.59a165.87,165.87,0,0,0-2.46-37.35c-.41-2-.83-4-1.25-6-.22-1-.43-2-.65-3.08s-.54-2.06-.82-3.11c-.56-2.08-1.09-4.21-1.7-6.35l-2.07-6.43a187.09,187.09,0,0,0-11.09-26,196.83,196.83,0,0,0-15.43-24.65,192.92,192.92,0,0,0-18.45-21.33l-4.81-4.68-4.89-4.33c-1.58-1.45-3.23-2.76-4.84-4s-3.16-2.6-4.75-3.78L419.45,88c-.76-.56-1.5-1.13-2.26-1.64l-2.27-1.5L410.6,82c-1.39-.92-2.81-1.7-4.13-2.51C402.39,77,398.37,75,394.63,73c-1.89-1-3.76-1.78-5.55-2.63s-3.53-1.69-5.26-2.35c-3.43-1.39-6.59-2.8-9.64-3.81s-5.8-2.15-8.44-2.9c-2.21-.68-2.59-.81-1.42-.47s3.91,1.06,7.79,2.5a178.87,178.87,0,0,1,34.36,16.17A188.77,188.77,0,0,1,447,111.61a190.29,190.29,0,0,0-26.78-24.47,206,206,0,0,0-25.83-16.46,190.14,190.14,0,0,0-79.63-18.9,188.24,188.24,0,0,0-42.72,4A192,192,0,0,0,163,122l-3.88,4.88c-1.29,1.61-2.43,3.32-3.63,5-2.44,3.24-4.53,6.6-6.59,9.73-1.07,1.55-1.93,3.16-2.85,4.67s-1.76,3-2.59,4.38l-4.14,7.71a192.74,192.74,0,0,1,89.08-88.52A192.73,192.73,0,0,1,352.94,55.28c-2.23-.62-4.5-1-6.71-1.47a194.62,194.62,0,0,0-33.38-3.28,198.79,198.79,0,0,0-33.48,2.61,188.12,188.12,0,0,0-32.58,8.34,194,194,0,0,0-30.62,14,218.5,218.5,0,0,0-19.56,12.65,197.71,197.71,0,0,1,19.56-12.65c4.29-2.57,8.75-4.76,13.19-7l6.79-3.11c2.28-1,4.64-1.89,7-2.85a193.32,193.32,0,0,1,29.94-9,194.32,194.32,0,0,1,42-3.48,164.37,164.37,0,0,1,31.16,3.73l4.92.93L356,55.9c1.62.41,3.25.74,4.86,1.2l4.81,1.4c1.89.5,3.91,1,5.93,1.73l-.24-.11c-.47-.22-1.09-.49-1.84-.8s-1.65-.6-2.67-1c-2.05-.67-4.58-1.6-7.59-2.47a176.62,176.62,0,0,0-23.2-5l-3.53-.54c-1.2-.17-2.42-.26-3.66-.39-2.48-.23-5-.56-7.64-.72l-8-.38c-2.73-.08-5.52,0-8.35,0a191.3,191.3,0,0,0-69.62,14.42,185.6,185.6,0,0,0-29.44,15.32A182.13,182.13,0,0,0,184.29,94.5c-1.41,1.22-2.77,2.35-4,3.46L177,101.13l-2.8,2.68c-.83.82-1.51,1.6-2.13,2.24a163.7,163.7,0,0,0-20.42,26.39,235.41,235.41,0,0,0-16.36,31.07c-1.78,3.8-3.16,7.41-4.57,10.76-.72,1.66-1.25,3.33-1.79,4.95s-1,3.19-1.46,4.74c0,.65-.71,3.81-1.44,6.95-4.49,16-7.25,32.68-6.94,45.55,0,1.12-.06,2.5-.17,4,0,.78-.14,1.6-.18,2.45s-.09,1.74-.13,2.65c-.12,1.83-.24,3.76-.37,5.72-.09,1-.11,2-.13,2.94s-.06,2-.08,2.93c0,1.93-.1,3.81-.14,5.56s.1,3.36.14,4.76c.11,2.8.24,4.77.5,5.22,1.85,3.31,2.1,3.74,2.34,6,.13,1.13.16,2.74.63,5.33.22,1.31.5,2.87.87,4.76.19.94.37,2,.64,3.08s.62,2.3,1,3.6c.16.62.49,1.59.91,2.75s.91,2.54,1.55,3.95c1.23,2.84,2.46,6,3.34,8.44.72,2.06,1.4,3.93,2.05,5.67.33.86.63,1.71,1,2.5s.7,1.56,1,2.3c.68,1.48,1.32,2.88,2,4.25.32.68.63,1.36,1,2l1.07,2,2.22,4c.39.7.79,1.4,1.19,2.14l1.37,2.2,3,4.94c1.1,1.78,2.41,3.63,3.77,5.72,2,3.11,4.11,5.74,5.89,8.23s3.58,4.63,5.15,6.69l2.32,3,2.28,2.69c1.5,1.73,2.85,3.45,4.32,5l4.44,4.72,1.14,1.19,1.23,1.16,2.55,2.38,2.75,2.49c1,.85,2,1.66,3.08,2.53,2.17,1.71,4.47,3.61,7.22,5.44a203.85,203.85,0,0,0,19.41,12.89c1.12.71,2.3,1.32,3.44,1.94l3.34,1.81c1.09.57,2.11,1.17,3.11,1.65l2.84,1.36,4.21,2c1,.5,1.61.73,1.61.73a181.4,181.4,0,0,0,38.61,13.29,332.72,332.72,0,0,0,35.21,5.84,272.46,272.46,0,0,0,47.93-4.23c16.68-3.32,33.32-8.66,47-15.81l4.94-2.57c1.6-.81,3.06-1.73,4.52-2.54l4.23-2.4c1.35-.81,2.64-1.64,3.91-2.42l3.71-2.28c1.21-.74,2.33-1.55,3.48-2.3l3.36-2.23,1.65-1.1,1.59-1.16a188.79,188.79,0,0,0,26.14-21.79c2.69-2.8,4.87-5.42,6.87-7.64s3.53-4.33,5.07-6c.38-.42.82-.93,1.28-1.53s.91-1.29,1.42-2c1-1.48,2.13-3.2,3.29-5s2.24-3.79,3.39-5.66l1.69-2.76,1.54-2.62c-.13.67-.25,1.35-.38,2l2.69-4.46c1-1.66,2-3.33,2.62-4.5,1.24-2.29,1.14-1.6,1-.92-.19,1.37-.39,2.75,2-1.18A182.34,182.34,0,0,0,502,301.41a190.34,190.34,0,0,0,6-33.09,9.53,9.53,0,0,1-.5-3l.18-2.44c0-.81.05-1.63.07-2.45l.12-4.88c-.53-2-1.32-1.37-1.67-2.69-.94,0-1.82-3.45-2.66-6.4s-1.73-5.44-2.62-3.86a23.58,23.58,0,0,0-.42,3.68c-.07,1-.15,2.16-.24,3.42s-.14,2.63-.34,4.05c-.34,2.83-.64,5.88-1.07,8.7s-1,5.41-1.51,7.38c-.51,1.81-.58-2.59-1-4.49-.34,2.6-.6,4.58-.92,6a15.58,15.58,0,0,1-.81,2.75c-.42.86-.6-.11-.53-2.26-.48,2.4-1,4.79-1,4.79-.11-.64-.46-2.56-.46-2.56A185.59,185.59,0,0,1,480,312.45a250.53,250.53,0,0,1-19.44,34.69c-.76,1.12-1.63,2.44-2.56,3.87s-2.05,2.89-3.13,4.39c-2.07,3.08-4.47,6-6.3,8.42a45.53,45.53,0,0,1-4.31,4.56c-1.69,1.63-3.3,3.23-4.23,4-2.64,3.37-1.7,3.49-2.55,5.24-3.59,3.1-8.34,7-13.58,10.75-.65.48-1.3,1-2,1.45l-2,1.38L415.78,394c-2.74,1.82-5.55,3.47-8.15,5.15s-5.25,3-7.53,4.37-4.43,2.4-6.13,3.41l-2.27,1.37c-.67.39-1.23.74-1.66,1-.86.61-1.22,1-1,1.25-1.75.78-3.32,1.49-4.75,2.17l-4,1.7c-2.47,1.07-4.57,2.09-6.76,2.92s-4.35,1.83-7,2.75l-4.32,1.39c-1.58.47-3.29,1.06-5.25,1.48a179.43,179.43,0,0,1-34.94,5.45,185.58,185.58,0,0,1-39.35-1.93,179.53,179.53,0,0,1-41.07-11.42l-1.84-.72-1.78-.79L234.5,412c-1.16-.53-2.32-1-3.44-1.58l-3.31-1.68A184.7,184.7,0,0,1,136.1,301.91a190.31,190.31,0,0,1-9.44-67.82,193.23,193.23,0,0,1,16.79-71,182.77,182.77,0,0,1,46.77-62.88,185.51,185.51,0,0,1,32.39-22.68,183.28,183.28,0,0,1,36.18-15,186.56,186.56,0,0,1,75.38-6.21A184.21,184.21,0,0,1,401.22,78a188.52,188.52,0,0,1,49,39.55A196,196,0,0,1,467.13,140l3.47,5.61c1.13,1.85,2.11,3.76,3.14,5.59l1.53,2.75c.48.92.91,1.86,1.37,2.77l2.67,5.44a186.62,186.62,0,0,1,12.88,39,181.11,181.11,0,0,1,3.66,26.61C496.62,232.69,496.93,237.63,497.35,242.59Z"/></g><line class="cls-5" x1="417.29" y1="166.15" x2="417.29" y2="284.54"/><g class="cls-3"><path class="cls-6" d="M412.66,284.54c2-3.36,2.24-14.76,3.09-19.73a44.72,44.72,0,0,1,.61-4.47c.19-.92,0,1.22-.61,4.47-.14,1.46-.28,3.17-.44,5.19.86-2.51,1.7-4.93,2.39-6.66.05-1.28.11-2.56.19-3.87.32-5.76.37-11.32.89-17,.21-2.07.26-6.57.69-8.57L418.84,259c0-.23.09-.45.15-.68l.9-13.18a22.42,22.42,0,0,1,.16-2.28l-.16,2.28c0,1.95.18,3.85.22,6-.05,1.31-.37,2.81-.42,4.13a17.75,17.75,0,0,1-.7,3.07l-.14,2a6,6,0,0,1,.08.61l0,0c1.69-1.62,4.06-18.2,3.74-20.95-.21-2.19-1.58-4.19-1.74-6.63-.06-.81.31-1.5,0-2.13-.21-.06-.37-.37-.53-.69-.11-1.62.68-3.25.05-4.5-.27-.87,3.17-3.31,2.53-3.5-2.32-.69-.63-.19-.42-2.25.05-.25-.9-1.07-.8-1.57.59-1.68-.21-2.19-.47-4.12-.74-2.88.74-3.51-.74-6.07-.16-.31-1.12-4.31-1.12-4.31.21-3.13-.95-5.07.69-7.51-1.43-2.82.26-6.57,0-9.57s.9-4.26,1.9-6.88c.16-.75.05-1.32.37-1.75s-.58-1.5-.42-2.25l.63.18c.06-.25.16-.75.21-1s.27-.19.48-.12c.42.12.85.25,1.16-.19a22.28,22.28,0,0,0,.84-3.21c-.32-1.08-.68-2.15-1.08-3.2a2.74,2.74,0,0,1-.82-.28c-.16-.32-.32-.63-.47-.94-.64-.19-1.33-.13-1.75-.25-1.8,0-3.54-1.31-5.18-1-.48.13-.63,1.94-1.48,2.75-.26.19-.84-.25-1.48-.43,0,1.06-.69,1.12-1.27.69l-.1.5-.85-.25c-.79,2.69-2.32,5.69-1.53,8.32a10.42,10.42,0,0,0,.9,2.12c.16.31-.21,1-.26,1.25a5.16,5.16,0,0,0,1.9.57c-.63,1.94-1.74,6.13.53,6-.1,1.56.95,1.88,1.06,3.5.18,2.16.31,4.89.4,7.58a41.89,41.89,0,0,1,.11,4.32c0,.54,0,1.05,0,1.55.22,10.69-1.55,18.59.18,29,3.48,21-1.76,44.21-2.27,49.39Z"/></g><line class="cls-5" x1="205.13" y1="166.15" x2="205.13" y2="284.54"/><g class="cls-3"><path class="cls-6" d="M200.17,284.54c2.13-3.36,2.4-14.76,3.31-19.73a40.28,40.28,0,0,1,.65-4.47c.21-.92,0,1.22-.65,4.47-.15,1.46-.3,3.17-.47,5.19.91-2.51,1.82-4.93,2.56-6.66.05-1.28.12-2.56.2-3.87.34-5.76.39-11.32,1-17,.22-2.07.28-6.57.73-8.57L206.78,259c.05-.23.1-.45.16-.68l1-13.18a19.92,19.92,0,0,1,.17-2.28l-.17,2.28c0,1.95.19,3.85.24,6-.06,1.31-.4,2.81-.46,4.13a15.46,15.46,0,0,1-.75,3.07l-.15,2a4.08,4.08,0,0,1,.09.61l0,0c1.8-1.62,4.34-18.2,4-20.95-.23-2.19-1.7-4.19-1.87-6.63-.06-.81.34-1.5,0-2.13-.22-.06-.4-.37-.57-.69-.11-1.62.74-3.25.06-4.5-.29-.87,3.39-3.31,2.71-3.5-2.49-.69-.68-.19-.45-2.25.05-.25-1-1.07-.85-1.57.62-1.68-.23-2.19-.51-4.12-.8-2.88.79-3.51-.8-6.07-.17-.31-1.19-4.31-1.19-4.31.23-3.13-1-5.07.73-7.51-1.53-2.82.28-6.57,0-9.57s1-4.26,2-6.88c.17-.75.06-1.32.4-1.75s-.63-1.5-.46-2.25l.68.18c.06-.25.17-.75.23-1s.28-.19.51-.12c.45.12.91.25,1.24-.19a20.16,20.16,0,0,0,.9-3.21c-.34-1.08-.73-2.15-1.16-3.2a3,3,0,0,1-.87-.28l-.51-.94c-.68-.19-1.42-.13-1.87-.25-1.92,0-3.79-1.31-5.54-1-.52.13-.68,1.94-1.59,2.75-.28.19-.9-.25-1.58-.43,0,1.06-.74,1.12-1.36.69-.06.25-.11.5-.11.5l-.91-.25c-.85,2.69-2.49,5.69-1.64,8.32a10.36,10.36,0,0,0,1,2.12c.17.31-.23,1-.29,1.25a5.93,5.93,0,0,0,2,.57c-.68,1.94-1.86,6.13.57,6-.11,1.56,1,1.88,1.13,3.5.2,2.16.34,4.89.43,7.58a39.29,39.29,0,0,1,.12,4.32c0,.54,0,1.05,0,1.55.23,10.69-1.67,18.59.18,29,3.73,21-1.88,44.21-2.42,49.39Z"/></g><path class="cls-6" d="M221.54,341.39c4.28,2.26,8.35,4.44,12.42,6.48s8.14,3.86,12.1,5.67A181.19,181.19,0,0,0,270,362a142.22,142.22,0,0,0,23.72,4.43,131.77,131.77,0,0,0,23.58.12,129.53,129.53,0,0,0,23.24-4.36,159.72,159.72,0,0,0,22.95-8.66c3.82-1.73,7.6-3.67,11.39-5.72s7.58-4.21,11.36-6.51,7.54-4.72,11.35-7.23,7.59-5.15,11.49-7.94a68.77,68.77,0,0,1-5.6,13.23,103.92,103.92,0,0,1-7.71,12.17,107.27,107.27,0,0,1-9.35,11.12A110.51,110.51,0,0,1,349.82,388a105.89,105.89,0,0,1-29.72,7.57c-2.56.25-5.14.39-7.71.49s-5.16.06-7.72-.11c-1.28-.08-2.56-.16-3.84-.27l-1.92-.16-1.9-.27c-2.54-.37-5.08-.75-7.59-1.2A100.93,100.93,0,0,1,261,383.49a98,98,0,0,1-23.42-18.07,91.21,91.21,0,0,1-9.11-11.34A66.88,66.88,0,0,1,221.54,341.39Z"/><rect class="cls-7" x="139.8" y="276.61" width="73" height="91.33" transform="translate(-155.44 480.04) rotate(-86.75)"/><g class="cls-3"><path class="cls-6" d="M185.62,286.25a4.35,4.35,0,0,0-1.23,1.72c.17.54.79.18.87,0,1.59,1.29,1.67,3.35,3.62,4.13a2.82,2.82,0,0,0-.76.56c.65,1.36.43,2.88.82,4.23-1.25.93-.06,2.2-1,3.21l-.65-.24a11.65,11.65,0,0,0-.87,2.48c.94.92.94,2.12,1,3.45a16.66,16.66,0,0,0-1,2.07.67.67,0,0,0-.29-.74c-.93-.06-.74,1.22-1.68,1.43-.49-.83.06-2.26-1.47-2.34-.12,1.05.72,2.56.16,3.2a2.5,2.5,0,0,0-.46-1.42c-1.29.45-.52,2.16-.58,3.22s1.2,2.4.2,3.47a37.67,37.67,0,0,1-4.53-10.43c-1.31-3.87-1.2-8.12-.92-11.83.87-3.68,4.86-3.65,7-5.86C184.25,285.77,185.07,286.61,185.62,286.25Z"/><path class="cls-8" d="M179.41,292.61c-.09.33-.53,0-.26-.21Z"/><path class="cls-8" d="M178.67,293.9c-.62.36-.57-.56-.69-.84l.38.49.63-.7C179.1,293.26,178.36,293.48,178.67,293.9Z"/><path class="cls-8" d="M179.29,293.54l-.2,0C179.16,293.53,179.17,293.33,179.29,293.54Z"/><path class="cls-8" d="M179.22,294.66l.27.09Z"/><path class="cls-8" d="M179.38,295.47c.13.07-.08.2-.15.33C179.3,295.67,179.18,295.46,179.38,295.47Z"/><path class="cls-8" d="M178.62,295.89a.25.25,0,0,1-.24-.41C178.57,295.56,178.64,295.63,178.62,295.89Z"/><polygon class="cls-8" points="177.35 295.96 177.25 295.55 177.38 295.56 177.35 295.96"/><path class="cls-8" d="M179.72,298.82l-.08.32Z"/><path class="cls-8" d="M179.22,299.39c-.09.52.18.41-.32.91.62-.3-.34-1,.33-1.05C179.23,299.32,179.29,299.39,179.22,299.39Z"/><polygon class="cls-8" points="180.06 299.9 180.08 299.57 180.13 299.84 180.06 299.9"/><path class="cls-8" d="M179.41,299.6l.39.22Z"/><path class="cls-8" d="M177.28,299.54l.4.16Z"/><path class="cls-6" d="M222.85,307.85c-.24-.41-.21-1.08-.6-1.17C223,306.53,223.15,307.33,222.85,307.85Z"/><path class="cls-6" d="M222.17,308.08c.21-.19.22-.39.47,0-.56.43-1.45-.29-.95-.86C221.93,307.6,221.51,308,222.17,308.08Z"/><path class="cls-6" d="M197.61,308.28c.67,2.3-.81,3.75-.88,6.07-1-.19-1.31-1.34-2.31-.26-.34.24.24.41.1.67-.37-.56-1.08.27-1.62.37,0,.54.26,1.21,0,1.6-.73,0-1.21-2.13-1.89-.64l.13,1.14c-1.05-.19.06-2.13-1.26-2.33l-.86,1.14c-.11-.47.68-1.42-.25-1.54s-.25.85-1,.94c-.55-.89,1.08-2.66-.58-2.69-.6-.1-.21,1.32-.69.42,1.19-1.12-.48-2.15.78-3.28,1.44-.78.21-2.51,2.15-2.74.2-1,1.57-.57,2.11-.87,1.67,2.22,2.57-.72,4.56.52C197,306.91,197.24,307.79,197.61,308.28Z"/><rect class="cls-8" x="189.88" y="309.02" width="0.47" height="0.13" transform="translate(-129.24 481.4) rotate(-86.75)"/><path class="cls-8" d="M188.42,309.69c-.2.05-.06-.14-.06-.2S188.42,309.62,188.42,309.69Z"/><polygon class="cls-8" points="189.13 310.06 189.21 309.8 189.46 310.08 189.13 310.06"/><path class="cls-8" d="M189.51,310.42c-.15.19-.2.05-.33-.09C189.31,310.34,189.45,310.28,189.51,310.42Z"/><path class="cls-8" d="M188.92,311.38c-.57.77-.37-.49-1.1-.6.26.22.61-.16.49-.43A1.68,1.68,0,0,0,188.92,311.38Z"/><path class="cls-8" d="M195.65,311.16c-.18-.34-.33-.08-.52-.09C195.41,310.75,195.54,310.76,195.65,311.16Z"/><path class="cls-8" d="M187.91,310.39a.37.37,0,0,1-.08.26C187.84,310.52,187.78,310.32,187.91,310.39Z"/><polygon class="cls-8" points="187.29 310.82 187.51 310.5 187.42 310.83 187.29 310.82"/><path class="cls-8" d="M189.73,311.23c-.06-.14-.59-.17-.31-.42C189.47,311,189.61,310.89,189.73,311.23Z"/><path class="cls-8" d="M195.11,311.33l.12.27Z"/><polygon class="cls-8" points="189.36 311.8 189.38 311.41 189.51 311.61 189.36 311.8"/><path class="cls-8" d="M195.18,312.47c-.43-.69-.17.59-.52-.17C194.94,311.92,195.12,312.33,195.18,312.47Z"/><path class="cls-8" d="M188.55,312c.18.35.37.49.71.44-.52-.22-1.2,0-1.24-.4C188.21,312.14,188.21,312.14,188.55,312Z"/><polygon class="cls-8" points="187.27 312.35 187.48 312.1 187.4 312.36 187.27 312.35"/><rect class="cls-8" x="193.97" y="313.19" width="0.8" height="0.07" transform="translate(-129.35 489.55) rotate(-86.75)"/><path class="cls-8" d="M189.19,313.59c-.39,0-.26-.08-.65-.24l.24.62-.07-.07-.15.39c-.29-.75.19-1.12.68-1.5C189,313.18,189.33,313.47,189.19,313.59Z"/><path class="cls-8" d="M190,313.44c-.14.06-.26-.08-.32-.15-.41.11,0,.46,0,.46-.53,0,.09-.33-.23-.55C189.61,313.28,190.16,313.05,190,313.44Z"/><path class="cls-8" d="M190.91,313.89c-.11-.41-.6,0-.37-.49C190.72,313.74,191.12,313.7,190.91,313.89Z"/><path class="cls-8" d="M189.93,314.63c.11-.66-.85-.25-.15-.81C190,314,190.41,314.46,189.93,314.63Z"/><polygon class="cls-8" points="190.52 314.8 190.48 314.46 190.54 314.53 190.52 314.8"/><rect class="cls-8" x="189.46" y="314.68" width="0.33" height="0.07" transform="translate(-135.31 486.22) rotate(-86.75)"/><path class="cls-6" d="M220.93,317a1.29,1.29,0,0,1-.46,1.1c0-.33.62-.36.25-.78l-.21.19c-.64-.51.57-.77-.35-.89-.46-.09-.49.37-.7.63,0,.46.31,1.48.74,1l-.61.3c-.52-.36-.34-1.22-.11-1.61C219.9,316.4,220.72,316.11,220.93,317Z"/><path class="cls-6" d="M183.66,318.53l0,.74Z"/><path class="cls-6" d="M182.88,319.29l.26,1.27Z"/><polygon class="cls-6" points="183.77 321.33 183.91 321.21 184.09 321.42 183.77 321.33"/><path class="cls-6" d="M183.19,322c.2.15-.08.33-.09.46C183.11,322.36,183.06,322,183.19,322Z"/><path class="cls-6" d="M196.28,324.77c.13,1.14.94,2.25,0,3.26,0,2-1,4.27-2.8,4.9-.56,2.76,2,5.37,1.07,8.11-1.27,0-1.34,1.25-2.42,1.59a2.26,2.26,0,0,1-.55,1.43c-.43-.55.79-2.15-.4-2.35l-.17,1.85c-.18-.27.06-1-.11-1.47-.91-.51-1.57.65-1.61,1.38-.64-.44.06-1.2.1-1.79-.78-.45-.45.84-1.24.66a3.84,3.84,0,0,1,.68,4.49c-.77.63-1.12,2.2-2.25,2.07-.58-.3-.51-1.42-1.34-1a3.26,3.26,0,0,0-1.34,2.52c-.36.58-.79-.11-1-.26-.11-.4-.27-1-.66-1.23.33,1.22-.34,2.44-1,3.47-.67,0-1.41-1.08-1.56-1.82a2.53,2.53,0,0,1,.71-2c.57-.63,1.19.2,1.72.16a3.77,3.77,0,0,1,.6-5.82c1-.54,1.52.16,2.36.6a2.62,2.62,0,0,1,2.15-1.61l.78.31c.19-2.11-.42-4.34.69-6.21.58-.83.85-2.15,2.11-2.14.56-.5,1.53.08,2.1.52.17-.66.43-1.64-.34-2.09-.14.13.19,1.21-.4,1.11a4.34,4.34,0,0,1-.68-3.23c-.59-.17-.57.57-1.09.47.51-2-1-4.38.94-6-.09-.87,1.13-1.27,1.56-1.71A3.31,3.31,0,0,1,196.28,324.77Z"/><rect class="cls-6" x="183.04" y="322.86" width="0.27" height="0.07" transform="translate(-149.57 487.5) rotate(-86.75)"/><path class="cls-8" d="M192.74,323.84c-.33,0-.12-.27-.05-.4C192.49,323.56,192.66,324,192.74,323.84Z"/><path class="cls-8" d="M192.39,324.08c-.39-.15-.09.4-.16.59.21-.25.44.29.67-.09-.15.32.11.34-.25.85-.27,0-1.11-.46-1.29.32.72-.95.45-.83.85-1.94Z"/><path class="cls-6" d="M184,323.48l-.21.25Z"/><path class="cls-8" d="M195.1,324.5c0,.47.4-.11.24.35l-.31-.42C195,324.5,195.37,324.39,195.1,324.5Z"/><path class="cls-8" d="M194.55,324.74l.33,0Z"/><path class="cls-6" d="M192.49,324.75c-.21.06-.09.27-.16.33l-.11-.34Z"/><path class="cls-8" d="M195.7,326.73l-.76-.64h.13c0-.53-.37-.42-.08-.94A11.2,11.2,0,0,1,195.7,326.73Z"/><polygon class="cls-8" points="193.05 325.32 193.06 325.12 193.33 325.13 193.05 325.32"/><path class="cls-8" d="M194.63,325.61c.19.27,0,.86-.39,1-.46,0-1.37-.48-1.29.46l0-.47-.14.13c.11-.86-.67,0-.87.08.42-.31-.36-.75.17-.72v.07c0-.2.65.17.68-.3-.27,1.25.42-.31.76.71-.11-.4.54-.17.3-.65.34,0,.34,1.09.72.31-.65-.37.23-.65-.41-1.09Z"/><path class="cls-8" d="M192.49,325.88c-.29.32-.52-.29-.64-.36C192,325.79,192.44,325.62,192.49,325.88Z"/><path class="cls-8" d="M193.43,325.8a3.27,3.27,0,0,1-.41.05A1,1,0,0,1,193.43,325.8Z"/><path class="cls-8" d="M195.48,325.92l.32.15Z"/><path class="cls-8" d="M191,326.6l-.15.19.09-.39C191,326.4,191,326.53,191,326.6Z"/><path class="cls-8" d="M191.65,326.57c-.4,0-.23.52-.42.38S191.47,326.29,191.65,326.57Z"/><path class="cls-8" d="M195.4,327.25c.45.29-.44-.36-.54.23-.24-.41.17-.65.51-.7Z"/><path class="cls-8" d="M194.53,327.4l-.2.05c.07-.12.15-.32.28-.31S194.67,327.41,194.53,327.4Z"/><path class="cls-8" d="M193.55,327.21c-.08.19,0,.67-.2,1.05.22-.38-.42-.69-.14-1.07l0,.34Z"/><path class="cls-8" d="M192.33,327.47c-.48.24.22.81-.44.78-.38-.42-1-.13-1.1-.6C191.82,328.31,191.17,326.88,192.33,327.47Z"/><path class="cls-6" d="M191.92,327.78c-.33-.08-.25-.28,0-.33C191.86,327.58,192.05,327.72,191.92,327.78Z"/><polygon class="cls-8" points="193.77 327.89 193.99 327.57 193.91 327.83 193.77 327.89"/><polygon class="cls-8" points="192.51 327.82 192.73 327.56 192.85 327.7 192.51 327.82"/><polygon class="cls-8" points="194.68 328.27 194.76 328.08 194.82 328.21 194.68 328.27"/><path class="cls-8" d="M194,328.56c-.26-.08,0-.52.16-.38Z"/><path class="cls-8" d="M195.65,328.73c-.2,0-.46-.1-.6.1C195.14,328.43,195.34,328.31,195.65,328.73Z"/><path class="cls-8" d="M191,329.33c0-.07.21-.12.15-.26-.22.32.47,1.09-.19.92-.05-.33.1-.59-.21-.94Z"/><rect class="cls-8" x="192.13" y="329.23" width="0.27" height="0.07" transform="translate(-147.36 502.58) rotate(-86.75)"/><path class="cls-6" d="M188.44,330.38l.11.54a1.92,1.92,0,0,0-.48-1c-.75.29-.07.06-.78-.31-.83.62-.54,1.3-.65,2,.74,0,.41,1.08,1.09.73.16-.39.58-.77.67-1.16a3,3,0,0,1-.88,1.41,1.75,1.75,0,0,1-1-1.59,1.48,1.48,0,0,1,.89-1.48A1.13,1.13,0,0,1,188.44,330.38Z"/><path class="cls-8" d="M193.18,330.12c0,.33-.06-.07-.12-.14A.14.14,0,0,1,193.18,330.12Z"/><path class="cls-8" d="M194.78,330.07l.05.27Z"/><path class="cls-6" d="M217.92,335c1.35.81.82,3,1,4.38a10,10,0,0,1-2.38,5.52c-1.78.89-3.1,3.08-5.26,3.69,0,.8-.6,1.1-.44,1.84-.54.23-.59,1-1.23.59-1.19-1.39,1.18-2.13.46-3.5s-1.89-3-1.6-4.54a6.21,6.21,0,0,0,1.72-2.17,16.22,16.22,0,0,0-.19-3.74c.08-1.45,2-1.68,2.55-2.65.89-.48,1.8-.16,2.63-.78C216.24,334.09,217.32,333.88,217.92,335Z"/><path class="cls-6" d="M146.67,331.47a3.16,3.16,0,0,1-1,2.21c-.65-.31-1.29-.68-1.25-1.47.23-.52.33-1.18.88-1.48A1.07,1.07,0,0,1,146.67,331.47Z"/><path class="cls-8" d="M145,331.24l-.17.53Z"/><path class="cls-8" d="M146.29,332.25l-.06-.14a2.85,2.85,0,0,1-.72,1c-.4.05-.35-.88-.71-.37-.25-.35.51-.83.67-1.29.2,0,.45.22.59.1l-.05-.27C146.48,331.26,146.17,332,146.29,332.25Z"/><polygon class="cls-8" points="191.69 336.42 191.98 336.1 192.3 336.32 191.69 336.42"/><path class="cls-8" d="M191.61,336.61l-.16.59Z"/><path class="cls-8" d="M193.3,338.5c-.26-.14-.11-.33,0-.53Z"/><path class="cls-8" d="M190.58,338.48c-.06-.13-.49.31-.46-.09Z"/><path class="cls-8" d="M192.55,338.86a.18.18,0,0,0,.33.09c0,.59-.79-.18-.7.49.23-.45.85.31.72.37-.47,0-1.38-.34-1.09.41,0,.13.25-.92-.37-.62v.2c-.23-.55.15-.33.63-.43l-.26-.15C192.08,339,192.28,339.05,192.55,338.86Z"/><path class="cls-8" d="M190.93,339.37c-.27-.08,0-.4.16-.52Z"/><path class="cls-8" d="M190.45,339.61a.36.36,0,0,1-.54,0C190.05,339.58,190.4,339.21,190.45,339.61Z"/><polygon class="cls-8" points="189.82 340.1 189.76 339.97 190.09 340.05 189.82 340.1"/><polygon class="cls-8" points="192.19 340.5 192.41 340.25 192.45 340.59 192.19 340.5"/><path class="cls-8" d="M190.86,340.5c0,.13-.14.12-.21.25l.36-.51C191.07,340.44,191.12,340.71,190.86,340.5Z"/><rect class="cls-8" x="192.99" y="340.42" width="0.27" height="0.13" transform="translate(-157.75 514.03) rotate(-86.75)"/><path class="cls-8" d="M191.45,340.6l.33.08Z"/><path class="cls-8" d="M190,340.78l.06.2Z"/><path class="cls-8" d="M190.55,341.34l0,.27c-.27.05-.38-.42-.65-.23C190.18,340.72,190.27,341.59,190.55,341.34Z"/><path class="cls-8" d="M191.41,341.39l.18.28Z"/><polygon class="cls-8" points="186.36 344.76 186.64 344.58 186.56 344.78 186.36 344.76"/><rect class="cls-8" x="182.42" y="344.95" width="0.33" height="0.07" transform="translate(-172.18 507.75) rotate(-86.75)"/><polygon class="cls-8" points="183.76 346.08 183.72 345.68 183.9 345.95 183.76 346.08"/><path class="cls-6" d="M173.33,345.82c1.67,1.09,2,3.38,1.77,5.22a15.86,15.86,0,0,1-2.27,3.67c-.77.62-1.54,0-2.29.47-.45-.36-.46-1.29-1.26-1.4-.49-1.76-1.84-3.83-.6-5.76C169,345.91,171.44,345.12,173.33,345.82Z"/><path class="cls-6" d="M134.1,350.12c.18,1.54.34,3.34-.53,4.69a3.51,3.51,0,0,1-3.08,1.42c-.14-1-1.51-1.41-1.72-2.42a5.08,5.08,0,0,1,.66-3.36c1-.87,2.34-2.59,3.94-1.57Z"/><polygon class="cls-8" points="171.57 353.31 171.52 353.04 171.59 353.04 171.57 353.31"/><path class="cls-8" d="M131.49,351.63c-.21.19-.68.16-.43.51C130.82,351.59,131,351.54,131.49,351.63Z"/><path class="cls-8" d="M131.27,353.08l.25.28Z"/></g><rect class="cls-7" x="260.3" y="173.39" width="27.01" height="14.18" transform="translate(-53.94 169.22) rotate(-31.42)"/><g class="cls-9"><path class="cls-6" d="M260.72,185c-.15,0-.28-.24-.12-.34-.06.26.15.15.26.14l0-.06c.1,0,.15.18.21.12-.15,0-.25.27-.06.33s.16,0,.25-.11l-.1,0c.06.06.28,0,.28.13.4,0,.4-.59.66-.8-.17.21,0,.37-.24.57a1.29,1.29,0,0,1-.92.34C260.83,185.14,260.45,185,260.72,185Z"/><path class="cls-6" d="M261,184.08c.13-.1.43-.14.51,0-.3-.28-.34.4-.6.15a3.34,3.34,0,0,1-.38.37C260.79,184.43,260.73,184.06,261,184.08Z"/><path class="cls-6" d="M261.65,184.05a.2.2,0,0,1,.18-.11l-.18.19S261.79,184.07,261.65,184.05Z"/><path class="cls-6" d="M262,184.15c0,.14-.11.06-.24.09Z"/><path class="cls-6" d="M261.36,181.49a1.08,1.08,0,0,1,.7-.62l.48-.05c0,.16,0,.28.17.16a.23.23,0,0,0,0-.3c.11,0,.14-.21.29-.12a1,1,0,0,1-.14-1h.23c-.16-.54.39-.49.55-.9.28-.83.65,0,.94-.82,0,.17-.07.48.23.4s.06-.41.29-.52c.24.19-.37.83.28.7.21-.14.48-.07.7-.1.35-.54,1.19-.49,1.37-1.23-.13.3.21.26.34.38.37-.06.43-.41.67-.58.12.12.27,0,.33.18a6.7,6.7,0,0,0-1.14.94c.11.21,0,.5.33.49.65,0,1.51.23,2,0-1,.49-1.76,1.18-2.68,1.71.18.53.56-.29.72,0-.27.23-.05.47,0,.75l-.86.55c0,.14.06.18.08.29-.21.42-.89,0-1,.58-.36.12-.65-.15-1,.06,0,.32.3-.08.5,0-.06.16-.37.08-.35.32.28.14.74-.14.85.26-.28,0-.1.33-.33.39,0,.23.25.12.34,0,0,.23-.33.13-.39.29s.39-.09.26.18a.44.44,0,0,0-.35.19c.07.15.24,0,.32.08-.7.2-1.29.88-2.1.69a1.24,1.24,0,0,1-.79-.57c0-.26-.19-.76.15-.92a1.21,1.21,0,0,1,.47-.6c-.15,0-.4-.08-.42-.29.39-.24.8.2,1.22,0-.22-.13-.49-.4-.74-.3-.26-.18-.19-.67-.58-.58a.39.39,0,0,0,.06-.18,3.22,3.22,0,0,0-.37-.12,1,1,0,0,1-1.09.77A.51.51,0,0,1,261.36,181.49Z"/><path class="cls-8" d="M261.45,181.43c.23,0,.17-.15.3-.3v.07c.25.05.06-.38.37-.2.06,0-.14.06,0,.15s0-.15.14-.09a1,1,0,0,0-.12.27c.13.09.16.22.27.37v-.18c0,.13.11.15.19.24-.15.15-.32.11-.53.25.21-.14-.13,0-.16-.19.07.16-.11.24-.16.15l.05,0-.14-.11,0,0c-.3-.16.21,0,0-.21l-.18.11Z"/><path class="cls-8" d="M261.84,181.64c0-.08-.07,0-.11-.11s0,0,0-.07c.24,0,0,.19.18.25a.19.19,0,0,1-.18.11C261.72,181.68,261.78,181.74,261.84,181.64Z"/><path class="cls-8" d="M262.09,181.76s-.2.07-.14.13l.06-.21Z"/><path class="cls-8" d="M264,184.56c.26,0,.29.09.63.08,0-.11-.18-.14,0-.22l0,.09c.33.18.18-.43.52-.27l-.05,0c.18-.11.17,0,.38-.19-.15.12-.08.2,0,.3-.21,0-.28.34-.51.17l.08-.12c-.24,0-.41.42-.52.39l0-.07c-.19,0-.54-.11-.51.09C264,184.69,264,184.58,264,184.56Z"/><polygon class="cls-8" points="262.54 181.65 262.44 181.61 262.54 181.53 262.54 181.65"/><path class="cls-8" d="M264.25,184.3l-.06,0c.21-.22.06.22.26.19C264.31,184.43,264.24,184.48,264.25,184.3Z"/><polygon class="cls-8" points="264.45 184.35 264.55 184.39 264.46 184.39 264.45 184.35"/><polygon class="cls-8" points="264.91 184.58 264.83 184.68 264.83 184.56 264.91 184.58"/><polygon class="cls-8" points="264.9 184.12 264.82 184.19 264.85 184.15 264.9 184.12"/><polygon class="cls-8" points="264.92 183.99 264.77 184.1 264.83 184.04 264.92 183.99"/><path class="cls-8" d="M265.14,184.32l-.05-.09Z"/><polygon class="cls-8" points="264.97 183.96 265.01 183.91 264.99 184.07 265.02 183.95 264.97 183.96"/><path class="cls-8" d="M265,183.8l.17-.12Z"/><polygon class="cls-8" points="265.5 184.34 265.46 184.39 265.45 184.38 265.5 184.34"/><polygon class="cls-8" points="265.43 183.9 265.26 183.95 265.25 183.93 265.43 183.9"/><path class="cls-8" d="M265.57,184.3c.09-.06,0,0,0,.06S265.55,184.31,265.57,184.3Z"/><path class="cls-8" d="M265.71,184v-.12l-.15.08c.09-.22.15,0,.25,0-.14.06-.2.15-.35.06A.33.33,0,0,0,265.71,184Z"/><path class="cls-8" d="M265.38,183.78c.08,0,0,0,0,.07S265.4,183.82,265.38,183.78Z"/><path class="cls-8" d="M265.59,183.6c.1,0,.06,0,0,.05S265.58,183.63,265.59,183.6Z"/><polygon class="cls-6" points="267.94 182.81 267.95 182.9 267.9 182.83 267.94 182.81"/><rect class="cls-8" x="266.97" y="181.08" width="0.06" height="0.02" transform="matrix(0.85, -0.52, 0.52, 0.85, -55.25, 165.76)"/><path class="cls-8" d="M267.42,178.35h.06c-.05,0-.1.13-.15.12S267.43,178.41,267.42,178.35Z"/><path class="cls-8" d="M267.87,178.73s.06.14.14.11C267.91,179,267.89,178.84,267.87,178.73Z"/><path class="cls-8" d="M268.28,178.73v0Z"/><path class="cls-6" d="M270.48,177.87c.6-.14.87-.65,1.29-.93a.87.87,0,0,1,.72-.74c-.06.09-.38.14-.27.32.31-.29.19.15.5-.19l-.1-.16c.46.11.87.33,1.31-.11a6.84,6.84,0,0,1,1.1-.6c.19-.09.16.07.19.2-.6.62-1.66.72-2,1.42-.31.46-.68-.1-1,.15,0,.06.07,0,.11,0-.21.05.16.29-.11.26.32,0,.66.11.93-.08a19.82,19.82,0,0,0-3.08,1C270.07,178.17,270.46,178.16,270.48,177.87Z"/><rect class="cls-10" x="271.17" y="177.62" width="0.1" height="0.02" transform="translate(-52.83 167.46) rotate(-31.42)"/><path class="cls-6" d="M273,180.05c.31-.34.73-.13,1.11-.19,0,.17-.2.24-.2.39,0-.09,0-.12-.07-.23l0,0c.06,0,.09-.05.09-.1a.69.69,0,0,0-.54-.09l-.05.18,0-.16c-.16.1-.37.2-.43.38.15,0,.34.19.25.37C273,180.55,272.74,180.26,273,180.05Z"/><path class="cls-10" d="M271.52,177.29c.09.19-.17.05-.15.24C271.26,177.4,271.54,177.33,271.52,177.29Z"/><path class="cls-6" d="M273.73,180.44c-.15,0-.25.23-.44.19C273.55,180.65,273.47,180.4,273.73,180.44Z"/><path class="cls-10" d="M271.83,177.27l0,.09c.11-.1.21.16.3-.06-.05,0-.05-.05-.09-.07.23,0,.1.28,0,.3s-.2-.05-.28-.05,0,.26-.18.18C271.58,177.59,271.78,177.44,271.83,177.27Z"/><polygon class="cls-6" points="273.87 180.3 273.77 180.42 273.77 180.34 273.87 180.3"/><path class="cls-10" d="M271.9,177.28l0-.09Z"/><polygon class="cls-10" points="272.25 176.8 272.22 176.96 272.21 176.89 272.25 176.8"/><path class="cls-10" d="M272.47,177.29c.09.1.2-.07.18.09S272.53,177.23,272.47,177.29Z"/><path class="cls-10" d="M272.62,176.93c.05.17,0,.07-.18.19Z"/><polygon class="cls-10" points="272.19 176.54 272.08 176.53 272.13 176.53 272.19 176.54"/><path class="cls-10" d="M272.39,176.71l0,0,.13-.19c.22.24-.14.17-.2.28S272.31,176.74,272.39,176.71Z"/><polygon class="cls-10" points="272.79 177.05 272.67 177.1 272.72 177.02 272.79 177.05"/><polygon class="cls-10" points="272.78 176.4 272.7 176.42 272.75 176.34 272.78 176.4"/><path class="cls-6" d="M273.56,177c.29-.17.58-.37.93-.2.09.1.28.1.34.27a1.05,1.05,0,0,1-.52.68.77.77,0,0,1-.72,0C273.29,177.5,273.45,177.21,273.56,177Z"/><path class="cls-6" d="M275.4,179.27c.09-.08.24,0,.33.07a.32.32,0,0,1-.09.33C275.37,179.83,275.17,179.42,275.4,179.27Z"/><path class="cls-10" d="M274.17,177.31l0,.2C274.14,177.38,273.94,177.45,274.17,177.31Z"/><polygon class="cls-10" points="273.63 176.39 273.51 176.42 273.52 176.36 273.63 176.39"/><path class="cls-10" d="M274.11,177.17c-.08,0,.06-.38-.17-.24.07-.13.31,0,.31-.06l-.11.14c.16.07.16-.13.32,0l0,.17c-.2-.14-.1-.13-.31,0Z"/><path class="cls-10" d="M274.48,177.24l.09-.25c.1.21-.19.26,0,.41-.1-.08-.29.13-.33-.06C274.38,177.25,274.29,177.21,274.48,177.24Z"/><polygon class="cls-10" points="273.9 176.15 273.81 176.23 273.86 176.15 273.9 176.15"/><rect class="cls-10" x="274" y="176.21" width="0.1" height="0.02" transform="translate(-51.68 168.73) rotate(-31.42)"/><path class="cls-6" d="M279,182.12c1-.31,1.85.31,2.8.49a.25.25,0,0,1-.13.35c-.44.12-.83-.27-1.31-.08a2.12,2.12,0,0,1-1.5-.46A.23.23,0,0,1,279,182.12Z"/><path class="cls-10" d="M274.86,175.76c-.05,0-.11-.08,0-.12s.25.21,0,.26Z"/><path class="cls-10" d="M275,175.53c.27,0-.08.1.09.22A.12.12,0,0,1,275,175.53Z"/><path class="cls-6" d="M279,179.21c.13-.23.46-.16.65-.1-.25.15-.4,0-.54.08v0c-.08,0-.12.05-.1.09s.2,0,.24.14c-.15,0,0,.16-.18.19.06.18.31,0,.41.07s.28-.3.18-.58l.3,0c.05.21-.24.17-.21.42a.78.78,0,0,1-.77.23A.31.31,0,0,1,279,179.21Z"/><path class="cls-11" d="M279.06,179.41c0,.07,0,.15-.07.14Z"/><path class="cls-6" d="M284.67,178.82c.28-.37.71-.11,1-.17-.22.16-.26.45-.54.55s-.34.09-.47,0S284.66,178.93,284.67,178.82Z"/><path class="cls-8" d="M284.8,178.84a1.38,1.38,0,0,0,.52-.19c.22,0-.05.32.18.1,0,.1-.22.16-.19.32-.18-.16-.35,0-.44.09C284.71,179.06,284.82,179,284.8,178.84Z"/><path class="cls-6" d="M287.58,178.52a.83.83,0,0,1,.81-.07c.05.19-.16.34-.31.48-.18,0-.31.09-.49,0A.3.3,0,0,1,287.58,178.52Z"/><path class="cls-8" d="M287.76,178.86c.06-.11-.17-.09,0-.21l.06,0s0,.2-.08.18Z"/><path class="cls-8" d="M288,178.81c0,.05-.06.14-.11.07Z"/><path class="cls-8" d="M288.05,178.44c-.16.26.27,0,.19.24l-.1-.08v0c-.13,0-.17-.12-.2-.2Z"/><path class="cls-6" d="M287.22,180.08c.16-.1.55-.22.59,0s-.21.3-.38.33a.41.41,0,0,1-.29-.07C287.05,180.28,287.14,180.15,287.22,180.08Z"/><path class="cls-8" d="M287.49,180.36c0-.12-.16-.1-.2-.2l.2-.12c-.2.24.21-.06.21.19s-.11.14-.29.17Z"/></g><rect class="cls-7" x="329.48" y="64.69" width="17.45" height="33.25" transform="translate(238.73 414.63) rotate(-86.9)"/><g class="cls-9"><path class="cls-6" d="M321.8,76.74c-.15-.11-.1-.45.13-.43-.25.22,0,.26.16.31v-.07c.1.08,0,.28.14.26-.17-.08-.44.11-.29.3s.17.08.33.06l-.07-.1c0,.1.29.17.18.32.45.23.82-.32,1.23-.35-.31.09-.3.35-.64.4a1.56,1.56,0,0,1-1.17-.29C321.79,77,321.5,76.59,321.8,76.74Z"/><path class="cls-6" d="M322.74,76.07c.21,0,.53.16.55.31-.1-.49-.63.17-.71-.27a4.4,4.4,0,0,1-.65.12C322.24,76.25,322.44,75.82,322.74,76.07Z"/><path class="cls-6" d="M323.39,76.46a.23.23,0,0,1,.25,0l-.31.06C323.33,76.49,323.51,76.57,323.39,76.46Z"/><path class="cls-6" d="M323.65,76.79c-.13.12-.15,0-.3-.07Z"/><path class="cls-6" d="M324.88,73.66a1.35,1.35,0,0,1,1.14-.14l.52.28c-.13.15-.14.33.06.29a.3.3,0,0,0,.18-.33c.12.06.28-.11.38.08a1.17,1.17,0,0,1,.57-1.13l.23.17c.21-.66.73-.22,1.18-.53.86-.65.68.42,1.53-.18-.14.18-.41.44-.05.57s.35-.37.66-.33c.11.37-1,.59-.21.92.31,0,.53.26.78.37.74-.29,1.55.34,2.26-.29-.35.22,0,.42.06.63.43.2.73-.12,1.09-.13,0,.21.3.15.21.43a7,7,0,0,0-1.81.16c0,.28-.31.52,0,.72.67.44,1.37,1.28,2,1.37-1.3-.18-2.6,0-3.9-.14-.19.66.76.09.71.53-.44,0-.38.44-.55.74l-1.26,0c-.13.12-.06.23-.12.35-.51.28-.92-.59-1.44-.13-.45-.12-.56-.59-1-.62-.23.32.35.12.46.39-.16.12-.42-.18-.57.07.19.34.86.38.68.86-.27-.2-.32.26-.6.17-.12.25.16.29.32.28-.17.22-.43-.1-.6,0,0,.2.46.18.14.36a.58.58,0,0,0-.49-.05c0,.21.25.14.27.3-.86-.28-1.93,0-2.61-.76a1.47,1.47,0,0,1-.4-1.13c.19-.25.33-.91.79-.83a1.55,1.55,0,0,1,.89-.29c-.12-.13-.34-.35-.23-.58.57,0,.68.76,1.27.82-.14-.29-.21-.76-.55-.83-.13-.37.28-.81-.17-1a.49.49,0,0,0,.18-.14c-.09-.19-.17-.19-.28-.38a1.21,1.21,0,0,1-1.65,0A.63.63,0,0,1,324.88,73.66Z"/><path class="cls-8" d="M325,73.67c.25.14.29,0,.53-.1l-.06.07c.22.22.33-.34.51.06.08,0-.18,0-.13.12s.13-.12.2,0a.9.9,0,0,0-.32.19,1.7,1.7,0,0,1,0,.56l.12-.2c-.11.13,0,.24,0,.39-.26,0-.41-.12-.72-.11.31,0-.12-.11,0-.32,0,.21-.27.17-.26,0H325l-.07-.21H325c-.18-.37.23.14.17-.2h-.26Z"/><path class="cls-8" d="M325.26,74.14c0-.1-.07,0,0-.18.07.08,0,0,.06-.07.22.19-.14.2,0,.38a.23.23,0,0,1-.26,0C325.11,74.11,325.13,74.22,325.26,74.14Z"/><path class="cls-8" d="M325.43,74.44s-.26-.07-.24,0l.22-.17Z"/><path class="cls-8" d="M325.36,78.58c.27.17.24.29.59.52.08-.1-.09-.26.14-.23L326,79c.2.42.48-.31.71.09l0-.08c.26,0,.17.11.51.08-.23,0-.21.14-.17.32-.2-.16-.52.16-.63-.19l.15-.06c-.27-.12-.7.14-.8,0l.08,0c-.2-.11-.46-.49-.57-.26C325.32,78.76,325.43,78.66,325.36,78.58Z"/><polygon class="cls-8" points="325.96 74.65 325.88 74.54 326.04 74.52 325.96 74.65"/><path class="cls-8" d="M325.85,78.53l-.05-.06c.36-.08-.09.26.13.37C325.81,78.71,325.71,78.7,325.85,78.53Z"/><polygon class="cls-8" points="326.02 78.72 326.09 78.82 325.99 78.77 326.02 78.72"/><polygon class="cls-8" points="326.32 79.27 326.17 79.32 326.25 79.19 326.32 79.27"/><polygon class="cls-8" points="326.63 78.8 326.5 78.82 326.56 78.8 326.63 78.8"/><polygon class="cls-8" points="326.74 78.68 326.51 78.69 326.61 78.67 326.74 78.68"/><path class="cls-8" d="M326.74,79.17v0Z"/><polygon class="cls-8" points="326.82 78.68 326.9 78.66 326.76 78.81 326.87 78.71 326.82 78.68"/><path class="cls-8" d="M327,78.56h0Z"/><polygon class="cls-8" points="327.09 79.44 327.01 79.47 327.01 79.44 327.09 79.44"/><polygon class="cls-8" points="327.32 78.94 327.12 78.88 327.12 78.85 327.32 78.94"/><path class="cls-8" d="M327.19,79.45c.13,0,0,0,0,.07S327.16,79.45,327.19,79.45Z"/><path class="cls-8" d="M327.53,79.24l.09-.13h-.21c.24-.17.18.06.22.22-.18,0-.31,0-.4-.18A.47.47,0,0,0,327.53,79.24Z"/><path class="cls-8" d="M327.35,78.79c.1,0,0,0,0,.07S327.35,78.84,327.35,78.79Z"/><path class="cls-8" d="M327.69,78.76c.13,0,.05,0,0,0S327.66,78.78,327.69,78.76Z"/><polygon class="cls-6" points="330.63 79.58 330.57 79.68 330.58 79.58 330.63 79.58"/><rect class="cls-8" x="330.86" y="77.15" width="0.03" height="0.08" transform="translate(235.92 403.41) rotate(-86.9)"/><path class="cls-8" d="M333.21,74.7s.05,0,.05.06-.18.07-.23,0S333.18,74.78,333.21,74.7Z"/><path class="cls-8" d="M333.4,75.41s0,.18.07.21C333.29,75.66,333.35,75.54,333.4,75.41Z"/><path class="cls-8" d="M333.83,75.69l0,0Z"/><path class="cls-6" d="M336.65,76.36c.7.27,1.34-.06,2,0a1.06,1.06,0,0,1,1.25-.24c-.14,0-.49-.13-.5.13.52-.08.09.28.63.16l0-.23c.39.43.64.93,1.4.79a8.73,8.73,0,0,1,1.53.16c.26,0,.12.19.06.34-1,.2-2.19-.43-3.06,0-.63.25-.62-.58-1.13-.55,0,.07.07,0,.12,0-.25-.09,0,.41-.29.19.35.18.59.58,1,.57a24.44,24.44,0,0,0-3.83-1.13C336,76.38,336.43,76.63,336.65,76.36Z"/><rect class="cls-10" x="337.56" y="76.56" width="0.03" height="0.13" transform="translate(242.81 409.57) rotate(-86.9)"/><path class="cls-6" d="M337.7,80.33c.54-.13.82.38,1.25.58-.11.17-.37.11-.48.26.11-.07.09-.13.1-.28v0c.05,0,.13,0,.16,0-.09-.21-.34-.46-.49-.47l-.16.15.08-.18a1.11,1.11,0,0,0-.7.09c.13.14.21.43,0,.54C337.28,80.79,337.28,80.36,337.7,80.33Z"/><path class="cls-10" d="M338.11,76.49c0,.25-.2-.06-.32.14C337.78,76.42,338.11,76.54,338.11,76.49Z"/><path class="cls-6" d="M338.16,81.23c-.17-.09-.41,0-.59-.11C337.82,81.31,337.92,81,338.16,81.23Z"/><path class="cls-10" d="M338.43,76.69l-.08.07c.18,0,.11.31.35.15-.05,0,0-.08,0-.13.25.14-.1.35-.22.29.08-.12-.17-.19-.25-.24,0,.12-.17.27-.31.06C338,76.84,338.27,76.83,338.43,76.69Z"/><polygon class="cls-6" points="338.39 81.19 338.21 81.23 338.27 81.16 338.39 81.19"/><path class="cls-10" d="M338.51,76.74l.08-.07Z"/><polygon class="cls-10" points="339.19 76.5 339.05 76.64 339.08 76.57 339.19 76.5"/><path class="cls-10" d="M339.08,77.16c0,.15.25.06.11.21C339,77.33,339.18,77.14,339.08,77.16Z"/><path class="cls-10" d="M339.48,76.9c-.07.2-.08,0-.32.06Z"/><polygon class="cls-10" points="339.31 76.19 339.21 76.11 339.26 76.14 339.31 76.19"/><path class="cls-10" d="M339.4,76.51v0l.26-.09c.06.39-.26.06-.39.13C339.31,76.6,339.29,76.47,339.4,76.51Z"/><polygon class="cls-10" points="339.57 77.13 339.41 77.1 339.52 77.05 339.57 77.13"/><polygon class="cls-10" points="340.01 76.46 339.91 76.43 340.02 76.39 340.01 76.46"/><path class="cls-6" d="M340.39,77.61c.41,0,.85,0,1.08.45,0,.16.22.29.16.5a1.34,1.34,0,0,1-1,.33,1,1,0,0,1-.72-.53C339.75,77.94,340.13,77.76,340.39,77.61Z"/><path class="cls-6" d="M340.66,81.21c.15,0,.25.17.29.3s-.16.22-.32.26C340.24,81.75,340.33,81.19,340.66,81.21Z"/><path class="cls-10" d="M340.79,78.36l-.12.22C340.71,78.4,340.45,78.34,340.79,78.36Z"/><polygon class="cls-10" points="340.88 77.05 340.73 76.99 340.79 76.94 340.88 77.05"/><path class="cls-10" d="M340.82,78.18c-.07-.08.33-.34,0-.36.16-.1.32.2.35.15L341,78c.12.19.26,0,.32.23l-.16.14c-.11-.29,0-.21-.32-.22Z"/><path class="cls-10" d="M341.14,78.51l.27-.2c0,.28-.37.14-.28.43-.05-.16-.38-.08-.3-.3C341,78.45,341,78.34,341.14,78.51Z"/><polygon class="cls-10" points="341.32 77 341.17 77.01 341.27 76.97 341.32 77"/><rect class="cls-10" x="341.42" y="77.11" width="0.03" height="0.13" transform="translate(245.92 413.93) rotate(-86.9)"/><path class="cls-6" d="M342.27,86.57c1.22.38,1.67,1.61,2.5,2.45,0,.23-.22.27-.38.27-.53-.19-.65-.86-1.26-1a2.6,2.6,0,0,1-1.2-1.5A.28.28,0,0,1,342.27,86.57Z"/><path class="cls-10" d="M342.57,77.27c-.08,0-.07-.16,0-.15s.11.39-.16.27Z"/><path class="cls-10" d="M342.91,77.16c.25.22-.15,0-.06.28A.15.15,0,0,1,342.91,77.16Z"/><path class="cls-6" d="M344.39,83.68c.29-.14.58.16.72.34-.36,0-.42-.25-.6-.29l0,0c-.07-.06-.15,0-.16,0s.2.14.14.31c-.18-.06-.14.15-.31.06-.06.23.3.25.37.36,0-.08.49-.1.59-.46l.32.17c-.09.25-.36,0-.5.28a1,1,0,0,1-.94-.3C344,83.89,344.15,83.74,344.39,83.68Z"/><path class="cls-11" d="M344.27,83.9c0,.08-.06.18-.16.09Z"/><path class="cls-6" d="M350.37,87.22c.55-.18.81.37,1.18.55-.33,0-.58.28-.93.18-.18-.09-.41-.15-.45-.36S350.29,87.32,350.37,87.22Z"/><path class="cls-8" d="M350.5,87.33a1.76,1.76,0,0,0,.66.16c.22.17-.28.29.11.24-.1.07-.33,0-.42.18-.06-.29-.35-.25-.5-.21C350.25,87.49,350.44,87.45,350.5,87.33Z"/><path class="cls-6" d="M353.54,89a1,1,0,0,1,.88.48c-.09.23-.4.24-.66.28-.17-.14-.38-.13-.47-.39A.35.35,0,0,1,353.54,89Z"/><path class="cls-8" d="M353.49,89.41c.13-.07-.12-.21.12-.23l0,.08s-.14.2-.21.12S353.47,89.41,353.49,89.41Z"/><path class="cls-8" d="M353.79,89.55s-.16.1-.15,0Z"/><path class="cls-8" d="M354.07,89.18c-.34.16.3.17,0,.39l0-.16,0,0c-.15-.06-.09-.24-.06-.34Z"/><path class="cls-6" d="M352.09,90.27c.23,0,.71.17.56.47s-.42.16-.62.07-.2-.14-.24-.27S352,90.29,352.09,90.27Z"/><path class="cls-8" d="M352.16,90.74c.11-.1-.09-.21-.05-.34h.28c-.37.11.25.1.08.34s-.21.07-.41,0Z"/></g><rect class="cls-7" x="408.13" y="278.33" width="106.54" height="38.3" transform="translate(-22.71 556.38) rotate(-60.95)"/><g class="cls-12"><path class="cls-6" d="M484.69,249.48c1.74,1.18,3.11,3.39,4,4.53.15.5-.51.55-.32,1,1.43.79.42,2.42,1.86,3-.66,1.19.2,3-.19,4.47a2.87,2.87,0,0,0,1.48,1.45c-.37,1-1.46-.18-2.21.23,0,3.34-2.66,5.91-2.55,9.09-.4-.22-.42-.75-.65-1.08-1-.13-.56.83-1,1.42a3.14,3.14,0,0,0,2,2.45c-.31.55-1.3.84-1.73.29l-2.51,4.33a13.16,13.16,0,0,1,.7,2.68c-1.43.14.08-1.83-1.51-1.78a1.49,1.49,0,0,0-.22,2.27c-1,1.22-4.05,1.29-2.72,3.59.34,2.38-.83,5.06-1.95,7.25A16.64,16.64,0,0,1,479,288.9l-1.06,1c-.18-.62.9-.85,1.05-1.7-.16.11-1.09-.09-1.49.63.11.37.48.26.73.19-.25.07-.38.31-.6.5-1.44-.59.49-1.81-.61-2.83l-1.43-.8c1-.16,1.89.53,2.94,0-.29-.79.25-2.15-1.06-2-1.11,1.25-3.81-.25-4.33.5-.63.38.64,1.09-.22,1.33-.68-1.41-2.91-.57-3.5-2.14.2-.73.95-1.14,1.58-1.52l-1.09-1.23a2.21,2.21,0,0,0,.44-2.67c-.4-.22-1,.08-1.29-.3-1.51-1.78.47-4.22-.25-5.55-.94.2-1.27,1.17-2,1.5,1.87-1.67-2-2.24.3-3.9-1.07-.69-2.12,1.95-3.07.28a1.85,1.85,0,0,1,1.9-.61c.21-.2-.09-.78-.32-1.11-.86,0-1.68,1.14-2.24.1a4.29,4.29,0,0,0,1.81-1.39c-1-.65.06-2.35-1.44-2.66-.52.75-2.08,1.13-2.41.22.58-1,3.65-.58,2.8-2.61.22-.4.1-1.3-.4-.95-1.22.88-2.77-.08-4.12.1.44-.59,2.32-1,3.51-1.07.31-1.49,2.15-1.82,2.86-3.09-.19-1.15-1.18-.87-2-1.43,2.62-.42,5.08-2.59,7.66-3.86l-.38-1.57c1.88.74,2.67-.49,4.53-.29.44-.59-.38-.63.05-1.22,1.18,1.07,2.19-.76,3.08.46l.41-.92c.57.84,2,.9,2.32-.06A2.62,2.62,0,0,0,484.69,249.48Z"/><polygon class="cls-8" points="473.74 252.14 474.03 251.99 473.9 252.23 473.74 252.14"/><path class="cls-8" d="M473.38,252.78l-.56-.11v.2l-.26-.66C472.53,252.82,473.16,252.24,473.38,252.78Z"/><path class="cls-8" d="M473,256.43c-.44-.14-.07-.25.13-.24A.14.14,0,1,1,473,256.43Z"/><path class="cls-8" d="M469.69,254.37c0,.2-.17.11-.29.15C469.44,254.44,469.54,254.08,469.69,254.37Z"/><polygon class="cls-8" points="469.9 255.11 470.01 254.55 470.17 254.63 469.9 255.11"/><path class="cls-8" d="M471,256.21c-.3-.58.14-.23.29-.15Z"/><path class="cls-8" d="M469.26,255.9c-.13,1-1.4.26-1.8,1,.59-.3,1.12-1.26.36-1.57C468.46,256.39,468.74,254.77,469.26,255.9Z"/><path class="cls-8" d="M470.5,257.21c-.36-.09.07-.48.2-.72C470.31,257,471,256.75,470.5,257.21Z"/><polygon class="cls-8" points="469.55 256.68 469.8 256.61 469.9 256.98 469.55 256.68"/><path class="cls-8" d="M469.19,256.59l-.33,0Z"/><path class="cls-8" d="M467.45,256.14l-.63-.35C467.2,255.48,467.38,255.9,467.45,256.14Z"/><path class="cls-8" d="M469.45,257.05c-.27.68-.24.8-.6.7.93-.73-1-.45-.25-.86l0,.08C468.79,257.3,469.13,256.87,469.45,257.05Z"/><path class="cls-8" d="M469.79,257.75l-.42.19Z"/><polygon class="cls-8" points="466.76 257.21 466.91 256.57 467.01 256.94 466.76 257.21"/><path class="cls-8" d="M468.51,258.19c.65-.06-.27.47.46.67-.85-.16-.76-.32-.69-1C468.44,257.94,468.55,258.11,468.51,258.19Z"/><polygon class="cls-8" points="467.09 257.92 467.46 257.81 467.45 258.02 467.09 257.92"/><polygon class="cls-8" points="469.56 259.29 469.43 259.53 469.45 258.92 469.43 259.32 469.56 259.29"/><path class="cls-8" d="M466.08,258.81c-.08,0-.13,0-.21,0l.19-.53Z"/><path class="cls-8" d="M467.83,259.79c-.08-.05.59,1.36-.37.83l.5-.14c-.26-.66-1.11.12-1.11.12l.64-.59,0,.13c-.2-.21.18-.52.27-.68C468,259.47,467.63,259.57,467.83,259.79Z"/><polygon class="cls-8" points="469.82 261.62 469.72 261.25 469.87 261.54 469.82 261.62"/><polygon class="cls-8" points="466 260.44 466.29 260.49 465.9 261 466 260.44"/><path class="cls-8" d="M464.42,260.49l.37.63Z"/><path class="cls-8" d="M467.3,262.61a4.25,4.25,0,0,1-.82.9C466.74,263.24,466.94,262.31,467.3,262.61Z"/><path class="cls-8" d="M465.38,262.69c.36.1.17-.32.42-.39l-.39.52Z"/><path class="cls-6" d="M489,276.42c-.06.49-.67.46-.74.22-.71-.4-.57-.84-.42-1.49C488.59,274.86,488.83,275.93,489,276.42Z"/><path class="cls-6" d="M485.91,287.94c0,1.46,1.62,2.88.43,4.09-.26.27-1-.17-1-.58-.44-2.21-1.84-5.49,1.06-6.59C486.86,285.66,486.39,287.06,485.91,287.94Z"/><path class="cls-6" d="M458.18,274.52c-.09.36-.82.37-1,.07C458.08,275.08,457.36,273.75,458.18,274.52Z"/><polygon class="cls-6" points="456.27 274.6 456.49 274.2 456.15 274.43 456.27 274.6"/><path class="cls-8" d="M472.44,283.89c-.36-.1-.82.17-1.13-.21C471.43,282.71,472.32,283.72,472.44,283.89Z"/><polygon class="cls-6" points="478.49 287.98 478.63 287.54 478.67 287.66 478.49 287.98"/><path class="cls-6" d="M465.28,285.54l-.48-.07c.28.06.5-.34.46-.47l-.37.11c-.49-.06.14-.44.28-.68C465.48,284.61,465.86,285.23,465.28,285.54Z"/><path class="cls-6" d="M464.28,285.09l-.3.35Z"/><path class="cls-6" d="M462.4,287.16c-.13-.7.35-.43.69-.86l-.15.64,1.63-.87A2.66,2.66,0,0,1,462.4,287.16Z"/><path class="cls-6" d="M461.1,285.19c-.83.37-1.32,1.45-2.31,1.73-.16-1,1.21-2.55,2.47-2.58Z"/><polygon class="cls-8" points="460.63 284.93 460.5 284.96 460.93 284.57 460.56 285.41 460.63 284.93"/><rect class="cls-6" x="477.37" y="294.88" width="0.46" height="0.09" transform="translate(-12.14 569.22) rotate(-60.95)"/><path class="cls-8" d="M460.06,285.76c-.07-.25-.27.47-.68.66C458.85,286.44,459.64,285,460.06,285.76Z"/><path class="cls-6" d="M476.36,294.81l-.1.57Z"/><path class="cls-6" d="M476.36,298.56a5.9,5.9,0,0,1,.72-1.48Z"/><path class="cls-6" d="M476.15,296.88l0,.41Z"/><path class="cls-6" d="M468.73,294.32c-.54-.72-1.45.55-1.43.87,0-.85.95-1.14,1.49-1.36Z"/><polygon class="cls-6" points="468.39 294.55 468.64 294.48 468.42 294.88 468.39 294.55"/><path class="cls-6" d="M476.11,299.77a.87.87,0,0,1-.65-.15c0,.28,1.07-.24.89-.85C476.5,299.06,476.28,299.45,476.11,299.77Z"/><path class="cls-6" d="M467.18,296.17c-.33,0-.41-.75-.17-.83l.11.37c.4.23.51-.34.64-.58C468.1,295.64,467.36,295.85,467.18,296.17Z"/><path class="cls-6" d="M467,299.09l-.45.06c-.47-.26-.24-.86,0-1.06C467.32,297.8,467.2,298.57,467,299.09Z"/><path class="cls-6" d="M453.21,297.15c-.24-.14.1-.36.19-.52C453.56,296.71,453.3,297,453.21,297.15Z"/><path class="cls-6" d="M452.6,298.06l-.42.39Z"/><path class="cls-6" d="M450.56,300.05c-.1.36-.7.13-.72-.2C449.84,299.85,450.53,299.72,450.56,300.05Z"/><path class="cls-6" d="M452.11,321.62c-.2,0-.26.27-.3.35l.75-1.35-.23,1.53Z"/><rect class="cls-6" x="450.04" y="324.22" width="0.73" height="0.18" transform="translate(-51.82 560.56) rotate(-60.95)"/><path class="cls-6" d="M451.71,325.14l-.29.15c-.15-.29.06-.48.35-.63A.49.49,0,0,1,451.71,325.14Z"/><path class="cls-6" d="M449.25,326.58l.23.14c-.23-.14-.49.14-.54.42l.77-1.76C449.68,326,449.43,326.06,449.25,326.58Z"/><path class="cls-6" d="M448.77,328.19c-.43-.55.91-.33.94-1.14C449.1,327.23,449.86,328.48,448.77,328.19Z"/><path class="cls-6" d="M440.25,346.15l-.22.4a.63.63,0,0,1-.19-1.15C440,345.61,440.3,345.87,440.25,346.15Z"/></g><rect class="cls-7" x="280.13" y="238.49" width="143.46" height="51.58" transform="translate(-46.38 451.52) rotate(-62.09)"/><g class="cls-12"><path class="cls-6" d="M381.92,199c2.37,1.54,4.28,4.48,5.56,6,.2.67-.68.76-.42,1.31,1.95,1,.64,3.25,2.6,4-.86,1.62.34,4.06-.15,6a3.91,3.91,0,0,0,2,1.91c-.47,1.42-2-.21-3,.37.12,4.5-3.42,8-3.19,12.31-.54-.28-.58-1-.9-1.44-1.31-.14-.74,1.13-1.31,1.94a4.27,4.27,0,0,0,2.72,3.24c-.4.76-1.72,1.17-2.31.44l-3.26,5.9a18.12,18.12,0,0,1,1,3.58c-1.92.23.06-2.46-2.08-2.35-.9.91-1.25,2.11-.24,3.07-1.29,1.66-5.41,1.84-3.56,4.9.52,3.19-1,6.83-2.43,9.81a22,22,0,0,1,2.32-7.78l-1.4,1.33c-.25-.83,1.18-1.17,1.37-2.32-.22.16-1.48-.09-2,.88.15.5.65.35,1,.24-.33.11-.5.43-.79.7-1.95-.76.61-2.45-.89-3.8l-1.95-1c1.37-.24,2.56.67,3.95-.12-.41-1,.29-2.9-1.47-2.72-1.47,1.72-5.15-.23-5.83.79-.83.53.9,1.45-.26,1.81-.94-1.89-3.93-.7-4.76-2.8.24-1,1.24-1.56,2.08-2.09l-1.5-1.63a3,3,0,0,0,.53-3.6c-.55-.29-1.32.13-1.75-.37-2.08-2.35.52-5.69-.48-7.46-1.27.29-1.69,1.6-2.63,2.07,2.47-2.3-2.72-3,.29-5.25-1.46-.91-2.8,2.67-4.12.45a2.48,2.48,0,0,1,2.54-.87c.28-.27-.14-1.05-.46-1.49-1.15.08-2.23,1.59-3,.2a5.75,5.75,0,0,0,2.4-1.92c-1.35-.85,0-3.18-2-3.55-.68,1-2.77,1.58-3.24.36.75-1.41,4.9-.87,3.7-3.59.29-.54.1-1.75-.57-1.27-1.62,1.22-3.72,0-5.54.25.57-.8,3.1-1.4,4.69-1.53.38-2,2.86-2.51,3.78-4.24-.3-1.54-1.62-1.13-2.75-1.87,3.52-.63,6.77-3.62,10.21-5.41l-.56-2.09c2.56.93,3.58-.74,6.1-.52.57-.81-.53-.83,0-1.64,1.61,1.41,2.93-1.08,4.15.53l.52-1.24c.8,1.11,2.71,1.16,3.13-.15A3.53,3.53,0,0,0,381.92,199Z"/><polygon class="cls-8" points="367.25 202.9 367.64 202.69 367.47 203.02 367.25 202.9"/><path class="cls-8" d="M366.79,203.77l-.76-.13v.28l-.36-.89C365.64,203.85,366.48,203.05,366.79,203.77Z"/><path class="cls-8" d="M366.4,208.7c-.6-.18-.1-.34.17-.33A.19.19,0,0,1,366.4,208.7Z"/><path class="cls-8" d="M361.86,206c0,.28-.22.16-.39.21C361.53,206.11,361.65,205.62,361.86,206Z"/><polygon class="cls-8" points="362.17 207.01 362.29 206.24 362.51 206.36 362.17 207.01"/><path class="cls-8" d="M363.61,208.46c-.42-.77.17-.32.39-.21Z"/><path class="cls-8" d="M361.32,208.08c-.14,1.31-1.87.4-2.39,1.37.78-.42,1.46-1.72.43-2.13C360.26,208.77,360.59,206.59,361.32,208.08Z"/><path class="cls-8" d="M363,209.82c-.49-.12.07-.65.24-1C362.76,209.54,363.65,209.18,363,209.82Z"/><polygon class="cls-8" points="361.73 209.13 362.06 209.03 362.22 209.53 361.73 209.13"/><path class="cls-8" d="M361.24,209l-.44.05Z"/><path class="cls-8" d="M358.9,208.46,358,208C358.54,207.58,358.8,208.13,358.9,208.46Z"/><path class="cls-8" d="M361.61,209.62c-.35.93-.3,1.09-.79,1,1.23-1-1.36-.58-.36-1.16l0,.11C360.73,210,361.18,209.39,361.61,209.62Z"/><path class="cls-8" d="M362.08,210.57l-.55.26Z"/><polygon class="cls-8" points="357.99 209.92 358.17 209.05 358.32 209.55 357.99 209.92"/><path class="cls-8" d="M360.37,211.18c.88-.09-.35.65.64.9-1.15-.2-1-.41-1-1.34C360.27,210.85,360.43,211.08,360.37,211.18Z"/><polygon class="cls-8" points="358.46 210.87 358.95 210.71 358.95 210.99 358.46 210.87"/><polygon class="cls-8" points="361.81 212.64 361.64 212.97 361.66 212.15 361.65 212.69 361.81 212.64"/><path class="cls-8" d="M357.11,212.09c-.11-.05-.16,0-.27,0l.24-.71Z"/><path class="cls-8" d="M359.5,213.36c-.11-.06.83,1.82-.47,1.14l.66-.21c-.36-.88-1.48.19-1.48.19l.84-.81.05.17c-.27-.28.24-.71.35-.92C359.72,212.92,359.23,213.08,359.5,213.36Z"/><polygon class="cls-8" points="362.23 215.78 362.08 215.28 362.29 215.67 362.23 215.78"/><polygon class="cls-8" points="357.06 214.28 357.45 214.35 356.94 215.05 357.06 214.28"/><path class="cls-8" d="M354.92,214.4l.53.83Z"/><path class="cls-8" d="M358.86,217.18a6,6,0,0,1-1.07,1.23C358.13,218,358.37,216.78,358.86,217.18Z"/><path class="cls-8" d="M356.28,217.34c.49.12.23-.44.56-.54l-.51.7Z"/><path class="cls-6" d="M388.41,235.19c-.07.65-.89.64-1,.3-1-.51-.8-1.11-.61-2C387.86,233.09,388.21,234.53,388.41,235.19Z"/><path class="cls-6" d="M384.59,250.77c.07,2,2.27,3.84.7,5.5-.34.37-1.42-.2-1.41-.75-.64-3-2.62-7.35,1.25-8.9C385.82,247.68,385.23,249.58,384.59,250.77Z"/><path class="cls-6" d="M346.91,233.45c-.12.49-1.1.52-1.32.13C346.79,234.21,345.79,232.43,346.91,233.45Z"/><polygon class="cls-6" points="344.33 233.61 344.62 233.06 344.17 233.38 344.33 233.61"/><path class="cls-8" d="M366.35,245.69c-.49-.12-1.1.24-1.52-.26C365,244.12,366.19,245.46,366.35,245.69Z"/><polygon class="cls-6" points="374.61 251.03 374.8 250.43 374.84 250.6 374.61 251.03"/><path class="cls-6" d="M356.76,248.09l-.65-.07c.38.07.66-.48.61-.64l-.49.15c-.66-.07.18-.6.35-.92C357,246.84,357.54,247.67,356.76,248.09Z"/><path class="cls-6" d="M355.41,247.51l-.4.49Z"/><path class="cls-6" d="M352.93,250.36c-.2-.94.45-.59.9-1.19l-.18.88,2.17-1.21A3.58,3.58,0,0,1,352.93,250.36Z"/><path class="cls-6" d="M351.13,247.74c-1.11.52-1.75,2-3.07,2.39-.25-1.37,1.56-3.47,3.26-3.54Z"/><polygon class="cls-8" points="350.48 247.4 350.31 247.45 350.87 246.92 350.41 248.05 350.48 247.4"/><rect class="cls-6" x="373.29" y="260.35" width="0.62" height="0.12" transform="translate(-31.39 468.67) rotate(-62.09)"/><path class="cls-8" d="M349.74,248.53c-.1-.33-.35.65-.9.91C348.13,249.48,349.16,247.53,349.74,248.53Z"/><path class="cls-6" d="M371.93,260.29l-.13.76Z"/><path class="cls-6" d="M372,265.33a7.35,7.35,0,0,1,.93-2Z"/><path class="cls-6" d="M371.7,263.08v0Z"/><path class="cls-6" d="M361.64,259.83c-.75-1-1.94.77-1.89,1.21-.09-1.15,1.24-1.56,2-1.87Z"/><polygon class="cls-6" points="361.19 260.14 361.53 260.04 361.24 260.58 361.19 260.14"/><path class="cls-6" d="M371.72,267a1.14,1.14,0,0,1-.87-.19c-.07.38,1.43-.35,1.18-1.17C372.24,266,372,266.53,371.72,267Z"/><path class="cls-6" d="M359.61,262.35c-.44,0-.58-1-.25-1.1l.15.5c.54.28.67-.48.84-.8C360.83,261.61,359.84,261.92,359.61,262.35Z"/><path class="cls-6" d="M359.46,266.29l-.61.1c-.64-.34-.35-1.16-.07-1.43C359.83,264.55,359.69,265.59,359.46,266.29Z"/><path class="cls-6" d="M340.82,264.05c-.32-.17.13-.49.24-.71C341.28,263.46,340.94,263.83,340.82,264.05Z"/><path class="cls-6" d="M340,265.29l-.56.54Z"/><path class="cls-6" d="M337.33,268c-.12.5-.93.2-1-.24C336.35,267.78,337.29,267.58,337.33,268Z"/><path class="cls-6" d="M340,297c-.27,0-.33.38-.39.49l1-1.84-.27,2.07Z"/><rect class="cls-6" x="337.28" y="300.57" width="0.98" height="0.25" transform="translate(-86.05 458.44) rotate(-62.09)"/><path class="cls-6" d="M339.55,301.78l-.38.21c-.21-.39.07-.66.46-.87A.67.67,0,0,1,339.55,301.78Z"/><path class="cls-6" d="M336.28,303.79l.32.17c-.32-.17-.66.2-.73.58l1-2.39C336.84,303,336.51,303.08,336.28,303.79Z"/><path class="cls-6" d="M335.67,306c-.58-.72,1.22-.46,1.25-1.56C336.09,304.66,337.15,306.33,335.67,306Z"/><path class="cls-6" d="M324.69,330.37l-.29.54a.85.85,0,0,1-.29-1.54C324.38,329.65,324.75,330,324.69,330.37Z"/></g><circle class="cls-13" cx="205.13" cy="172.6" r="19.93"/><circle class="cls-13" cx="417.29" cy="172.6" r="19.93"/></g></g></svg>